<mxfile host="Electron" agent="Mozilla/5.0 (Windows NT 10.0; Win64; x64) AppleWebKit/537.36 (KHTML, like Gecko) draw.io/24.7.5 Chrome/126.0.6478.183 Electron/31.3.0 Safari/537.36" version="24.7.5">
  <diagram id="LOM9EzAZV0frGQYRhH_V" name="Page-1">
    <mxGraphModel dx="1098" dy="820" grid="1" gridSize="10" guides="1" tooltips="1" connect="1" arrows="1" fold="1" page="1" pageScale="1" pageWidth="850" pageHeight="1100" math="0" shadow="0">
      <root>
        <mxCell id="0" />
        <mxCell id="1" parent="0" />
        <mxCell id="cJ9B3ikXQ1t_GQ5fsP3J-2" value="" style="shape=image;aspect=fixed;image=data:image/png,iVBORw0KGgoAAAANSUhEUgAAAggAAAGWCAYAAAAdeHvNAAAgAElEQVR4XuxdB3hURds9yfbd9F5IQgKE0HvvVRCp0gURsYsoRdBfbNg+C4gVEVQQqYJU6YTeO6EmpJDey+5m+yb/885NEJSQtoEkzPXbb4G9M3fmzN2dc99yXrvCwsJC8IMjwBHgCHAEOAIcAY7AHQjYcYLA7weOAEeAI8AR4AhwBP6NACcI/J7gCHAEOAIcAY4AR+A/CHCCwG8KjgBHgCPAEeAIcAQ4QeD3AEeAI8AR4AhwBDgCpSPALQilY8TP4AhwBDgCHAGOwCOHACcIj9yS8wlzBDgCHAGOAEegdAQ4QSgdI34GR4AjwBHgCHAEHjkEOEF45JacT/hRRiBXr8Hem2cQo864DUNnn/roHNIS9nb2jzI0fO4cAY7AvxDgBIHfEhyBRwSBN//+DjHabNxMj0Mh7CARSaA3G+AgkaGpXwMMrt8Ow5v2fETQ4NPkCHAESkOAE4TSEOKfcwRqOAL5Rj1GbfgE5+Kvoq1/Q6hEUqgkMkjsRbAWFiDfbESmXoO4vDR82HcKxjbtwa0JNXzN+fA5ArZAgBMEW6DI++AIVFMErAVWDF87DzdSotExoBGUYimkIgmkIjHE9iKI7AW3gtlqQWx2Cg4mXcP6cR+iW2DT2zO6lZ2MLRH7cSnlJswWM0I8/NCrXnu0q9sMcomsms6cD4sjwBGoLAKcIFQWQd6eI1BNETBZzZiz9xdsuBSOrgFN4CxTQiGWQSmRQSaWQGovkAR7OxEKCq0wWs04kXgNZ1Iise3pz7H7xgl8enwDxCIRHEQSuEhksLezg8ZsQo7FCCriwghISBvM6T0JXkpneKhcqikafFgcAY5AeRHgBKG8iPHzOQI1BIET8Vcwa9dPcJIqEeToAYVEBpVUDqVYxp785WIJJCIxpPYiYbMnd4PJgG/O/o1cbQ48HN3Q2iMInioXiEQi2BXNu6BQIAaWAitydGpE5CRBY9Kjk089vN59PDrVaVRDEKqZw8zW5cFkMcPL0Y27gmrmEtaYUXOCUGOWig+UI1B2BKhI6/KLe/DVkbVo6xUCF5kKKpkCKomcvZRSGRRiKeRFLgd7e3tQG7PVjD1xFxCZmYiWXsFQSRXM2kCWBjs7ogiFsBYUwmK1wlxgAVkpDBYTIwinU6MhFUvw5WMvomdwC9jdphRlHzc/878I6E0GHL91CYeTI1GIQiTnpkNnMmByi37oE9qeQ8YRqDIEOEGoMmh5xxyBh4dAnl6DD8J/w5GEa2jjHQxHiRKOcgUcJEo4SAWSwKwJEhnE9mLATtjOiSTQph+dnQKtWQ8HiQJyCREEe3YOfW6xFjDrgUAO6GVk5+YZdLiacQvkfPhm0GvcklDB5SfrwKn4CGy6cQK3tNnMWqBWZ0ClcMT2uIsY37QXegQ0wbILu/B620EY3WpABa/Em3EE7o8AJwj8DuEI1EIE4rKT8dy6jyGSKlDfzQ8uciUjB05yFRylcjhKlcyiQC6Gez3pU9BiYl46nOUqyMUyFsxIBKKACEIROdBbTNCbTcg3G6A16qEx6ZBj0OJ4SiQaufri+yEz4OngWgvRtf2UIpIi8cvJzdidGomCwgIoYYfedZpgWIs+8HBwxcYLu7E0IhxPN+2FqV1Hw1mqxMXUGAxZ/S7e6fgkXuk62vaD4j0+8ghwgvDI3wIcgNqIwIXUaPRfPhudfUMR4OwFF7mKbSpEEJxkSjjJVCwmQXAb3PswmU2QiCX3PEewNFiQb9JBY9RDbdQhz5jPXlkkxhQfgZ0TP0Njz6DaCG+F5kSY0eZP8R4aQz6+OrACiy/sgrrAyvobE9IGb/YYj+b+Ybf7p7iQx5e+jhNZiTg35RvU8wy869pJ6ky0XPQC3u00Cq91G3vf9azQoHmjRxoBThAe6eXnk6+tCBBBGLjiLXTzbQhfR3c4KxzgIlUxgkBkgd4p3bGyh8VqgYbIgUGLbEM+cgwa5Oi12BF3Hp/3mYyRzXpX9hI1tj3FCaRrs5Fj0oPFEcScw/rrx6BDIYvp8FE4YVrbJ9CzfjvIJNK75plv0rO00o8Pr0ahyYDtzy4oEYczyZF49q/PMal5H7zUcQRzHfGDI2ALBDhBsAWKvA+OQDVCIFObg7MpUXhm05eMIPg5eggEQUbkwIG5GxzlKiH24PZBz7XF1oQ7/3z3xChI7t8uCaPFhBy9Gtl6LbJ0amTp1dgWew5PhXXBh4+9WI2QqdqhUEzGtdRYROUkw1BgRWxWEq7EX4ZGJIG7gwucRVJ0D2iMAY06w1GmKnEwmbo8fHt8A84lR2F04+4Y3bx3qXoT+2LP4+1dizEkrAve7DYWMhuQv6pFi/deExDgBKEmrBIfI0egDAhojTr8eGYbrqTFIEmdhWuZ8ejhFwZvBzfBciBTwVXuAGcFuRlUENmLytBr6aeQ2ZxqPGTmq5Ghy0OmPg9bY87i/zqNxLPth5TeQQ09g4IHr6fFYHvMOeSa9DCajYhOi4OPygWBnoEso6Ohkyc6BDaFj7NnmWZ5Ki4Cv1zai3RNFt4sShm9nxvozk7DY85j9s5F6FavNb5+7KUyXY+fxBG4HwKcIPD7gyNQCxCgTfrDAyuwIWI//J08WWqiq0wFfwc39rTqIJHDQUoZCYLMMqUv2oogkG+dsibS83ORVvTaHncef45+F238QmsBuv+dQlRGPN4PX4YkdQaCnDzxRJPucGBCVFI0dPODt6N7ufF9f/fP2BJ9FjM7PYlugc0Q5OZbbuzOJUVi8vpP0CKoKX4f9ma52/MGHIE7EeAEgd8PHIFagMDS01vxxaHVaOYVAm9HF5aeSISAUhqFdwUcJQoopDLYM00Dcij8E6B4p+vgv26Ef1wO93IxFBQUgMziadocpOfn4ETyDaTlZWDzpM8R7OZXC9C9ewrnk27gyXUfYWRoR7zWdTQcpQpmoaloNUxyCb2xazHOxV3Ezue+gZ+jO4tRqOiRpsnGsGVvol6dUKwYNpsHLlYUSN4OnCDwm4AjUAsQ+OjQSqy5sBetvUOYG0EgBko4yhRsA6O0RkeZkpm9bX3ozAZkaHORqskGBUdujzuHWZ1HYnBoB9TzDGLyzKTeWFZTua3HZ6v+dGYj3tw8HxtvXcIvA17FwCbdKtU1ZSgcvHkWM3YuQt+QVnivz2Q4yR0q1WdxY3L5jF35LkJ862F+/xdYxgo/OALlRYAThPIixs/nCFRDBC4lReL5v7+Bt9wJ/g6uReRAKZADIgmU2ihVQi6VVYnCIbkZSKb5aOIV/BV1kmkl0MtcYIWLTIlvHnsJHQOb3Dc4rxrCyoZkMBsRmZWIN3b8iHyrGYee+Qoy8d1ZB+Ude6o6E3tizuODgyvwdrdxeLbVAEakbHnEZ6fg3b1LEeheB9M6DOOaFLYE9xHpixOER2Sh+TRrHwK0KV9Iuo4UdSYshQVYdHobYvPS0S+oJdyUjqw4E5ECJYs9kLBCTSStXFVP8uR+IAlmenrNppeB3rW4kh6LDKMWr7YbgrEt+rIx1JQjS5eH5We340zqTTT3CMLrXcdU+ml8x43jWHF+FxRyFRM+6lG/bZXBQYJZC4+th1yqwBsdh8PHyaPKrsU7rn0IcIJQ+9aUz+gRQOCXU5txMSsJlxOvw2o2gHQOc435uKbNxqfdJ8Bd4cgyFSgYUSK+t1piVcBEpIVcDjl6QQ8hx6hlf47OTUWeSY+vBryMdv4Nq+LSNu8zITcV74Yvh0aXh5ndx6OdfxhTnqzooTZosSpiP349uQkT2g3GMy362sylcL8xkbViyZm/cT07ER/1eBohngEVnQJv94ghwAnCI7bgfLo1H4FPD6/GohMb0dSzLlRiKTwUjiwzwY7KNtvZoaV3XUYMKDCRYg4edNEkSv8j4aQcQz5y9VrkmgR9hGPJN/BE/XaY23sSG191PhYdWYtVkSfweHBLjGnRFyFu/pUa7vW0WHx04HcoJHKMbdYLfRq0f6ClrIicbLh8AH9cPoD5faegJa+4Wan1fFQac4LwqKw0n2etQGDXtaOYvmsxglx8EOjkwdwGxcWXqPASkQKllFIZFVBKFBCLKh4NX1HAyM2gMeUjj1kQBJXFXIMW8blpOJ0ei0NTFiLY1aei3VdpO6pBMXHjF9gWeQJXX1kKbweXSscbXEu/ha7LZuLp5n3xQc+JTOq6qtw89wOHYkJ2RZ7EvIN/YEG/59ElpFWVYsk7r/kIcIJQ89eQz+ARQcBaUIBPDq/C9uvH0cjNH0rSNBBT6eaiEs6kbyCR3f67jFVq/Icg3C+VsaKf3Ql9cR/WAivyjXpWlyGXrAhGLfIMQp2G3bcisGviZwj7V02Bh72EtHleSLrBNk+R1YpfRr0DN6VTpYZFxOjbQ6vx29VDeL/TSEzqMLRS/dmiMellbL52FPMPr8FHvSehe722rBAXPzgC90KAEwR+X3AEaggCpM3/+t/fwc7eHiHO3ix1kBECiZwFztG7SiJlBIH+TMGAthJDKg9ERGSoiJOaEYR/ijipDTrsi4/Ai837Ylbvp8vTZZWeSwqUG64ewsIj6/Bix+GY1LIfcwVU9GAKi1kJmLn1G1glMqwb8RY8HN0q2p3N2xFJYLEQp7ZgRueRGNSo60OxaNh8YrxDmyPACYLNIeUdcgSqBoEtN45j+vYf0Na7Hiu4RATgNkEQFxMFCZRSGRQiGSMN4koE1VV0FmRB0Jr0UBvyoTbpmYtBbSJXgw6X02JgLrDgxCs/V7R7m7Y7HH0O22PO4nr6LUxu2R9DmnSvVP9UnGl9xH4cTbyGBs7emNt38r9qXlSqe5s1pmDSPyLC8e2RNXi945OY0HqAzfrmHdUeBDhBqD1ryWdSyxEggvDent/Q2isYUrEIckYKpCwOgciA8C5lKY3yIoJARXvsi0zI91JB/AeyihdrKu6D+qf/UdEiqkZIZaA1RBSM+eydCEKCOh3hiVeR/87Wh7paZOVYfPZvLD65CS91GIaBIa1R171ygYgpmixM2/4DKM9haodhaFsnrNLxC1UN0l/XjuLlzfMxu8sozOw2rqovx/uvYQhwglDDFowP99FFgAjCN3vXoplXIPQiC+QiKSMIciIHIuGdrApysRhSkRgysYxV9aPUvMqk55WGOD2N0kHvZB2g6o75ZgN0JiO0JgM0Jh00Zj00Bh0r5rTj1iVo/29zad1W2efJeelYcGw9LiZH4o1uYzGwQfsKyyQXD3LtuR349vxOdPMLxSudRyHQ2avKxm/rjk8kXsfwle/gxXZD8EHvSbbunvdXgxHgBKEGLx4f+qOFABGEpXs3opFnHWSL9JCJxVCK5ZAxi4GUvahIE6U2yuxFzL0gF0lYEaHKKv+VhnSeQQPiCdZCK0xWC4xmM/RWE1NXJF0EsiAQWaB6DbsTIqD9vy2ldVkln0dnJeKx32bh8cZd8W738fBQuVba/z529fvYGnMOES/+hABX7yolY1UCCoCI1Bj0XzYLU7uMwjvcklBVMNe4fjlBqHFLxgdcUxAgMzv5382FhSznXSGSwFXhWOG4gB03T+PDrUvQyKMO7OUSRgxk9hJGCuREDEQSSO3pXczEkaiyoKvcEY5yZaWfkEvDXGvQsUJNNFFLQQEjCSaLBXqrAQaziZGDfIsBkVlJuJKdhIw5G0rr0qaf5+jUOJ1wBVO2fYuXWvbHO30mV6p/cqNcSY3BJ4dXI0+ThY2TvmAppjX5OBZ3Cc9t+gqvdRmFKa0HsPuJH482ApwgPNrrz2dfBQgk5abhelYSdt84jh3XjiLVagLJFTV08cH41gNQz9UHveq1KfeV0zXZeGvPEqSmpsHP3QN2IntIyZ1ApIC5FSSQ2JNrQcJqMJCaorPcgVkPKO/+fjEI96/m+M9QS+rDaDYhSZPBpJULCgtBkfIWcjdYLdCbjdCbTdBZjAhPuILXWg/ErJ4Tyj3/ijQgt8f51Gh8svcX6OxFeL/zKHQMblGRrm630Rr1+P3CLqy9tA/jmvfFhJb9mJWmNhzhUafxbvhveKrVADzXZiAnCbVhUSsxB04QKgEeb8oR+DcCl9Pj8PH+5YhIj4PIXow6SmdWSZE2zAyDBmqTAbnaLEzvOREvtB5YbtP/vtjz+Gj3bygosKCum59gLRCJGDGgP6ukcrjIHOCqcGCCPHRtSRVUcPz3vIkgpOtykKTOZkGJNF8iCqQvYLSaYLSYEa/NRmJeOnZM+pwJPVX1kafXYE/0WSw7txNB7v5YOODlSpv/T9+KwF+RJ3EhORKvdhyBQQ07PHClyqrG7UjMeXx08A90rtsCMzs9CQe5qqovyfuvpghwglBNF4YPq+YhEJebhmc3fcmKJ1FhHyq7TBs3beCUSUBuBto4b+Wm40rGLYxr9Rje7fHUXT7w2KxEXE2LQb5Rx4osBbj4oLFPvdsbG226R+IjMHXLQmitZjRx8YW7yoXFGhAhoGu6yB1YBUcyeVM+PxGHqlTuo4wAvdnA1BLTtLlI0WazwERSJSQdBqPVjFvqDNzMScb0DsPwaqeRlS54VNrdkZmfizk7FqHA3h7DG3ZC3wbtmT5ERQ+yRFBg45pL+/BC2yfQI6gZQr2CKtpdtW93OTkKHx1YAU9nT3zQ4yl4OFQfHYdqD14tGiAnCLVoMflUHh4CtBkO+HU64rW56OgbyjZrSjkk877UXswUDUmxjkz0ZqsVqdos7I45h1c7PYlnWvTHrN2LcSEjDjoT+ez1UMIeFsoMIKuAjGII7FDPxRvvdBmDFv4NEZmZiP03T+HN/csR7OyFnnUaM8uBk1zFrAYkt0xCSuz6IklR3APFQgiuhoKCAtjZ2d8uMXx/FwO5DIRKjTSHO8WXiByQMJDOYgCZ3qk4U6omG7viLiJekym4NgoLUc/FC7M7jcRjDTux0tNVeURn3MKoDZ+hqYsvPhn4Cvwc3SulFpiuycLnR9fhUNRpfDX4dXQJbHqXQmVVzuVh9k1FnuYfXo1Mow4f934G/i7eD3M4/NoPAQFOEB4C6PyStQ+B43EXMXjdR3iibqvb4kVUG0FIO5SxGAGRnQgiOzu22dJT9aX0WGyJPM42URepEp0CGjNLgL29qGgbp42czPQFMFhMOJ8WjUh1Bvr5NcTSkW8jXZ2JbivexoDAZgh29WWkRCVVsutTqiNduzgugQgKXYeuTUJGBSi8Ha9QmnWB2hjMRjYGkZ09i3Gwt7NnGz/1ZSqwQGfWQ282I8+kQ7ZOjc1RJ9E/qCmmdxsPH2dPRkzs7en/yY5SdcdbWxfi64t7sGbwGxjavE+lgzOvpsZg5Kp30bN+W3zYexI8H7EnaSry9L+DqxCXm4ovH3uRk4Squ3WrZc+cIFTLZeGDqmkIiOcNRHffBmjgXqeoeBIVS/pHBlnIMhAsCeRsMBdYEZOdjBUR++Dv4oUmbgHsfIoXIBJBRwHANmB6cidCwQSIzEacSr2J6Nw0GAsseDygKULc/OBAxIAklsVyyEk8ia5VdD12zaIneWthAUtFtLcTQUZpkXSOWAyxnYhlIBRv4MWiR8UWAspAIDcC7OyY5gJZEegc6o/GZ7JQEKKQ1kg1F66mxeJUShQS36r6bAWy3iSpMzBnz1KcS4vBhRcXMSwqc2Tl5+JMUhSmbF2Al9oOwtweDyaosjJjrqq2ar0Wnx9Zg4TsZFaJM9Sz9rpWqgrDmtovJwg1deX4uKsNAtn5efBaMA4TwrrAUaKAg0zBsgiopLGK6iNIBaJAokVUXbH46ZtM8+SvT1Bnso2aEQQRWRqE4jlsMy9OGbSa2RM8aQoQSbiWHoezmfHo5NcQYW5+bEMkJUWyVjAtBApeJBeCveBGICkjin+g/uigz1laZNE7bfhETMjtQAezDhQWsDgCEj7SmY2MAJDYAekvFBeBEiwSQlqjMD4jtGY9cvQarIs6gew5f1XpOlGGxOqLe7Dr5hnmgpnedSw8HVwrfE0iPScSruH7o+tgsLPDqy0HoHfDDhXur7Y0pJiYV7YuRKo6A7ue/bq2TIvPoxQEOEHgtwhHoJIIrDu/C1O2/4AxDTuz4EAnqZL52YkkOMjk7OmeCAKRg3+b2Cm6P0WTyUSGiEiQyJE9hFgF2niFLACBHOhJmZCJDumY8FBUZiJOpcegf2Az1HPzux3vIBARMSMibNMvIhtktaDrUNAknSOl7AexBBJyfTAiYX87mJEIAl1bUEY0CwTBbERhYQEkIglrT9aEYiJhIYLAxmlkVgTSPVgXdRzxb6yAg6xqouDT1JlYcHIjTsddwhvdx+Gxem3LnRVy59KTOX1H1Gn8fHIz2gY1wfvdJ0Apq9naBpW8tW+TxfDYC/jq8GrsT7gCw9y/bdEt76MGIMAJQg1YJD7E6o3A3L+/w9rrx9AruBWcpAo4y1VwkqrgRJYEOREFFYtBKMn/zkz3oI2bfPuCn56JF5OeACg40MKsBlQhkeobUOEjtVHHsgYupscx0vBY3VaQMuEkQVaZHBm04RM7KLYckEVAbGcvWA6IGBRZGQQyYScELNKLlVQogNVaAFMRQaEndbJeWAqtkJA4k4hcIUVEhlkmiExYBb0Dklm2GPHXzVO4/vISeDm523wBV5/djt+vHkYrzyCMbtYbLf1DK3WNZHUG3tuzFAX2IgwN7YABDTtVimxUajDVqLHOpGd6DysvhaNv/Tb45sw2pMxYXY1GyIdSlQhwglCV6PK+HwkEJq6ci4iMRHQIbAJnmZJVWqRsAgoapMwCcjmwzbqE4/5FlIRGxSWU8wzFJZS1zIx/S52JU6lR6B/YHG5KJ6agSPEEzBpQ5FYgSwC1p72fiAFlVbDMBvZeZD2gyIgiawNzRzBiImz6FF+gtwh1FagvQYypyM3ArAgFMJO1o8jNYLCYobeYsCXmLDJn/2nTktPk8vjgwAr8fPZvbB33EZp6BVVapCgpNx29V8xBV79QfPLYi/BUulQq66G23PRkHRr820zYy5RMfrm5b300/+klRL32W22ZIp9HKQhwgsBvEY5AJRCgzX3civ/D9ewUdAhowsiBs0x4uSiUcJU5QiGT3xX8d6cloeT0wjurK9ITvZCaSCJE2XoNsnUaZBs0SFRn4HTiNTTxrIs6Lt6QsFiCf+IIKAOCnvoLUACJnaCyWEwSaKMX0i/J3kDGA4pBEDIdirMdWAxCgZkVXsq36BkJoCwLkniWFmdGgOSVrew6Akkw41pGPKLyUpH59qZKoHt307isJMzc+SNy8vOwdMRbCPGoU6m+yaLy8c7F+N+57fip73OY1GFopfqrLY1p7ZNyUhD8wxT0r9MY2yfPvz21Bt9N5gShtix0GebBCUIZQOKncAT+jQBt0jcy4pGizsC3h9dAbTaifZ3GzL3gQgSBCRap4KZwZFUWbXHQEx09yWfnq5GpUyNTn4dbeWk4kXAVTTyD4OvkUeSiKDb9k+VACDYk1wK5FJj14I6MCiIT9CJiQDYHoiXFZITaUQojBSmS64DiHrKMWubGoDmSFYHiJYh8MFJRUABzYQGy9FrcyEnCmpFz0dKvfqWnTi6Yk4nX8eLGLzC21WOY3XkU04ao6EGkJyEvHbN2LkJ0XgaOTF7AXEH8ACumtfj4BmyLvYCpLfvj6fZD7oKFE4RH6y7hBOHRWm8+WxsgkGPQ4r3wZdhw5RALRqSn9oZOXgh292ciRRSHQIGJjnIZXGS2Iwg0dNqss/LzkJafiwxdLqJzU3EyKQrdfBtCLKWKD3aMEJD7IcesZxu3m1TJpJdJY6FYlpmsByKRiBEHlulQZEEQsh0E/QVzoQUWC9VTMDNycD07EbCzh8moh1KugrfShZEgOqxMSMmCNF0uUnW5GB3WBdO7jYVjJQMULyTdwM6bZ7An5hwmNOmJye0HV2oFNUYd1l/ah/C4S/BXuWBOr4lwVThVqs/a0JjW7lJqNH48tRkp+bn4duBU1HP3+8/UOEGoDatd9jlwglB2rPiZHAGGwFcHV+LrU5vR2S8UPio3JmnsIKV0xuK0RjlLWRSe1MnXLyoTcvePRRBcDhQsmK7NQVo+vXJxPPEabuamI9DBA3qYb2csiK0F6BzcnAn7hEefhaOdGN5OHkLmApGDIkVEsh4I2QuCi4GyHCimgOkbFGkwUDzBtewkBLv6YHrH4UjMy0B4fAT2Rp2GpMg6QsmTBQVWeMkdMK55Hwxt1BV+zp5lmve9TqKYCSpv/eXhVegf2gHjG3dHqFfdCvdHDck1MXf/MsRlJGBatzHoEdTcZtadSg2sGjT+6sAfOJcei1beIRjXoi9zV93r4AShGizWAxwCJwgPEGx+qdqBQIuFE+Egd0QTryCme0BWBNI7oBRHSm1kf5cqbBqcR8hRNgIFKZKUcWp+No7duow4XQ4LIKMNlbIHAlx9mbaBo0SGxp5BjLwcuhWBV7d9C0d7McK8g1nsAIs9YJkLgk6CoM0kpC2y+IOiYkv5ZgMis5MR4OyJeb2fQVOfeoxIkFri+ZQoVldCbdDAz9mLzdtX5Yqm3sEVLmlNoyCRosWnt+DIrcsY3qQ7nm75GIudqMyx5twOLInYj5budTC53RNo6h1Sme5qTds8vRaTNn+FtOxkfD1kOlp4h5RYJ0Nn1KPZ4pcQPW15rZk/n8j9EeAEgd8hHIFyIvDh7p+x8tpRdK/TqIggKOBQRBSYDoJMxTZmMt3b8mDaCNYCFodAVoSpe5fAikJ4q1zYZYhALH9iOvqGtr/rsvTvKZpsNP52MhzlKnT2CYVMIr2LINzZgDIYKCtBa9LjUOIV9KzbAv/r8yzqedT5TzYGWRnIclCsu1DZ+WqNOnT7eSqa+NbHhz0nItDVt1IVGIk4vb7zR6yKCGexBoHOXpXOeqjsHKtL+00R4fjwyFr0q9MYM3pOhI9jyQWZjsVcwNwDvyPEwQ1LR8+tLlPg46hiBDhBqGKAefe1AwEWgFdgYZvwtcwEPL7ibXT0boA6zp5FlgMlIwWCBYHelWwTrqqDxkOSxjk6NbIMGpbZcD09DvuTb2BC/Qh57zMAACAASURBVPZY+OSc/7g2KDjvrb+/x89XDsBLokQj9zqQyeS3tReKSUa+QYdjKZEs4PDlZr0xf+iMqprG7X5JjOlM/GUMXPsBngnrgm+Hz67UNckKcjMjnsWKJOWmYtXY91llTH4IcSxfH1uPz46uw7Zx89CtbvMSYaF7Zu3lA3h1+3dYPOh1jGrak6eAPkI3EScIj9Bi86mWHwF6oo3OTsaF5CgcjDyJ+JwU9hQercmEh6MnHgtuCS+lM1wUjowc0JP0v4/SKiUyNaOi7IGSxJTu1Qf9eOfo1cjRa0GBkzkGDbKoUFLMWXzWYyKeKyFtLyUvA9+d2IjDSdeZ3oFQqpn0FfLZOHKNwnsHFz/M6TUBw5r1Lj9wZWxBLg0qk/3R3qW4rs7A/7pPQPcG7crY+t6nUWEpkl7+YM9SjG7ZD6+2HwInuUOl+qwtjU8nXMXqS+GIzErAB70moW1A4xKnRmXH/7p6GHuiz2FOl9F4vFGX2gIDn0cZEeAEoYxA8dMePQQo4v3rI2vx59VDrPSyt0wFT4UT8/fnWoxo7h2Mtj71mbWAYg5ISvlBHrS50hhZxoJBy5QV6ZWkzsKlnERsG/MBGniVXliHyvruizmP1ZcPsOFvjzn7QAgClbY+HHcRyy/sgdUOWPTENLhVMqPgXMJV7Ig5h/0x5zGpRT9MbD3gQS5Jtb0WWQ1WXT6Abw6uwrg2AzGlZX94lFCzgojnxuvH8OmepXi8WU+80vpx1HHl1pdqu7hVODBOEKoQXN51zUZg7YU9mLFnCVp6BSPA0YMVRGIviZzFHFDtBKEYkwLKSlYPrChSepOBWQ4ECwARBOH9REokBjfsiE/6PV+mrimQkczOdFCp5qq2IJBC45wdPyJJm40hoR0xsGFHuCmdyzTWe51ELgWKM/jh+AYMa9IDQxu0QxgPRGRQRSRHYuXlA7icfBPjWvXHUy36lohzTFYiVkaE42jsRQxr2hMvtn3idn2OCi8Ob1hjEeAEocYuHR94VSPQ+Ltn4at0Roiz9+3SzUJlRkpnlN2u0kgEgVIay+MeuNfY75fmePdn/6gs0pMhEQJBgrno3ahFXF4GnB1csHzYm2UK8nuQBCEyPQ4v7/wRKqsVnw56DY08AiqV8ZGhzcGiU5uZ1eC5doMxumnPMs25qu+fh90/3TObrx3FvAN/4OkWfTE4tAPqeQSUOKyTCVeZeFSvkDYY1bgrmvlWXuTqYWPAr185BDhBqBx+vHUtReBCwjX0+ONtDAlpC5VEyggCsxSIZVDSe/G/SUjzQM4IwsM4TFYzKFWN4gaIJKhN+cjV5yNBk4WU/Gx8P/BVtA1sUurQHhRBWHDgd3x9dgc+7TYeQ5v3ZjUrKnOkabMx4NcZaBnQCO/1mIBAF18eRAeA7oslp7bg2xMb8X7PiRjZvDfT5Cjp2BhxADP3/IxpbQfjxU4jSkx1rMxa8bY1DwFOEGremvERPwAEun3/HHSFhWjuUw8KcTFBkEMhlkFBbgWxlP2IEnEgglCVGQv3my5ZECibgao7qm8TBB0ydXmISLmJ1zo/WWKw4p39ViVBoMwPqh3x0cE/sP7qIRyZshDBrr6VWsV8kx6XU6IxaM37mNS4O+YPfr1S/dWWxhSXkqVXY9ivM6Bw8sBPA19FPc/Ae06PzqXYladWvI3TeWlo4VUXK4a9yTQt+MERIAQ4QeD3AUfgHggoPhmMxwNbwFmhuk0QiAgQWRBIApEGKeT0Z7EMctIVKKNioq0AZ7UZzEZoTPmsDHSeUQeNSYc8gw65eg0upMdhbKt+LAK9tKMqCcLWa0fxx4XdcFc64c2uYxDsXrEiS5RREpuTgiyDFstObsEtvRrvdR6FXv/SfShtrrX1c5LgPpcciTd2LkJrvwZYPmJOiVVE1QYtLqXG4pkt8xHq6ov5A17G1O3fcYJQW2+OCs6LE4QKAseb1W4EiCAMrdcOSrGkiBQIVgS5uJgU0LuEEQOZSCrUORALssqkNHj3cXdlxpKQK4vUMrWl84gckH5+vtkIeprONxlYvQR6CZYEPa5kJWB40x4PjSBkaLKx+uoh/H5qC17uMhoTmveGTFx2bQia19XUaJxJi2Vlp9PVmSzgTqV0xuGEK3it3VDM7jamdt+IZZzdtfQ4LDq5CbkmAwbXa4NRLfuV2JIKVf10YhPi1BnYFXcBKTNXIyYnFa9s+4YThDLi/aicxgnCo7LSfJ7lQoAIwhsh/ZAq1kJBRKDIakAEQSYS/k7vVNGQpI3Jv0tywGRlqEpLgqXAApPVIlROLLCA6iQYzCbkm4zQmfXQmg3QGHTQWAysfsLQxt0eCkHYce0I/rh8AO5yR4xo1AU967ctE/4XE29g181TiNZmg9IgdeoseDh7om1QU1ZQigostfZviFNJN/Dq5gUY32YgPuvzbJn6ro0nUcrtodjzWHh8A1OJnNF1LOq6epcYMHsxOQofHVoJhb0Is3s8hYmbvsTp57/jBKE23hw2mBMnCDYAkXdR+xDw+98I9HMNA9xUzDpAZIDcC0QC6CW1J6IghoQIgr0YcokErnInKKSyEn+cbYESBZ/l6DS3VR2NVitMFjOTXyZ3g45cDmYdNEYDLmXcwtiWfctFEEaHdcWBmLNYfu0IWjl5lVsoiXLol57bgQVH1+Hjvs+if0gbuCrvXS2RiSRlJ2H5mb9xOCUKhgIrNHotunsHo3ejrvB19oRKJIGfo/s9c/YvpkRh7KoP8HizHviq3/OPZDretI1f4GpeBl5oNQB9G7S9b6ro3O0/YHfiVbRw8cXjYZ0wvHkftPn5VZx47htOEGzx5ayFfXCCUAsX9VGbUromC8tPbcHiS/uQYcxHW2dvvNRpBJ5s0bdEH2xpGO28egTjtyzAgOCWUBRZB4gIEFEgVwIjB3aC5cBZrmACP1SDgUoo/9tVcD8lxfurLP4zyuLzrAVWZOnykKrJZQKM9ARpLjAzq4LBYmIEgchCpk6NG+mxeLvHBIwrg1hQcQzC620H43DsOXx2eitaOHqWiyBk6/Lw5t/fIzInGV/0fxEd6Knf7u56FNnaPKw8uw1zjwuaC6Rf0MWnHt7qOg4tA8KY9YWKSUlEEiYBXdpxKycFo1fORe+wLvio96QyV84srd/q/nm+UY9WS15lpbcjpv7C9Dn+jXXxHMjCNHDVOzgafwWeKmf82Pd5yCQSDGjUjROE6r7QD3l8nCA85AXgl684ArQ5fLT3V6yJOgk3iQKBDlR6WcaC9eipSmFnh7e7jsFz7YewFMXyHsELJ8LFjiog1oVKLIOkqFQyIwcicidI4SJ3gKvCAc4yByaWVNKPdHmvXdL5RAjyDBokabKQocuDPexul2amegZGqwl6sxnxmgx4OLrh1yEzoZSVPvc7CcKR2HP4tBwEgSwYqfk56PrTy+gb1hnz+z3PalbkW0wsVuLQzdNYcX43rmmz2AZeR6rEax2GYUSLfjZRnyRdhRnbf0D3em3xcvvBrKpkbT0o1mTrlYNYcGoz+tQJw2eDppU4VcpwORB9Fl8eW49gBzf8MHw2gr+dhMX9X2C4c4JQW+8S282LEwTbYcl7eoAIHIq7hDGr34OLyhWtPetCJVNAYmfPnuDpuZM2phRtDs6m3sT4Fn3xf92fukvtkMkl69VMqpjOp5RFZ4XjXUF0ieoMjFn3MXJ0eajn4gs3uQOzHJCLgeSV3RWOcJGr2IbkIFWygMWqJghkwqcxZ+TnIUmbwdwNhbBjGzKVaNZbzEjQZCIqOwnv9XgKL7QfWqZVqShBiM5MZDEDHxz4Ay3c/DG910Tcyk7G0agzSDbroJQ7QCmSoH9AEzzRuDt8nD3KNJ7ynnQjPQ6fHlqJUI8gPNdmILwd3cvbRbU+nyxIibkZWHJmK5PF/qTvc+ge3LzE+41KZv96fhc+OrCC1Vx4reMwRmr9F4znBKFar3T1GhwnCNVrPfhoyoDA6fjLGLn+U3jIHdHKqy7LLGBxAWT+txfdDhIkEpCen4MD8REY2bwPPu79DBJy07D1xnHkGHVIyElBqjYLEjsRK8Dk5+x9W7inb2BTtA5ojKvpcfjx1GacSLjGIumJjLgpHeEqd2QuBcci+WVKdaQIfYlIfJcvnIgK5TCUxVxO+QnkN6DNvrBQaFOcEUG9UGAiuREouj/XoENafg7ic9NwLSsBxoICFNpRpT4zZHZ2eLrtIEzrMKwMaAqnlJcgmM1mHI2NwJfH1yI84TIC5Y5o7BWEYO8QJhoV6uSJXiGtKpzSWOaB33EiEZOvj29gGR2zu4wuUx2KilznYbRZe34XwuMvg/Q6n2v7BFr6h5Y4jB3XjrJ6FJdSb+JiWhy+GvgyprQSalJwgvAwVq/mXpMThJq7do/kyCm178UtC3ApLRbNPQIFZUNKPyRNApGQYUBWBHsW817IgvloE/35cjjeaT8MJ9JikJidAheVM1PcI3lkkR1gKShAAQSffkZ+Dqv+18KvAUaFdkDbgCYs2jsiOQqPFwXdOUmpFoOSqSwWX5vIAb1ERX532uQthVZmoaCnN7peaQddn0zD9E7ZEUIbgTRYrFborUIworaoBkNMdjKOJVxBx8AmaF2nMZwUKoQ5+6BdUNPSLnXX5+UlCBaLBV+v/xXvn1wNg6sMXmI5lg+bhT4NO96zomW5BlOJkzO1OVh+cQ8Oxl7Au93Ho11g+XCoxKWrpCm5b97a9ys2XTmABQOnontgU7ip7l2zwlJgxf+OrMXys9vxYZ9n4Wgvwhs7fsT/9Z3MCUKVrE7t75QThNq/xrVqhusu7GFm00ZewfBQOsKBVA1JwEhC4kUyKERSlllAlgQ7O3u2sVKQ1uqLe3EhJwld/cLg4+DCnv7JD0tP6Owpn3QFCqwwW63QmnXsCT3boMXNvDS4q1yQr9OghWcQSyVzkBExIIllEkmSQspSHQUNBLGdiAUPUn+0yZPZnzZ6FtxIGz5zgdw7+I6ub6SURYuBaRwQqaC2dDYF89HnlMWgN1MwoglqkxZpmhwcTbzKpHTf7DK6wptzeQkC3VRf7V8NS2EB+oW1x8+H1+BQRhx8lE54uklPjGnVn0lSP4yDCNbGq0fxw8m/8HGvSehRxhTLhzHW+13zQuJ1fHRkDQqMOnww4CW0uE/xqdisRHx2eA1uZSYiMz8HZ6Ytw5nEqxi7Zh4nCNVtYWvQeDhBqEGLxYcKvBO+DIeizyPM1ZcFHjrKFXAQU/Ek2rClLM6gWKtALBIzyGhjzTNoEZEWyzZaR5mCuQMoYp62a/o32shJY4AsDiYL6QsYmaYAlU4+lnQdDd3roKlHAJzIaiBTsNRH0kIgYiAXC0/69vQq6o/FBFit7N8EAiFl59KGT3EKwsuOORXIdWAttDL3gMEipCrSGCgoUkolpO3tGeGg88jSYaC0RrMBOrOBVW+8mBmP7iGtWMxBRY87CUJ8dgpeDV+Kpir3/2QxmEwmSKWC2NHnR9ehjpMHnmrWW7BwFFhxNPo8Zu1ejIjcVPT0DMHKcR/C08mtosOqcDsaz7rLB/HB3qVYMmQmutVrXeG+HkbDTVcP4dlN8/FFv+fxdKv+kN5HYOpM4jUM/eMdTGk3GLO7jsHo39/C9ue/xemEK5wgPIzFq0XX5AShFi1mbZ8KlTZ+a+8vuJwag1BXH7ZZCwGCCjhKFXCQCoWTFFI5e5q/K4WwsBBU2CdFkw0nmZKpIIrtKV4AjBywdEHSFLDSJm1mm6/WrGcSxvF56TieEolOfg3R0M2/SD2RNnva9IkcUNyDPehZn65pKSi8w7VA1gOxQBLsJcz9QOcTQWDBlBRbULS5UqoiCR/lG40wFZhZn0REqA0RCYHEFBSNUUhnpPGRYmJz3wb4qPczFS47fSY5EuPWf4K6Cmf4ObgiMiMedipnbBr1Lryc3GE0GrFn9x68NXs29u4Ph4+Pz10E4d/3Xq5OjU/2/IK/k65CVFiICWFdMbh5L7jIVPB2cCuTu6Wy9zORqp/ObsN3h9fh+yFvoHe9NpXtssrbJ+amYdO1w1hydgfe7zEBI5r1KvGaaZosVsFy6s4f4adwZqm9r7QbjEFLpuFvThCqfK0ehQtwgvAorHItmWN0Rjym71wEo8XC9OOd5EqWTcCCBWVy4eleqijRzE4kIDM/l22iZPKnp/ti8z1t0pQhYCATPpMtNkBLssWmfKgNOlzOiMOl9FuY1KwPE0Vi1gB7MSMiIjsR7O0FtwFzKxRY2aZf7CIQlBaLzi2yNJBrg/5jlgG6doEV5NfXWc3QmfQwWs3MRULjJF0A8lsIRMbKrBz0OcUikNTy9exk+Du548v+L8DbqeJZAmSm3nApHBeyk5g2wZQOw1nAoVqtxq4dO/Hdt9+iU+dO+PzLL/9jQbjfLXbq1mX8en4H4rQ5UBQWYlizXnCUqdDBtz78Xbyr/O5ceGIjvju6DvMfn4phjbpU+fUqcgG6b/bGnsOHOxejeWBTzGg/FKHede/ZFVm8jsRfxhfhywG5ElqjHmOa9mD3EicIFUGftykJAU4Q+L1RYxC4mHQDs3cuglQsR7CLN1wUKjhJlCzzwFmmYu8UMFiSj58mSmZ6tjnfQ4SHnuat1oKiAkhU9CifVUrMNWiZKX/9zRPo69cYAS7ezCJQHJDIAiKLLBHMXVBgZU/IgkuBMivoXJFAJooCI4uzGlisAqurYIWpgMSOBBcDZStQp0zKmVk6iEwIQY9CLIIFBhJFspoRmZOCln4NWJYGxUfY8tBoNPhr/QasWvkHevTqhTdnz4ZEIpQNvtPFUJZrUgDhtsiTiNdk4nzCNVYBs4lPfbT0CkKvkNY2H/udY1py9m+8s+tnfNj/ebzc9omyDPeBnZOcl46N149h7cW96BfWCe90HcfI670OSl/cFnkC8w6vwfBGXfBmp5EYs/5TThAe2Go9WhfiBOHRWu8aPduLSdfxf7sWQyKWI9DZG64KFZylKha5T3oEJFZEm/a9jvsVQvr3Z/RErzMakGPQsHK42XoNsvVqHLh1CRazCf0btBcCEotcBXS94iDH4qwFoTYDWQ0ES4NAJgRLA0tfLKIxgn6BUHiJbfpWCkA0sEBESlsU1BvFwoZRWOxmEKwIFOGuMRsRkR6HEc17sRiE+5Gjiiy+Xq/Hsl9/g8Ggx3MvvABHR8fb3ZSXINx5/djMRJzLiEN8djL23jwDkVQOX7kD5nQbhxCPgIoMtdQ2228cx9zdSzCx3RN4o8PwaiHNfCE5Eh+GL0M9jwAMDe2IbiGtSpzHrZxUvL1rMfYnXkWaLg+J01eyeJsRa+dxglDq6vMTKoIAJwgVQY23eeAIUGT6vhsn8MOJjZBIFQh08hIIgsyBWRJcZA5wlqtsViiJTL45OjUy9WpksVceTsRfZfEIg8M6C0GJFGhIQYn0X1EAIT3li0X2zGpQLMtMgYaU3UDnUzzBndYLRiyKrQLkOqAsBiaXLKgQEgkhgkDvzALCLA7W2zETaYY8qM1G/DhwKpr61quSdSErAhEUlUp1V/+VIQjFHdG6pmlzWBXKJUf/xJb4CLjLHTAhrAue7TAUjnIHm87pxK0IzNn5E0a27IdX2g15ILEQJU0g/OZpTN3+A8Y27o7Xuoxiqpz3smxR+2tpsRixbh76BDRBvh2w/OJeThBsemfwzu6FACcI/L6o1gjQRl3nf8ORbjWxeAF3iRxd/RujjrMn+0GloDciBq5yB+ZisGUlxVy9Bhn5ucjQq9n7XzeOw0OqREu/UKayQD/m/2RAFMBcaIXUTsT89hJ7e2Y1kFNgokgQbxLfzl4gyIUQxdsBkpTiWCSVrDUZcTMrEcnqDDTyqgsvlRtzURTHSxBxoGsZrRbsjD2P/+swDHP6TLbZOhZnTNC473d8eexPllXiai/GimGz0TusI7OOVEZNkq59LuE6Xt32Nc5lJ6GbZ138MvId1HH1vp35UdmJnk+8xkobT24zCJNbD2CxIg/yoHt60h9zcTjrFn5/4g30aNCuxMvT/fHWloX4JmIf2vg2wPEpCzFj92JQXAW3IDzIVXs0r8UJwqO57jVi1mqDFt1+nQ6tTouedVvAQSJjGQtUmIZSG6lyoqIoYJCUDCnvvixiRGWdPFkQ0vJzmWJhiiYL66JOoK9HGLQSEj8SMhaIRKTn58JB6Qyr1QwPiQJ+jp5QSKRMZ4FUGokcEGGgoENyMdA7O4q1Epj1QUixJOtBVG4qXKQKtPIIxLGMWFxPi0MrRkqEa5JLIlOTDXWhBUPqtsRXg18v65RKPS83JxfLfvsNf65bh6Mnjpd6PrlI/jy/G1+d3cbSOps6e+HpdoMR4OyJQBdvKCTyUvso6QS1XoPvj6zD5rgLrPTzkOCWGNGyH5O8ruPsVaI7qSwXPJdwDXP3L8OgBu3xdKsBTEmzqg9KTY3JTsEzm76E1c4Ox59dyBRA73WQ+yg+Lw2v/P0dUvNzsW/i5xiy9gNOEKp6kXj/dyHACQK/IaotAuvO78Kc8GXoEdBUIAUslVEBR4mCZS2wv8uUTCBJeGoVpIrvdZQnBoHa05NbhjaH1XNIzEvHqeQbUMhV8HJ0R6o6k/2wuyqdmem9l18oxrYagEspN/HOvt+Ql69GXVcflnYpSD//o3tQHH9AIxUEmgqY2JCgb2BiAYfuCgd83u95NPNrwKby4e4luKHJBKW1keuCyidTRck5HYajiW99m61feno6liz+Gfv37cOgIYMxfcaMcvVNeC09vQUR2SnQa7LQKbgV/Fy90cy9DptLZSwLl5OjWMpisk6NQrMRveu3Yzh08WuIYI865Rpn8clR6XGYd2gVAp088Er7oVWaUZGqycLK87twKiUK7bxDMLPHhBLdCWpDPtZc3IudN0/DbNThl1FzoZIr0ff3tzhBqNBK80YVRYAThIoix9tVOQIUc/Dqzh/R0bchq9JIBZGKdQ9I6pjIAWkakOiRrQ/KFKCiSFk6NcLjLmBrzFn0qdsSDTwDWGBdc+8QTO0wjBV4Kj7I3XAxNRrv7P0FkZmJTAqaSEwxQRAVZU8IzoUitcUiDYYkTSYS8nPQ2jsYr3cYgQ51m901JXqipNoR5L4gkmLrOWdlZWHxokU4fOgwxo4fh/FPPXU7W6G82FK6KKU2nk6LRlxOCk4nXkfn4BZo4OKDoWGdK1VIKU+vYcWKovPScCouAgarBc386qOZRyAeD+1w13qUZdxUKnzB8b+Qoc3CjE4jbUq4iq9/MzMRHx1cAb1Rj1ndx6G1X2iJZamztLnMsrH5ykEMDO2IRs5emNJpBKQSGScIZVlQfo5NEeAEwaZw8s5siQCZZFv9PBU+EjkaugdCxbQOyIpQTBTkLL2xKsossxJLhWBm/7jcNNzMSYHaqGPaCJTVQIF17fwaYFbXMajvGXjXtG9kJmDFuR1YdeUQsw40c/aDk8qpyD8v5BkQQSCrAekyxKnTWRrlwkFT0T2gCQJcfWwJY5n6SkpKwg/ffY+wsDCMHD0KSqVt0iVpQx/420y2KUakRkNKFTFlCrzUrDeeaNqzTGMr6aSEnFREZMYzi87mq4eRX1iAAIUTZncbi0Y+ZQ/Y1Bp1WHJ2O8JvnsH7PSeibWCTSo3rzsbfHVyFbbcuoVdAY4xp0RfBbn4l9r3q7HYsjdjPqnGOatQVNK76Dq6Y2G4wJwg2WxHeUXkQ4AShPGjxc6scAVIyPH0rAuGRp1i+P2UQ/HL9KF5u3h+uCkdWR8FN4cRIgpj59f8Jivu3G+EuJUVWFLl098O9+qAMBbImCOmOWuTo1UilUtLpMegZ0Bjz+j/PijvdeZDPPMugwcrT2zDvxAbYF9VouHMElPFAGQl15I5o5OKNVRM+rVItgPstHsUP5OfnQyaTsZetDrKqPPnbTIxs1hueTu4I86mHcaveZS4TEkvq5BeKT3tPRl13/wpfkuI3snUaVsBq6bH1+D3yOKuyOSG0E6Z1H1+m+ALSnvjp9FasvbAbi4fOREv/hhUeDzUkLYzha+fhQOwFnHvxRyZJLZfcG1dyNb28/TusjTiAPJMOLX1CMLPTSJyMv8IJQqVWgTeuLAKcIFQWQd7eJghQuts3B//A3OMbILOzh49MBZVYgli9GpbCQrzX4UkEunoz5cSqsBiUNgkSJRJ0EfJZYGKOUYuM/Dzsi7+MbU99jBalPLHSJkAugsj0OIzePB/vd3gS889uRX1nTxbr0NTVF7+Mm1dhqeTSxn+vz0k+mWIoioWPKtJHaW2KCcLo5n3QwKsuezof8/tbWPv0/3A6ORJdfp3OcvkdYIev+j7H5JglpCApllZKpyAyLQ6vbVuI4xm30MLFB18//hoa+gQLstclZC3QGr13YDnWnN2JnZPno14FSAtlKFxIuo7Ze3+BCnZYP/Ez5ha610HY3My4hXfDl+GvqFMs7oUOThBKu6v45w8KAU4QHhTS/DolIkDk4OW/vsC2WxfR278xPJROrKaCEJQo1FdQsRgEKsqkYCqGJQUjVhXMJGREqop5ei2ymcKiBrn6fJxOiQQsZpx47ZcyX9p3/lgseuxlTNv100MjCGlpaXh/7rto1aY1XnzppTKPvbwnlkYQFhz7Ez8/8Qb2R53CM9u/Q6h7HbjaifBa1zHwd/JAMJPUrniGgVqvxa+nNmNL7Hlk6TXo6xeK4a0eY1oLdV19WYDrv49Zu3/Gnxd2468Jn6KNX2iZp0xWprWX9uGHkxsxrfMojG/ep8RYEZPFxFQl5+37FWNb9Ed43EXsjbvACUKZ0eYnPggEOEF4ECjza9wXgQ1XDmLuvmVo4x3CyjdTGWUVe8lZ6iKlN1JKo4OEUhuFQkwP+qAnQw0RBIMWOQYd8oxaJsVMJaE33jyFuNeXs6yGshwPmyAkJiRg/pdfIjo6Bq9PfwN9+vYty7ArdE5ZCMLSwdOhkikRuHACzjz/PVoufhkD67VFXGYC2viHsRiPFh4BaBvQpFJprHFZifjx1BYk69XQ5OehfWATxd159gAAIABJREFUFvBJ8QH1PYPumt/74cuw4txOfD34dQxt2KnUuR+PvYgdMedwLvkGXm43BIPCOpfY5kLSDeyOOY+1EeGMgPw8bBZG/vkx/rp2hBOEUpHmJzxIBDhBeJBo82v9BwHaeJ/e9AWrY9/A1R8qqRRKpmkgh0pMBEEuEASJTKjUKJFXapOo6BJQvj8VxcktIgbFdRryDDrsiDmDuZ1H4sUuo8vU/cMkCKkpKfho3jzQ+0uvvIJevXtDzCwyVXOUlyBceuknDFnzPsv7n7bjRxy4eRp1Xbyh0eejZVATBDt5YVSTbgh09a3wgCn47+ity4jKTcGZ+CtMZyDMOxhhbv4Y2bgbPBxcWd/LTm/DojNbMb3bOCZlfK8YFrovvj25Gb+f/RuT2w7CoHptS5SKJhfGqohw/HRyE54I64qm7n4gZcePBr7CCUKFV5M3rEoEOEGoSnR536UiQEV73tjxI5zlDvBRuTCBIaWYiIBgQRDepcxyQMThYRKE/CKCoDbqQbnquWRRMObjSmoMkg0aRE//o9T50gkPkyBcunQJ897/ANOmv4GOHTpAasOAxHtNvqIE4dAz8zFt54+4nnANfUNaQSyWIcgjgOkD3MrPZgGOrzTviydb9isT5iWdRNoSV7MSQUWQfj+zHZkWI+qqXPBml9FoXicMW68cwrcnNuK59kMxummPu6xXSblpTNHweNxF/F+fZ/BYvbYlKnmS6NbiM9uw/doRnMtMQNacv1j2xdKTGzlBqNQK8sZViQAnCFWJLu+7VAQWHF+PpSe3oLlXMCu4JCfrARECshgwoiBl7gaq0qgQ0buMKeiVpFlf6gUreAJVW8wvLv9s1LOsBrIiqI35SNflYVvcBejf2Vqm3h8mQWAlpXU6VlehNCnlMk2mlJNsQRAG1G+LJt71mCTxhot7oZQpkafTYPbBFbAXiZgGwrePvYRGPiEVHjJZAmhNdWYTVpzajO8u7gaFDI6s2wpd67bAglObMKvrWAxr3I1ZsC4lR2HS+k/RN7QDXu84HP7OXiXekySSNGLF27ilycaCAS/hk2N/4vxLi5CYk8YJQoVXjDd8EAhwgvAgUObXKBEBKviz8dJ+NHDzE4hAEUGgyHYiCUxCWSxlkeDFJIEi3EUiEh4WpIeLTb9VleZIogUUSKk160FWBCospCErglEHjUkHtUmPP6NOVluCQMWWiBCUVEK4Km9PWxKEnqHtsSViPzwc3NDctz5Cvn+W1beY2Kgbfr16EBTK+EGPiRjWrBfkIgkc5cpKqTcm5aThlU1f4URWPJN61lmM2PD4LDi7uGDsX//DjPbDMKfnhBLhIx2P6MxkdF02AxOb9EA7v1D4Orlj9v7fceaF7zlBqMobj/dtEwQ4QbAJjLyTiiJABGHbxUMIcfOBXCqFXCxhpIAIwu2XiP4sZvLCVCGR0tToM/r7vZUNKjqau9tR5gIJGpEyIBEEvcUAnYmIgoEJJhFRIH+22mzA+mpKEBISEvDWm7Px/rwPERpa9oh82yAoVJ8kHYSS0hwpi+HOIMXiGIQ7XQzFFoR7EQTSxoh7/Xd8dWw9riTfgNZqwcbIE+jv0wDPdhqBAGcvNHDzZ7LMFbU65Rt1WH58Cz7fvhL2+6Lg8mx3LOj/HHo1aF8iTCSW9cPRdVh0aR8W9XkWz3Ueid/P/M0Jgq1uLN7PA0GAE4QHAjO/SEkI/HhyE7ad3AcPD09IiwgCWQgUYikjA/RngRRQ/rrwongEUlAkV0NVHrT5k4AO1UsgRUWjxcLKMOvNRuRbiCQIL7Ii/HXzdLksCL8+Pg0brh9hWRHX02KrRAchNiYWH8+bx1wKc997F02aNq1KuO7Z94MkCF4qFzzdoi8UnwzGjFYDcDErEZnqDHQKao66ngFo4VYH3eu3KbdVgXDcumUz/lq/AVmuVkyb/Qae73bvgFTSyzgWfwULj/0JNwdXrLpyEGcnf41m/qGcIDzwu6/6XZDIZlZ+HkvV9nb0qDBpfVAz4wThQSHNr3NPBC4n38TsnT8hWOIBnbwAciIBxZYCRg7ErECR1F7MyAJJLbsoHZkmgvBEeGeBJtsVa6LB6k1GpGizWBlmZkkosIBqIuitJhjMJujMBkYgbuWm4VBqVLkIwuohsxgeGyOPIzzqlM0JQkpKCubMepO5FWbMmommzZrVShfDnRaEOwnCkYn/Q0JuKgsKVKpcWBrlqejzqOsfigAHN4xv2uM/qY33ukFjoqPx/rvvQq834PEnBmGN4QxGte6D5zuN/M/pRCg/DV+OzTFn0T+4JT7oNQn+CydgYEhrNPYMgkWvRc8GbbmL4RH7LaRMrU1XDmD3rQjoSKpdp2YPOp4ObnCRKTGqYWe0C3rw5L0sy8AJQllQ4udUGQIkSfvylgU4H30FDeqEQFFkLSBSQBYCwXogYm4HF4UjXOUOcJarbF6s6F4TJGKQQlUU83OZ7DOlqdE7/TtVXjRYye1gxq64C5jdcQSmdxtbJpwoSPEfgnAC4VEnbUoQaJy7duxkZZs//GgeGoSGPhRyQGA8LAsCEYTkvHQci7uADkHN0a1eG+yNPIl90WdZRsTxlEgW7DilSU8822FoietGWR+/L1uGV6ZORUBAAJ78/U0Mbtz1PwQhT6dG/1Vz4SqRo4FXENr4NsAzLfvD4bOhjEQqxBI4iGX4ftBr+PTIWh6DUKZvSs0/iYJfu/46A1naHHgpnFi2FhVtI6E3ipkispBj0mFWl9F4qnmfElU3HxYSnCA8LOT5dW8jQJttp19eR1ZuGroEtYJcJGJlkiUiEcRU3ljuwOovENt2lKuYmBLFH1T1QUFmVM0xWZON9PxcKr8I+sJTASaqGWG0WnA1PQ4XshOR/87WMgs4VTVBIFwoW4FeVFehor53W+BbXQjCY4264mrKTRyKOYvxbQZhzp6l+P3y/tvSy41cfbF40DS0qBN217SpDgfhSO4vOob88sZ/CMIfp7ZixsHf8bhfGBaNnotFZ7bBTeF4F0Eo7nTliDn44uifnCDY4uaq5n3Qb0WLn16GWpONbkHNhWBrkZj9ponthegps7UAqdosVvl04cCpeCKsEyvqVl0OThCqy0rwcaD5D88hx6hDsIMb/Bw94SxTsAJNrjIHOMmVcCSpZakcCrEcMgpQtMEX6d+ZD8XLQJYCvcnAtA4y8/OQpMlCan4OIwZ2dvYscDE2LxWZRh0OPPMV6t2nSt+/l7aqCIJWq4VCoXgg6YtlvV2rG0E4HHMWk9oPxew9S/HLxT1sGr2966FDYBN8c/JvKK9kYEyDLnhl6jS4OzrDXeV8l7ZBMUGY0nEEq8D51u4lWHZpL9YMnokbGTF4u9/zWHB8w10EYfeYD7D+yiGsuH4E3w98Ff87uo4ThLLeQDX0PEqJHrnuY0SlRqNbUAtmQSoOuiaSQA8/lIdFqbTmAitisxKx49Yl7H/mK3g7uOJKWize2/sLzmYm3EUY6PfKvhDoE9AYs7qPh7+LFzwVzlVWw4UThBp6A9bWYW+9egRPbvgUrTyC0MEvFO5KRzhKVKzUc7EegsxewkxxdwYpklmdGLu9nf09xWr+SwQKQb5BcheIiqwVxWmT9O9mi5mltVGmAukdkAXhUOwFXM5JRhOfYCYBHah0wYwuo9CkHKWFad3uJgi2iUGIjY3FksU/46VXXkZg4N3lpx/mvVITCIJ57t/YuO9vLF62BPq4LEgauOFaPRHa+gRhTNsnEODiiTD3AHg7umPor9MxoGEn1PMMwo9ntkFv0uFadgpWDJ2J47Hn70kQTkz6Ck39GpQ5SDHE1QfDw7rAaDLwao4P8+atxLWXntqM+cf/QguvYLjJHYrUYYU0bnq4od8w0iEhQ0JBQSFzWR6Iu4gLqVEIdfNHlCYLfipnNHT1Z+ne9CxE1V/pwYSqykar05Bj0rOA6ZdaPoahTXuitW99mzw03TltThAqcRPwprZH4JPw5fj53A509W+EOs6erGyvSkIVHIW0RyGTQcICF0mwhoxxVAWPNnWKJCTiQOfQpl+ShYHIAp1PXy5yIxCpYNoKdvYszoD6o4BE4XMTIwlUyfFCShTOp8bgyPPfwl3lUqYywvdCyNYWBAqk++C99yCRSjHv44/h71/x0sm2XtGaQBC+9R+KHxb/CKlKhb5jh6BOA39su3EM41s/jrlHVqNfncZMuTHAow5Wn92OAFcfXE+/hUyTDp8/9iJWRoRjXtdxNiMIxWswtc0gThBsfUM+gP4ytTmYuftn3MpJRairD6shQ5ZPpgzLxN8Ea4LgbrBn8QhkRSAp929ObYSD3AHtfeqzmjT0ECSmUvEUzwPhd46sm0LAtIVVlL2UncCK2n3Sdwp61m1h0+wuThAewA3DL1E2BEhvv8G3E9HRLwyBTp5F1RsFeWXSR6CARSEuQQSRHREAIQiOAh3pnb5s0jtIBJEEJqd0hyuCNn/yKxNjL85CoC8o6SwIRaCIIPxjXdAVnUcR6qnaHPxy9QAK3ttZtgmVcJYtCUJaahremPYanJyc8fbcdxAUFGTzp4jKTLYmEITPAx6Hj8gFkUot1MoChCidseXaEWx89mv0X/E2Vg6bhTf3LoWTVIlD0ecQp89DkKM7KG4hh1xNualYM3QWJwiVuVFqUdsdkSfx5q6f0MDFF/6OHnCUUcE5IglUjVbGKtNSXRl6KKFYK/ohowcTsg5cTotGliEfTjIlIwhSsjQQiWAW0kJYCq0wWa0wUwyUxYR8ixFUDyYyKwEmAJ/2ew496ja32W8AJwi16Mas6VN5cvkcXM1OQrfAZkIlR1akSQqZvRRSifBlEouIHNizSGD2pWIbvpXFBcjIVSCmzAfhXCIIxUSCsKFURSt9uQosRQRBsBDQv1OmBDF6skgIX0T6wlK2gpkJJOWbDMgz6vBTxF5ceu57NPWrX2G4iSDUUbrgyfrtkKLNxraYcxjXpAfe6zul3FHMo558EjKpFF/Mnw9fX1+b/TBUeHL/algTCIJmzl8wm81YcGI98kz6uwjCwJXv4OizX+ONXT+hf3ArhLj4oPFPL6JLQGOsHD4HWQYtpmxZgAW9J9uMIBA5frxeaxbMVt/BFRPbDYZUIkPf39/C8SkLMWP3YlYDInH6SvYkOmLtPFZMir4Pr7QbjEFLpuHv57/F6YQrGLtmHv6v72RMaTWArYz/gvFY3P8F9j0a0Kgb2vz8Kk489w1iclLxyrZvsGLYm/Bz9rLV8j+S/ayK2I/PDq5EW+9gOMso60oJR4kSDjIFs4jSu1KiEB5I7Oh/QlBisWUzKjOR/RaR1YHeycJZ7EI1kfWg+HfJbGSCbSTclqvX4lpmPDJMOmx56mPUq0QxM+5ieCRv2+o/adnHgzC8Xjs4y5RMKIl8b+SvIw0EgUnTpm/PgnYEVwClHVr+cS0wrQQx+/ET25GbwY6l993+AhZZG0wkemS1MFVEnUnHvpiSoriGf/dtZF9GE/LNAklYdfUQfhr4Mp5qM6jCgJKJ8M3NX+O7y/sQqHDG3C6jMbbNQBbXUN6DNjarxQK5ovxty3utipxf3QjCtvPhMJ1IwZLre5Dd0h0FdoDxnW3o+N2zuKjJwKttBpVIEIaEdkTv4JawnzcAPYKaY/+kLxgk3ZfNtKmLoYVPCGZ2fBKnEq5yglCRm+4htyGC8NWRtWjrFQwnmYr9npGLSnhXwFGmvG+aNrkRDGYDFFLFvzIa7rBs0u+R2QCN0cDqwahNQm2YXbcu4sXmfTGn9ySboMAtCDaBkXdSWQTITaD4dAhGN+gEJbkTboslCTEFzK0AgRzQQamG5CoglwFZCyguoTg2QSKyZ64IsiqQe6E4aUhwRxTAbLXCYDWz+ANyM1BfjIRQ7IKdiBEGpnlQ+P/sXQV0VEcbvfFk4+5CXElCsAhuQYu7UygtWmiLlv6lFAotlBYtheJW3N0SJEAEEuLu7rZR/vPNZpdAsxESSqA7PTkJ3ffmzfve7Js7n9xLaL0KpZVl4FaSt6EC+0Pv4diQRRjh2DwVwbe1F42L3I1iLHbZ+tv7AggXR65ATG4KYjLjGQ9CV5N2uP/8Cb7+dB50dXSQbCOPaD3yHQFacooYaOrCSIx8k8LeO0BwIoDgOhKPE4JFAKH1T/F/jJAAwkYCCNqmjPFVRUYeSrI8gEA8CETy1lxdFApHUKVEYVkx8rglTIY+t7QIsbkpuJkUgsLl51vEciKA0CJmFHXSXAvkluRDe9N4TLPoikqJl6w+nUABrySIl5BI/1HjcRFUgRQWeQmGNVTM4rzKBgIM4vQjJlaTg8ALL7CadjqXtBUYQChjAkzUD3kd+ACDrlE7WZGOpWoHcucdjXiE5AUHoaus2dxbbvL5NKaI8HCEhYahR8+eUFJWanIf//YJ7wsg9DOwRQWq0VZNjwGEpPth+H3jJrTr5YalC7/GtsgbgjLH0598jaGOvXAw8GarAAguOuZY6DpcBBD+7cnaQtdjAOEBeRBMoULEbjIc9pvUainkwJGWbZFQIL23CmqAQXZpIXJKC5BTWoSTUT7IWXK6Re5GBBBaxIyiTpprAULE8us+wSqzQYiUyBFk+BJIIMU+AgIMHNRUIJCbnlwDVM1AYIJVLxD7IqtuIHDAy1PgJyjyY3jMg8BCDBWM4Y7cdJRBzIBGDa0zv9yRARGWMVzFQhLPM+KgLa+Eq1N/ae7tNvl8Pjj4/rv/QVVVFd+v+QEaGhpN7uffPuF9AYQv2vWHk7oBQtKjGUBIfxyFxMwUaLiZ/YMHgZ902hoAAoHabZ5zoCDLaTGAYG9og1GWnTDUrjusts0Q5SC8gy8BfT+3PjyBnMpyBGXEIjY7+Q2AQCyw8syDwCtbbCoZUt008qQySmRuWaX5yCqhn0KciCSAcKpF7lIEEFrEjKJOWsICY458i7SsXHTVtkGCWF5NtYKYgJqUgQO2aFezHT6fbZGVPpL3oKYSgZfEyAtHvJZ/gJoFn3kQeGWMxRVlCM+KZ0lDhsqaLOmLgREKR+Al8zoQQIjISUFcXgq8ZmyGhaZxS9xuk/qIi4vD4oVfQltbGyu/WwU9Pb0mnf++Dn5fAIHIibzDn6KwupQBhL5WbghNj0FdREmtCSCcHLUSn1i54Vjw3RYDCLGl+dCWVUQHQxv4pUaJAEILfxloc0NljRcCb8FEwwiVVeXQ4ajCQl1foExLFQwEEFRkFZlsfdMBQt2DJm2YzJI8ZBTnI7M4D9E5ybiSEIiCZeda5C5FAKFFzCjqpCUsQPXDvXbNg5yYPPpq2iJbqhxFYmWCOuG0wixE5qejsLIcbZV1YKSmz8SdpMTFIVlTL8wYyhhZEuUfvIrTU14BCzFUVaG8ugLllKRYUY5LcQGwkFVEtZgY4kry4ahpAl0FNZ634iURmFQgPCcJEflpODvmO3jWI/HbEjYQ1kdXdw8YGxvht61boabGG9+H0N4HQNBY7gkrrwLIG6vDZWxPBhD4VMsNAYRzL+7BUU0Pd2OfsTLH2lUM/0aSIh+sELdCS+UgEEDgN5rboiqGlv3mLLi6A+df3EVHPWtocBTBkZCBvIwcS1AkfgKqxqK8A6pK4Hs3W2oEZRXlSC/JRXpRHjKKcnElNgBdDayxfdjXLXIJEUBoETOKOmkpCxRyi/HD7X3Y7H+ZeQmYY62mFEhfTglfdxyCvlau6HfsO6hUA1Y6ZjWhAeJHEGfJP6y0ETzPA/1HngdaqChkUFWTeMitqsS1+GdwVNTE9dnb2fAP+F5m9e45FVzoSsggtaqMIf3u+tb4bcAc2GibttRtNrmfvLw8qKioNPm8933CvwkQNOQUEX3iHo4dPQYdfV0s3LwKvqkhjQYIZKtdj07hW68jjEI7d8mpjwIgTHbpj8DEEFxKDIE6R0koQPj8wmYcGPo1DFS03/e0+aCuP+rEGpRxS6Ajr8J0YhjvgTSVNlLFAv0tBwUZDtu0vMnoWvvfjf/sVbiB5OLTC3OQWpyLoLRo3EkKxZ3pm2CracTLwaq1SXobo4oAwttYTXTOO7cAue2eJ4UxyV4nA2u0UTd47ZpEEuK6ZyEKC3LQVtcCatIcVrLGZ1dk5Y38OF8NyQgtVuQ5ID4D4lswVVTD6UnrWEyQ36iawivKjwmoWKgbop2RbbO/ZG9jLOJroPE3N9v5ba7dkuf8WwBh0/0T+HnVD7CpUkOEWhHObN6H+Jxk+CU1DSDw733Evq+wd9zqjwIgNJYHwX7bTHi2ccZ81+HQVVSDqaruW5XetuT8+RD6mnJ6PRJy02CuosP4W1gpIwEEafIiEO8Br3KBER61YKN3ZG5NYmJgZhyuxj4DlXBT3hSFHkaYtsP8ruNhrKIFJVmFt7qyCCC8ldlEJ7UGC9Bi/9nZn5GQmQaOmDTEZcShICtf48Z7Vd7IKhheVrNknvTSfLbg923jhHluIxm/fmtrBA4C/P2RmJCIXr17QUlZubUNsdHj+bcAwi8PT+LWucvY8ukyOPy9CN+5jkRcbipUpWWa5EH4LwMEm22fCp6rsoQUvnQdwfJtLJS10VbPnLGUito/LXDhxT3MubYD3QzsoFQDDnjVCwpQkeMwBkWSq6+tHdPSdqTQKXkT0opyWLJickEGnmfEo7S6EqOt3fG563BGD9/UJgIITbWY6PhWZQGqBb4d7YerUX5MTKlCDILyRmkxcZ5aGnEmvHwJKqUkF2Afy074zXN2q3zhETjwffoUP6/fAFMzUyxdtgxq6q0PxDR2ErxLgOC8bAzEzXUQt+AACCBoyatgsmNvyP04GGYcZfS17AiZ6qqPEiDs972ECc6ebK4/S4tpESZF993zmSRxEkmb1zSqIHLUMIS7iSOsVLQxwq47tJQ+3PnY2Hlb33GP4wJxJtr3tUN2+19hiaDjbLowIiSSqKccBI60DE8XBvReensPgjDVWd4geCGH8spy5HKLkFNSyMBCDrcQcfmZCMtOwrfdJmCYfbdGS9Lzb04EEFpixoj6eO8WyC0pQFBGHKMdLSgtRlBqBB4lhTL+gtjCLKSV5DPJ1d561mija4bN/Wa/9zHXNQDyHKxYthzmFuZYvmIFdHR1W+U4GzuodwEQaCf04Pg1HDh5FMqu5vDdeeEfAGFn38+gJiuPh3HPPkqAIF5RgW7mLqxc98KLu+hs2q7ZVMvTTm/AMvdRgIQUzgbewt5Q79ces6q0HBy0zaAsJ4+JVm4Y7tinxd3mjZ1X7+u4r67uxI1oP8iKSUBbUZWpM5JODHkIpCUl0UnHklEpk9fgXXoM6rp/qvAizZg84kTgFjOQQICBKJgLKstwauz30FdqWmm0CCC8r5kmuu47swCFE7gV5fjT/woiMxNwPykUFKOj3ZGnoR0MtIxbJUBITEjAyGHDYWdvh81btkBJqfUTITX0EFsaIBy6eQr7tu9GVmgictw1oWBrguhvDv8DINyf9BNS8jM+WoBgpqSJWR2GsFLdZZe2wN7YvtkAobYWQwEtLmUliMyIx8obf+JJVsJrj1pFhsPi2u465ljTewbaqLceBdGG5uTbfv7T7f3Y9PgsuhjZQ0OWKhTkoUAy9JKyjPxIQVoG8jWiTKxcuoVzDhoaNyV103wg5VnGrsgtRH5ZMfMoXE8IxO2pv8BcrWnl0SKA0JDVRZ9/sBb4w+8SQtNicS8xGM8zYls9QCBD/7ppE75ctOiDtfmbA29JgKBWJI1Pp0+HgpIifvrtFwy69QtU5RTrDDE0FiCQC73828v/sHdrT1J81wDhTYNkFuVi3OmfcDvuOW6O/h+mX/gV2ZVlKKsqZ7wk1DZ1m4gZriMYsRkpFfJp0T+GyVzALca0c7+gtKwUehwVJj8vLynHgAFHkoCBLORl+ABBlhG3vcqC+vcsQBuj/LJC5HJLQCAvj3kSiuGXGoHj47+HsYpOkwYjAghNMpfo4A/JAh8CQGDaCqyUs6nMah/Gk2hJgNBB1w6Hrp+EvbUtHM1sYbp1erMAwoXIxxht1h6/D/vmPwMQSEl0c48pUJZTeE3NMTIrGQuv7WAKlZoKqgJ7UFVPfF461j84jkdJYYjKTUVJDc9/cl46Nj06BZ/USGQU5iA6P52d11HHHF+5jYSxqg7MVXWhyvlwk2z5htjhcwa/PzrJQixqNWyIxGvAkZRl4IAqoRhoYCq0rwOE+vIH6itz5OcW0Bga2weFVAvKyINQyoABUTHT74ySfGwaNA+6TUzKFgGED+M9KxrlW1igtQMELpcLP19fyMnJoa2jIyQlJd/iLlv3Kc0BCIsvbMUjr3sY3m8AHPQs0N2yI84H3YGGghra6po3GyAYK2lgsccYyEnJ/mcAwuwLm1FVWgiOvDLcDO2w4u4BfOU2CtyyEkhKyWBOhyGv6MnxEof8ruBW3HNoyinhi05D0ffISkTO2/sPe92P8cfBEG8Qj8n9+ECW6MgRl8DUtn3gZGAFU0UNdDK2Z7H5D60RPfta76O4HP4IVqp6TEyOgAFHhuc9IEBA4UtZaWne/5eifIT340Gh8m+m7sgtYeXcfIBAMubrPGdDuxb4a8xzEAGExlhJdMwHaYHWDBAqKytx8cIF/LV7D0aOGoVxE8ZDSkrqg7RzfYN+W4Cws+MMrPz1R7x47I8Z6xbBqY1NiwOEgVauGGrtVufwP9YQA6mXXgi5j4yyYqhIyqC4qoJV+ejIKWGYXVdBlnt+SSFWeR2CX+wzfN1jCnqbOrPF3WLLtDoBAt+I+aWFuBsbgJj8TNyOfIJrCUFMMM1T3wYaarqsZHKUfXeWs/CheM2yi/Ow/OYevMiIh5WqLkt2JiAgJy3DAAJ5DyhJUU5Kive3hAxkpKSbXDHQ3C8/Y36tKENheQkKKcRQo/ZIeQj094/9PhMBhOYaWXT+x2OB1gwQzp09i99/3QxXdzcsXLTogxBeepuZ0RiA8Fu/2Vj/8CS2+15E2qKjcFg2CnYh1YguSIGhmy36D+wPB11zEUA4sBSPZmzGout/4G1zEBrzDC9uJXwIAAAgAElEQVSHeGOL32UYy6tgtutwOOlaCE5rCCDwD6RE4e3ex7Dk/lHmobk5YS1Si/NwK/Q+/DITIC4ljRGmzpjpOvJfz/ZvjA1qHxOdlYiVV3Yiu7wEBspa4EhJQ1ZCmnkK5MhzQJUMUtLsb1KWpQRFGQlppg5LKrGNDQ809rg3x8/4Zl8CRJxEAJBKv6maq6iMi8JyCjOUoLCcix/7zYKWyIPQ1McvOv5jtUBrBQh/Hz+OtT+sQfcePbBuw3oWYvhYW0MAYfqpdVCXVYSRojrOxQbAa8D3GDZyGIYN/AQF7npIyE1AP4v2sNM2EwGEdwwQKB/md58zWH3vEI6MWIYuxg4sCY/fFl38HTueXUPpykv1Tlfq53939mPLk3O4OHY1hp/6EWmLj7EqC8qyL6ksQ1h6DBad/w3xFaVw1jDEut4zGGPq+0jsa+i7F5OdhC8vb2OlgxYqupCVkmIAgAEFAggSvN8yElLsMypvJPE4EpEj+xEPwrtqlVUVLEmUxxJbgdLKcuZFIBG64nIuiitKUUgAoYIAgsiD8K6eg6jfD9ACfIDgnx6NF1kJjH60tZQ5zpszF1u2bf0Ardq0ITcEELruW4wfuk3C3I6fwGLrDATP2oGpPy3G6R92Yf7V7QhLDIWnuQggSEvJoPc7BAiJuWnY/OAEvBOC8PvAeehs7MAeNMXf43NTsMbrCIKTI3B28k/QFVJLTwAgPjcVmx6cwNPEYOwe9g3sdM2hs3EsAwh1NeIv2fLgb+x7cQd55Vx87tADC7pNZIsrEQ01pxKCxNlIh4UIiprTD+3Iv797EN5xQbAigCBJEvM1ngIpHjCQEZeGtBRPbp5k44kbgaSdCSC8S9BDnhoSaSIOhGqSpq+qArcGKPDUarkoYkCBK8pBaNqrS3T0x24BPkAYatmZ3eqgE6tbDUD42G3/ytX8EiP2Lsbotr1goWWC9kZ2GHNgKY5P/gm+KRFYfm4HVrqMRKpkMb64+Qei5+/HkGPfwWvqRhFASAiGuYIqJnUYjHcFEMgt/SAxGIvObUJ3q85Y6j4aWjWZ7sTpf+LFXWz3OY1+Fp0wu8NgaAhxUVM/N2L88L9rf6KPtSsWdh4GzRpV1PoAQu3vQUBiKJbeO4jA1EiYqOjgryFfNlkgjRZzYpYkAqmswlyWpKepqMY4GyjPwka7zVt99bY8PoP9vldhrqYLeSkeORLzEtBv8hgwr4EkS04kBUc1WUUoy8ozldl33dKLcpFVnM9AwsuX1Uxvhu6fEhZJsbaUyOPKS/HLwLnQUWyaEqwoSfFdPz1R/+/NArUBAsXpBp/44b0AhIKCAnh7ecPMzBTWNjbvzR7v48LCPAhHJ67F8ctnsWjj/6AoIwOXcQNwKfU5EhYeahZAGGTRAXq/TkTY7J0ISomolyjpv5ikWHsOhGfE4UqUH04F38UI2y5Y6D5a8HFYeiwuRD3F6Rd3MbvzMExu21toUmF4eiwuRfniVPA9jHfsgy86vqqEiM5MgPuBb4R6EGqPhzwQu/0u44DfJea5mObcFzM7D2/0tPVNCsOFsIc4FHSb8TBQEiR/915RXQkdaQ4mdBiEMbZdoCyn2Oh+6cDg1Ch8fmkLSspKYa1hxJOZl5BgwEBKnEIOFE6QgZI0h5XekveAyiDJe9EYmuSGBlNfHzklBUgpyGKsiXyQUFFdzVhkuVXl4FaWIzwnBUfGfAsjZa2GLvXa5yKA0CRziQ7+kCzQGjwIFRUV2L5tG65cuox58+dj4OBBH5IJmz3WOgHC/iWwCJOAzxMfZIuXoN/EEZgzZDLc9y9G4OydTQIIxCIxzr47AtNjWZJYOzV9mOuaYZpTX1wPffDRAwTa5W+4vR8P06LwiW0XfNFhMAb+OR+XZv4On/ggzD69Ad/1nckqFPiNFpub0f742fsoOhnaYbhVZzgbvAKuR55dx95n19GjjTM8TZ3RztBW6Dw4G/oA23zOoFsbJww0bw9nA2vBsQf9LuPIi3vo3sYRS7qOr3cuxWenYNezq7gW7I2ZbsMRkRwOa23TRgMEn6RQLLqyncXbTRU1oaWgwtz9EmI8VVfaVScUZCK5MBsDbVyx1GNskxUO78Q9x+zzm1D1EminYcwAAN9zoCTDgYqcAlRJuVFWDopSHFbl0Bz9hcZ8+UikicoaM4vzkFKYjbyyYqBGvbaCVB2rKxGfn4lnmbF4MmsbzERMio0xq+iY/4IFWgNA2LB+PS6cO49Ro0dj6vRpHwV9clPmTl0Aoe/skUi8FYipy+bjcVUSto1ZzF7kTn/ORcgXfzYJIFyduPa14chLSMFex5RldP8XAIKkuARis5Ox1vsI7iSGQEdBFaHpscyVrirNwTgbdwyy7cqIkaiR2/lwwHXs9r+M8W17YbKzJ5Rk5dlnxOO/8+kFHPG/hpW9p2KARSfI1pJCr23oknIuDjy7hj2+lzC74xCMa9tbkNBYXFbKCJSOBFzFb0MWwsPQrl7Z6GthD/Gj9zH0M2+PYTYe0FPWxLqbe2CuadQogBCdnYwxx79HeXUVHDVN2C6edBHIiyAlLsHmFjXaXdNu25/AlEN3LHEfw8DDxRf3sO7J2TqntbWCGqa1Hwg3EydGnUxAdOeDv/F35BPoc1TgqGUCTXkVqMjKQ1lGngk1UQiCuBHo+hRieJMCjSet1PhG3yFa9N+kbiYSK/ISFJWT/kIx0gkkFGXjZkIQ1Ek9UlISsYXZkBETwxKPcZjs0p8lUzaliTwITbGW6NgPygLvO8Tw1aJFzHMwY+ZMzF+44KMkQmpoQtyNeILf7h97LQdh9F9fY++Y/+FFbiI2+5yCp6E91vqcQlR+JrK/OdEkgJC/9EydQ6CF8L8AEChjnjwC5ZWVbLdYuxH/AMXKa2fRd902C2JyCtg+YA6stUwEn6UWZGHy8dVQklfGml7TYKXVRmhiH2XLe+5eCBk5RWzsMxNW2m0Eok2x2UmYfW4j253/2OdTWGgYCQ1NUBjhVLAXSAPiV8/ZGNu2F6sAILGhxgIEStL77vouHA59gK761kytlTgJyN1PyYNUakieBB7nAmX6VyI2JwWXop5ggEVH+KRHIyw7Gc5qejBW1ROUXNKiTJwO8XlpiCrOZZwG0+174LueUxnY2ed3CXOv74KbriXcDWygKCUHRVkeOKBSR6pyYNevoVwWFxcDJU3SPdNY6D7pd31MivQZYQOqSqAERMpv4D9Lum/yHtFnRRWlKCkvQ3ZpISgf4VCYNzTExJEPYE2XsRjt7Mm8HW9TTSECCA294USff7AWeN8ehKtXriApKQmfzpz5wdrwbQZOsWTSpF9w5hc8yk6ARZk0PE07omtHN7Q3shckKT5NiYD7noUsZnto2DeYfn4Tgj7/QwQQABwOuo3HjUhSbIxiIO3243JS0fvwMthpGOHGlA2Cx0qfJRZkovPu+Rht3x3bB8wTqtBIxxLtsttfC9G7jROOj/5W4EKnz8Kzk9Bj/9eY5TIAP/acVi+/QVJBJhOZSuIWYW33yXBt48TGRAuzX3I4Vl3ZhskuAzGunWe9U5A0Eow3T0RvQ3tocJQYQCBCJz55EQEkyg+gxVFCTIx5EUoqy3Ez7jkux/jDTccClmr6bDEnbwOfvIm3AFej4mUFqwzILS3C0/QYJBfnwH/WdrjtWYB+hm1hoKwBRRk5cJhIkyxkqaJBkvITeP1JikkwG1E9BfVH1yewQaWRtMPnS0HXdZMEJgjoUuIlgQHqk0IalFfBxveyipU2kv4C8R5QeCW7pAD7Q70QPmc3SPW0uU0EEJprQdH5rdYC7xsgtFrDvMOBkZvaPyWCuZjz8vOx0nww5iycC6eunfD1kq/R3sThNYDw2dmfsbX/HLi1cYLR5olNzkEQeRDqz5KPy0vD3qcX4ZsWgzFWnTG54xDB0w/NiMORgOt4kBqJqbZdXvvszSlCbnzaNfumx2K0ZUdM6zRMcEhIWgyOB96GV0oYJtt2wbSOnwidYUTF7Jcaic/O/ILOpk74Y+A8QRiD1Dd9ksOx5PouTG7niRVdxjUYw9/mdQzrn55DX2NHKJKiIkkt02LNFmxiNyTyImlWcSBRo65Ii21YZhwis5OhKqfMFnja8dPn5GigXTstwFVsAa7kJftVVqCkogyhmXEIyk2GrJgkBpq1h5IsR+C1IPc9v6pBUly8BpSIM/6HSuqvuop5ZWiR53k3pBmIotBB7TJMuj6NsaKmXJEAAoXMiHSJzmOJj6zPKlAOQmllBeOXIM4DYk08HfEYg9s44fdhXzf7my4CCM02oaiD1moBAgjHn9/CCMvO0FVQw5oHxxhn+nC7bljkMabFh52bm4unT56gnYvLR8uMWJ/RyDX8i/cxxOSlgZNaAs1M4O/Dx2DY0wFDhgxGV2fyILwqcyQPwqaHJ7B78JeQl+GIAELofVSvuspM3FwPAi1Gvslh2OpzlsXmV/ecCktNIxb7pl3ng4QX2HjvCAzV9fG/7pOgLUTEhxamp8lhjCNBTloWq3tOh7GqNhsjLWC3Y59h491DsNW3wjeuI6GnIjxLPiwjDoee3UB8QSY89K3wmesIwXS6He2Hvf5XICsthxGWneBp49Go76fxhlGwUNWFhbohW+gVpTlQkOFAUYrAAukiyDGWQ9q18xMGKQeAxp6Un8kS/BSk5CAtJQ2pmoRG8mLQbr+yugJlVZVsh07kTkQ8VFReiqT8DOZNsNUwQlstY8aoSB4BFs5gVQ0SDGzwF33yBPAVL3klkRIMSNCx5GFgxxIhNYET8qKQ54ISDMk7wDwIpJpZwe6B5w3h5VRUV9M4q9hndByNkbwIkdlJuJ8ShvwVFxtlw/oOEgGEZptQ1EFrtQDtEHb5nIZ3YjDExCUhXlmOoXbdWKzTULVpsqcN3WNVVRVWLluOhIQELP92Jezs7Bo65aP6PDIjHivvHUB1WSmW9pyGoxt34syT6xC31oS9q1OdPAgigJCO3Y/P4If+X2DkiTU43YIAYfX1PxGYk4weRg4YatcF+jXlbYVlxdjkdQzhuSnoYmiH8c59WUleXY12qatv7EZIbiq6GtpipENPaNfU0ZM+wXafMwjOSkA347aY6jKAufWF9fM0ORwrbu6GvZYJPu8wBBYahsydTzX6p0Pu4w+fMxhi1xUz2vWHKkep0d8NyR/6Y7R5Z6jJKYAqCYhciRIFlRlQIC+CHNt510VWxJQPuUVs3OS+5y/oFPsnDwKBo9rgoIA0DspKGagIz0pCcG4y+hs7MnBF4EBGgkIKvAVcjCVG8vohgECgg7fAU14CD0RQmSTPeyDOwh+80MFLFoagc3jMiBWg8A2RH9Ex/JwKBhAYOVI1yl/yvBzk4SCqZeJEOBH9FFWrrjTajsIOFAGEZptQ1EFrtgAlGiUVZrNdlIy4BIxVtN+JotzkiRMRGxOLRV8tRv8BAyAr+0+FwNZsp+aMbcOtvdgb6o2vOgxFfxtXEFhYeOJ3dDG0xmd9xmLlpa2NAgg7Hp7EmdAH4EqIN5ooSRRieD3EUFhahCF/f4+0vAycHr8apqq6zMVOjRa7TnvmQ09eFZs9P4eJqo7gszefP7ms3fcuAqqrcHTkCpgoazMBImq0CHXaPR+26kZY3WMy2qjqsh2xsPbTrb9wOS4QE2y7YpRTb6jJ8QAAeZwWnN+E4upqzGo3AF3NnJucZU8AYaK1B5Sl5RjQUZShagIOlKnUUEaBLf71MRny3P68Usg3GwEkWoRpgSY9A3Lf008etxiZJXl4mhoFdTkldNQ1hxQjTiKPgFgNOODlU9BiT7t8qqTgeQ/Ic8DLT+BVWIjVAAre9VnogDwORHjEQhs8z0BpeRnExMVqQhOU4MgLhbD+q3heBEazXFmO5PxMXEl8IQIIzXmpic4VWaClLDB2zBgE+Plh7/4DcHVz/WBU6pp7/2UV5Zh2fiPOhz5A0NRtkIQEfPJjMP70T/hryCKMc+jBXr7CmBTf9CDQy9E3IRjdDy5FRc3uq6eOeb1Uyx8zQNj16DRcdUyxpPcMAZPihbHfYeHVHZjs1A99zVxee4RXQ7wx7/qf6Gdog9+GffNa1vrlYC+MOb8J0yxd8evwrwWlf3XNgSvBXph1bQcGG9hhy8jlryUtXg32wtCzGzDbrhs2fsIrTxXWaHG1/G0KCivLETL7D6jJKwu+G5SrovbzKPQ0ccL5sf9jC2xTSv/41xQABBl5qMjIs+oJFeIkkJVn3gTqt7mNdumUB5DHLUJOaRFyywqRU1KIF1mJKKkqRycdc+b6Z54ACZ7uAqN5plBBVRWje6ZkSRqLDLEt1pArETjg5x/wKhp4AIEfYqAwCHkOKLRRWsllxZFEykRUz2LivDwEHqDg5UrwchYqcC02gAlh0bNrbhN5EJprQdH5/3kLzJg6DTNmzYSbW93SwR+bgeiFdC/GH789Oo3q/BJohZbA6/ptVOgowGBSF6z0GIveVp1ZdvyAPxfARsOgUR6EN+1UUFqITXcPsjp9YWJNHytAIFvcCvfBukcnkVJCBWu8piXNwTKPMehr7cp2xuQOzystwm7fi9jldxnbBy1ALzMX5i6nHWx2ST7W3PwLNxJe4O+Ry2Gva17ndKSFJpdbiM33T+B4iBf2ffIVXE14egzUDxHxfHt1Bx6kx+DY0G/goG8pdFrT4v8oPgg/3j8OQxkODk5YIziW+jnsdxm7gm5hhk1XLO45pclfD6pcyCjJYztt+x2zeB6EWgBBjTgJZBXYvCG3PrV/MhG+YiNojIoihRvySguQXVrEbErVAoHZCcgvK0EHbVNI1FQr8J4Jr1qB6SO8fFnjLSAaZl4VApVdUhIjjY2OZx4MBo/IY8HzOhDzIwtxUA5CBQGEclS9fFmT4EhghM7lHc/LmahEeVUV0kvyEJyThLgvDzfZrnWdIAIILWLG/1Ynebm5ePjwIdsNGBsbw8raWoCc/1uW+O/dbW5JPk6FPsCmmwfhpmCBzOvPEJAaCQkTFfSfMh7/6zqe7WZux/jjQOAtOKjpIy4rUQQQ9CxwwPcSdJXU8c2dA/CdtRVJucJzEBo7s+5EPcWFiCdIzs/AIreR6FQjskSLi1dMAE6G3kdOcR7We86Giaqu0G7vRD7F+cjHSM7LwIruk+Cox5N4plDDw7hAHH5xB8XcYmwd8iUjBhLWUguzseXRKVDOwYLOw+Bp5coWwsqqSoRkJmDDvUPIreBix4B5MFITPh5h/VN55CbvY7gY8QRlL3k8ACOsXFmiIWkgUJIiIy2SVWA//IS+xtpT2HG0q6fcg4ySfGQV5yGjOA/PMuJQQGqUmiYMkDEvAJNdrmBAgpZ8FVmFGlpmKn2s+WEAgfIPxHhMjzUX5XsQGECo4iUpUm4BhTXiirLZ3wpSMtCSU2T3SdfjAQQCFNXI5hayUtOV7mMwtePg5t4yO18EEFrEjP+tTp4FBGDBvHkwNTPDy+qXcGjrACUlZQwaMhi6uk3/0n9o1svJyYGfry969+nznwkn0DMixrszET4oKy+Dp4ETAi8/wJ7752E/wBUDOvXAl13G4EV6HNbcPcgSxKa07Q2PNk6NDjG8OQ/+6x6E+r4XFJ/e8vQ8Dj65gJmuwzDKxkMgskQJbivv7INfQjDGOfbGYMvOQkWWyBu07v5xXAq+h2ntB2OotaugooEWnuU39iA0IxbDbbtgsLUb1DjKQod1M9wHpyN8WOIf6Tq01+N5GWgXvOfJeRazN1HSwOedhwuSHZvy3aed++IrO3AvPhDOWm2gKacEbgWXkTERORK58Uk9UVFajv2mssOWojomW+RzixgwyCjKQ3xBBm7GBUJZUg42anooqa5gHpjCqgqWOyAnKcXyBrQ5SjBU0YF0TVIiAQPyINC4yIvAgEUNRCBPBnkJKC+CHzag/IPnGXGw0zJhzJJRWYnwSQiGoZIm1GQU2PnZpQXILC+GnIQUBpm3x3z30VBpotaEsOcgAghNmaGiY5kFCCBsWL8BCxYuAJfLRXFRMf4+fhykO6ClpYXeffugV+/eH22i3vQpUxkr4oZffoaKqupHPytoN7rT9xK2+pzCtz0mo7eJE5KKcvDZkfVwN7HHDLeBaKtngZPPb+FA0B3YahhirusIGCprsh1OY3MQRADhVZljfZOKRKh2+F1BUk4yZruOQH+LjgKgGpQcgfWPTyMtOwWr+s6Eh5G9UEbEFymR+N33IqLTYvBNr6noa9pO0E9gUjhWP/wb3OI8rOzzKTroWdW7G19weSvuxwdhqcc4uBvZMbpkapTgRzkpucV5WNNrOtrpmrOS1rdpoZnx6Lv/G3TWtYQWR5klGxMYUKAfVuJIiYkcBhYotv966EA4wXFjQww5JflIK8pDenEOnqfFIDQvFQYcFcQUZKKsuhIe2qbobtkJBqo60JZTYuGHhVe2Q0lCirFWUpI0eRFY7gHlK1C1Q81/ZA8eQOBVMBBAoLBCSE4y9OVVsHXwAlZ5lZyfhcsRPjj8/CYiclMZtDDnqKC/XVe4GzvASddcQJ39NjZ+8xwRQGgJK/7H+uADhB9+XAMzMzN29xkZGSjIz8ejR49w7MhRlHG5sLCyxNqffoLqR7SI9u/TFyUlJdj+x04WWiGg8DG3lPxMrL13EBFZicg+HwCvI5dxLvQeNjw+jTE2HvjcdSRz6fbdsxBZFVxs6z8HDjpmrBadmgggfAKfKb/AvoVCDJfCHmLxtT+YYiIpMPLLF8nWu3zO4Ncn57Cyy1j0MmsPHSUNoVPzROAt/O/uQczvPByDrVwFCzqd8Ou9w9jx7DrWdJ+EbqbOQjkS6Nj4nBR8fXMP4tJicHjCGlY1wXfrXw7xxgqvI2ivpo9v+81qspLgm4MPzoyH54Fl6GZgwyoVCAwwvgNp+lsOSgQSZOSFVma87feUvAcUXkgrzGVUxqR+GVPKk1cmHgMHVR382G82bDWNoCqnJKjooLwO4gRx2T4LynJKcNe1ZCWXPHbFmgRFlnrIyyVhVQkEEqpJgKkEQZnxsNM0xJreM2CrbSoAbwTYaRyUm0CwR15SGhryKkLLTN/2vuk8EUBojvX+o+fWBRDeNEVeXh7mzZ2Lxw8fQUVFBXPmz8PYceMgJSX1D9GRD8WMg/oPQER4OO56e0FPX/9DGfZbjZNeWKkF2Wi3dQbs5Yyg4JWIoIDnqPQ0xksrA9wc/wMstExA3PuDj38PibISBC468o9rEUAgdcFJ7frBUqvNa0RJT5LD8eujkwKiJJEHQbgHgRaF/X6X8e2d/djc9zOMce4rMBeJI/3y4G9se3wGFyauRad61BcpZr/H7zJ+uHsAu4csxiDbV4RElFz43Z0D2O9/BY9mbWVcBcIaLX7Xwh9hzqUt+LRdf3zpMUbAiMj0EW7swa9Pz+PB1E1w1OflMzS3pRZkYtqJtcgoL2WJgZR3wCdH4v0mkCDPwgt1lS029/p8wEshlJicZKTkZ7GQg396NCKLsjHe1AV7xn//j7AGhRzGH16Ju8nhcFQ3goaSGss9kBSn/T/Ph8D3HhD5UXROEvyykzDT2ROb+n0mEMFqifE3tQ8RQGiqxUTHC0IMtT0IwsxSWVmJmzduYO9ffyE3OwcGRkaYN38e5Dgclq+grCw8ptmaTJ2bk4NlS5Zg1f/+99GDA/IaeMc9x4pb+6ASnoPyx0kolXkJbh8z2Jma4ur0TezRHAu4jkU3dmGklRu+7/NpnQQ3BBA89iyAnaIGult1hq2OGZZe/A1rB87DlRdeqJSWxv+6TarzUX9sOQinA2+jtKoCPzz8G8Ff/PmPJMU7Mf7IXnL6NVuQ/UKzEjD7xBqoq+rhpx5TYK1jyo6hRcUnMRRrb+2FhpI6lnmMhaWWSZ22pAU9KCMWX1/4DSpKGviu63j2LPj93It5hk33jzGvw7Iu49FGXTgATqU6+yhfrLt/DN/3mIxxbXsK9AGep0Rib8A1hKbH4PdBC5iq5Ns2AkUJ+RkoKC8VdHEj2g/bH59DNwNb6CqoMi8CaTCoyirVCDQRURHF+N+maLJxI+ULOeWWFiKHWwT6TXkAp6KeoI++DfaMWsFYJ2s3OocSQdc/OI40bhGkuGWM04CYI1+KvQSRMMUVZiGvsox5BXq1ccaNSesaN6B3eJQIILxD436sXTfGg1DXvaempODIocNISU1FfFwcbO1s0a6dC4xNjGFnbw9p6aZJkX6s9n1f90U7P9rVr729D/IcZcyy6o5NP/yM5+IZsOjqgkkd+mKiS39B6dj6B3/jYsRjSFRVoJ2uJVyMbGGooAoXfevXyKhox3Uw4Boep8cIbo3isKMsOmGAbReht/uxAYTMohz8+fQStviex/q+n4Fi2nej/TCybS/ci30OJ3UDzPEYLbBHRmEOvBNeYIP3UbTVt8Ifg+YLdqfphdm4Ex+E5dd3MTnipe5jhIoj0XXvxgfh25t7MMDaHRt6z2AyxNQyCrNZ3fz6Owcxo+MnmNtxSL0iS1cjfLDnyUWoKqphhmNvdDJpy/qhxfzA8xvY//QCk5ee6tRHkDT5NvM5vTAHl8IfYk/AdVa6RyREjJq4pmzRs40z7DSIXpnDpJXrViqsnXfQvByEN++BPDGUlEgiTrncIgFHgk9qBJZ3GYcJTn2E3nZeSQFuRz7B7fggJJXk4VlSOAs9pJUWMiEpaiKA8DazRnROq7DA2wKE2oOnKgDfp75M7TAxMQGmpmZQUJDHqNGjYWhk1Crus7CwkHlLunTt2irG8y4HQYv4udD7OBXiDUtNY3zXfTJCUqOx9tYhSMtJY0m3iSwBqvbOjACCgZIG7NX0cT0+EIXcIgQnhUNbXQ9tFDQw1MYdFlrGbz3sjw0gkCEo6/50sDeSinNfswtJBnc0sBEszsHpsfj1wd+QkpRGf9N2GGLfTXD8/dhn2Ot/FTJSMuhv1g6D7V599qax/ZPDsfPJOdZPHxNHDHXoITjkVuQTHAq8zWLXn1h2Qj9r4TwetKgdC/HCX49OYxUwEmUAACAASURBVGz7gZjtMlDg+g5MjsDRUG88iQ/ErI5DmSpkc1z8FOr4+d4hHAvxhomSFtooazMpZUpGlJeSZaREBAyIWpnyD+pjcXzrydfAiZRESPwTRJ5EP1SKSJ6EsJxkKMgpYt8ni6HSCMro8Iw4xjRKSZY3UyORXJwnAgjv6qGJ+v13LNASAIE/0vy8PERERKCwoBAHDxxAYWEBtLS00bN3LwwYOBAczttlPLeEJSaNHw9NTS38vPEXSHzEyYjEEjfl5FqEBYeBE5KNP9dsxunEB7ibEoHJDj3Rx7wDjOrQruADhAkOPZm5icr3BUni0o413IdpAXBk5eGpb8OUAhVl5Zv0WD5GgNCQAWifez82AKtuH0B7XXPMdx8FAyVNtuASl8D58EdYf+8QxrTthYmOvaGloFZnl5QJT1wUq+/sQ482zpjd8RPoKmmwrHfa7R8Luotf7x/F7E7DMNK2C2M5FNaCUqOw3vsIlGUVMdzGHb0sOgoOPfr8Jn7zOc2YHXu1cYSVkBBHQ/dd+3NSoPTcvwRWavrQkVeBvKQMOAwc0G9ZBhJIqZFyEMiVz/cqNOUazT2WQgZE2FQbIBBgSC3ORXhWApZ1m8C4PxpqIoDQkIVEn39wFmhJgFD75kkNsbioiO3ad2zfgfz8PJiZm2PT5s1QV1f/V+3Uq3sPVJSX4+9TJ6Gto9OsHdG/OvAmXiwiPRb9jq6CWGQqcCsO1haWSHXXQhYK8PCLP6AjryrU5fwmQOBfmmLjRdwS5JWVILMwB0su/oYIbgFsVHTwffcp6GBs16j69P8iQJh9fDUe56bgf+5j0cuqE9s1UyPSnC/PbUJIXhq+dh2JXhYd6s3Wn3dqPXxzkrC08wj0seos2O2T/sE3l7YgrjAH37iPQjczl3pDCr7JERh6/DtMc+yDRW6jGPEPgRUCldsen8VB/6tY0+dT9LfqzHQGWqLNObkOtxJD4WZgzUoWCQxQSSNHkuSbSaFRGvIMKBDfgUytufR6GKF2+eKbpYz1fVb7HoQdRzkdReUlNV4E0mkoQj4BhrIiBGUmYJhDNyxxb1gxVgQQWmLGiPpoVRZ4VwDhzZskQqJvly2Ht7c35OTkMHX6dIyfMB4ysrKQkZF5J4s28TqMHDqMqTI+9fdj1/oYG7Gy/XhjN7YH3oT+jUSUxGZDt6MFitz04W5gjZ8HzRdkpQu7/199TmPD3UNY4joK0zsPYTs5WapBryNBrIhbDBJj2uJ/BbkVpZhi3gk/DJrH3MOyElJCYsjAgMMr0VHTCO10zNHDqhMuvrgHFY4ybHVM0WnPQqR9dbzO4ZVVluN66AM8jHuGTsZt0c/GAyGpUfCO8cOUjp/gmxu7MdDKFUOFuNVH7PsKe8etRv/DK/Bg+q9YeG0nhlh2Rs82ThBf7ckUDO9M2cCu3XXfYqz2GIdHsQFY1mcmNj06BTU5RUx16guFda/KHIXZkXb7tHB32bcY6cV5SFt8TLBo02e0GBttHAdHfUtcHb/mHwlw/H7pWFq0LLfOYNTDQZ/vFIAI/mfGG8ejh5kLDg9fUm92PCkDbrj1F/aF3sePXcZjQvuB7DK0MOaUFmLQX4ugqaqD3zw/rzeh8W2+Owprh6CPoQPUOYoMFJDXgCSV2d81AIF5EiRl2RxtKbbEpoyV7EDPhciT8sv4v3liTsHZSYxBkiixGwq1iABCU6wuOvaDsMC/BRBqG+PB/fv4Y8dO5ORkQ01NHTNmfsoqIChfoSW9C4cPHsLFCxew7+ABBkI+tkbu5ZicFJZNHZAegwO9F+B/i5dBp5MNdlc+w8x2/fFF+0Gw0jQSumjXtsntiCesnC2TWwjV6peY5TYCbVT1YKKiDWU5xTpfkFEZ8Vh1YzeiS/MhBzGMd+gBBz1LGCqqw0BF+zWTJ+SkYOblrVCCGNz0rZBckIWovDTkVVfh976zWPJeXe1DAQgEDM4He+NIyD04qxtg3cB5gtuhRMRr4Y+x89lVdNMxx7pB84VOx+zifFwOe4j9QbfhrKaLn4csEhxLNMzXIh5ji98lDGvTDqv6zRLaD5XkReWm4PPT61ElLYtzo1ZBXYFHrUwSz4HpsZh8Zj0GWXZmug8NLYBN/f6UlJdCZ+M4DDFtD3kpacaGyAMDxJQozYCCnKQ0y5ugvwkgtJTnoiljJerlQib/TN4D+k3ggKf4SADBXFUXP/WZCc0aeWxhfYsAQlOsLjr2g7DA+wAIfMOkp6fj3JkzSIhPYLkLJm1MWCWEkbERnNu1Y56G5jbaHbT0i6+5Y2qJ8ymxas+TC/BKCIKlmj5mdhjMCHKKiorgnx2LLy5vgaOWCUqK8tDDypUxsnUxsIFZPfXw/HHRwrL/6UU8zoxDQUE2zNT1YaJpBFtVXbi1cawTbBDL3rVwH9xOCEJCfjpkII4+1q5Mure7scNrWfC04EdlJrAdrL6KFlTrofylMX0IACE+NxVbH59FUFo0lnSdgC4mbZkXhqpJQjMT8Mu9wyiuqsQSj9FwMbCpcwqQPWJzU7Hp/nFWErikyzi4GhN7ojhj5HueFo0Ndw9CQloGyz3Gwq6mtLGuzgiQnA3xxp24QFgoa+EHz9mCw56lRmLX4/PIryzHKMuOGNqI+PrbzNmHMQHof/x7DDFrD44kHyDwvAdyEgQIpBlAoN8EGGQlpCEjyfNA/VvfWbI5eeCKK0pRVFaKwvJSBhSoVLGwrJQlKnIkJbGp/xxGj1xfEwGEt5klonNatQXeJ0CobZjg4GD4PnmKlJQUhIaEQE9fj5EyjRs/HsYmddeD12XY8vJyJrEq+5GGE+ieKRfge6/DuHD2JBzkjPHznOWwsbIWmMMrPgjHg+9hXc+poHr8xKJc+CeGIqskH200jdBRxwyf2HgIGBKFTVBigQtLj8PjlHDE5KXiSaQfLI1sYaCghpE2HkJfmCl56bgU7YeiCi4eRAdAQkoaBsqa6GfijJ4W7ZuciPZvAwRPfVuIofq1EIOHvjXa/jkXiQsOQP0NgaP9T84zhUUdjhKmOHvCoUZlkRafQ/6XcS3mGfQV1DDHdTiM3vCq1LY9KSNei3sOTVkFzOwwBNY1VSOkf3DI/wpuxwXBTFUH81xHQEtBOC14Un4mFl3bCRJvntthCDoa2bKdOdnxZrQfdjw+CytNY3zlMQa6iu8uH+h2uA+Gn16PkWYdIS4pwcJP5C1gXgNJAgM1wICUESUlISPOAwg0ViqDfFcggZ5L1csqxnZIQJvsUlLBBYViisrLUEzggIBCeSli89IhhWr81P8L2GjzOCtEHoRWvaSJBteSFmgtAIF/T7QDjo2JQUFBIY4dPYr4uFioqWugW/durGxSQUFB6O2Xl5VhyqTJcHRyxNLlzddPb0k7t1Rffwdcx87n1xG++yoUCqswzHMIli1bDmWVV5nrfICwbcBcwWVTC7IQnpOMqMxEHH9xF0ThoiglgzXdJsHZsO4dbe0xk7s4KC2GhR8uvfBm8riyMhxMte2GSe0H1Hl7lB0ek52MxKJs+CcE42y4D6SkZWEqr8oyw80a2JHxO/03AYJ/ahTOBVzD4UgfGKvqMZlrKXEJ9Na1wmDHnuht2k5wrxTiIU/NhdAHODpqJZy0TQUEU+Q5GHx4JcuMX9drOhx1zKEsV/fcpWPHnlqH5ykR+GPwl3B8o5/+B5cxb8uqmvJUPvV1XUY//fwmtgZcg7OGIea4j2J0ydTo/C9Or0daWTEm2PdAb4sOLSYCJGxuZxflwWrLDHxq1g1ZEiXMQ8A8BVLSrLxRhv4tQeCAJ51MP/T/lGXl32m5Iy8psZQBA7I9KZZS4mhpRQUPKFSWgRgtCytKEZObBhkxMfw8YA6sGiCK4nsQ2upZwj8tGpcSglD5slrEg9BSLz9RP/++BVobQKhtgeLiYpSWluJFUBB+Xr8eGekZsLC0xIaNv8DAwOA1YxUUFGDwgIGorKjAlRvXoaSk9O8b8x1ekXbzP3gdwd5zhyB2Ow6cUuCP3X/CpX37f5SP1gUQ+EOjHRO5UCuqq7DN6wi2BN6CqrQcpth1w1z30fWWyPEXGv5uyyvKD1/d3ovS6krYqOphq+cXsNMzr9MK9AImly0tqqsub8Xp+EBoySrgyw5DMMGlPyt9E9bo3Csh3rgSeh+e1u7vNEmRxkDhEvJ+1G60oClR1n/N/wxOjcJXN3ZDoqIcu8d8C20FFYGSH4ksTbn4K1SrqnFi2i9QrakWqOv+QlOjMffaDlSVFuLklA1Ql1MS7Jz9E0Iw+uwGOCioYe/41SxZsb5d9fij3+FS3HPcn/Iz8+7Qbp1aXnE+rHd+BhMFdVyetI4twHWTEfFGmFWUwwCFZjO9C1SHoLV2BD4z8kCyTCnzDjDGQQIFUlKMMIlHmsQDCCR/rE7CTTKcd8qeSPdYXFaCtKJcVLysxstakszkrSmtJE8Cl8ljh+WmwEbTCGt7z/iH5+jN58kHCG4mjrDRMcWYc78wL4SIKOkdvhhFXb9bC7RmgPDmnefn5+OndT/hzq1bqK6uwvARIzF9xgxwy7j44rPZSE9Lw9MA/3drsPfQO8nCrrt3mCUkehRpI+iWD85evCB0JI8SQ7Dg4m9Y4TEOnds4QoESw4QswFT69SIlCkuu74JfVgLMZBSwdehXMFTXY8lkctIygoVP2AUJdKy8sgP7wu5DSUwc8zoMwXDH3qzWnXIf6pLppZ3brYjH+O7eIUQVZMFWVglbRyyBjrImq42nhLXaBLt3Y/zx6bmNGGHtzur9o7MScC/aF+oKaiwx8KcBc9DRyK7OITaliqGhx0tg5VLoQ3x5ZRu+7joOn7oMFFQX0OKy69Fp/OZ7AWt7TMWYehj4KO59IvAmE1la2mUcprTrL6h2IAC26d5h7A68hR2eX6B/LY2FN8dHfAox2UlMZCkjNw3en+8UhHCon2N+V/HTk7P41LYrvuk9/R+3R4s4JSz+/fwWvr93CIXVlSQpwHQFyAdvrqSJH3pMQV+rzm8lIPQtzYsQb3TTt+GFESR4LIqy4lKQkuR5DcizQN4VdVlFBoKkpYiF9d2WORJ7YmpRDlILs9m9Ekhg4YaqSnAry8CtqkBxOQGEZIy0746v3V+xYgqbI7UBgpOBNYadXseEmkQAoaFvlejzVmuBDwkg1Daiv58fq4TIyspCbGwsiKTpz7/2wNbODjo6Oq3W3k0dWG5JAVzWToChqTm2eH7OOPcbIpOhHfCpoNs4HvqAUds6qupiQofBLFHMRt0QSkJc3SVlpdj39DzOxAagrJyL9hpG6GfXFbryKrDWNIK0ZP302RRS8I72w86Aq0gpyoVCRTk+dR/FSH0s1PSYd4LEbN5sxLOwxfsIbqRG4GVFObro28DDoj306LpaJoL7pfLKs0F38HfkYxRXljP1v2n23dHfxqNel3RLAYSw9Fhcj/HHsaDbWNR5BEa25ZFKUQtNj2V5H1einmKT5xdMJrm+heRCxGOcCL6Hb7tNxKCa8kwCTcFpMTjw/CYeJobgjyFfwr4et3ZxOReHnl3D0cBbGGbjgekuAxmBFSU0xuelYdPDE3iSEoG/hiyGfY3mw5tjuhcTgC8v/ob8qkpYq+pCW0EVkmI8/QPyWkXnpbNFcpJDTyz2GC2UzEnYvSYXZmPokVUo5RbDUt0AyowtkUezTN4EUm1UJWAgK8/EmYiF8F1XMhAoJiKw7JJ8JBdmIau4gKfAiJeoqKpCRXUlS1yMyk1j5Y+bPD9DN/P2DX51awMEZwMbDD29VgQQGrSa6IBWbYEPFSDwjZqdnY0rly4jJiaGJTeqa6ijQ8eOMDQ0ZL8VFRVbtf3rGxyFTTbv2oKTXlfgML4vpMTFYKdvxXZ1/Sw7gyPTcJVHbFYy9jy7htzyYsRkJsJWywRm6gZwo6Q7PQuhrtzozAQcCbqN2IIs5BVkob2JAxRlFdDLyF4gDFTf2CmGe8jvMgLzUpGVlwF9JQ0YEweCphE82jjX6Sqn5NKg1EjGMBhTkIm8vAy4WXRkiwfJAltqmzTozahrTM0FCAR8ToR44XevY/Awd8H0tr1ei0f/8fQiLobeR3sDa1bmaaFZNyU1ue2PBN7CX74XGJ/DRPvur0SWXr7ElsdncDvKF50N7TDeoSeM1Hj5A3W1oJQInAx/BLbAu4/GECtXgU0P+l3G3YQXUJKSxRedhsJCSK7HjXAfjD21Fm3U9NFWw6gmH0ASUuKSTMaYKDCYmBG3GE/TouBqZItfB8xlizu56P2TwhCSk4zyl9WvDVFFUgb2WsZw0rdmYwrOiMOP9w4hLDOB5XMQ3bKqjDyUZDk8cMCAgSwUpTmMTIlyEloiQVFYBRN5CghEk+xzVjGBhGykFGUjp7QAHElZJr2cXV7C6Ja/6zUVk9r2btQ7RAQQGmUm0UEfkgU+dIBQ29ZUKunv64fMzEw8ffIEqmqqUFNVw8TJkxiL44fUrl+/jquXr+Dc+XPQGe2G40s2wic5lO3M74c+hKyyBjTllTHUvAPc2jg3SDBDL8UniSGsrjskJRKRuanQU9GGuYIaprgMgLaSRp3mIS59n4RgxBdmwTchBGE5SUxl0EWrDUbZd2uwRJGuG5ERz5K2IrIS8Sj2GdromDLaXVoghSkWFnKL8SA+EIlUr58Uxsr/9NX10VHblFET15eo9+aNNAcgkNrhoaBbuBjyAGOd+2KWywBB/D4lPwPb/S7h7LObjI9gqJWbUE9GekEW/np+A2cDb2G2+2hMdOgpCCkk5KTi16fn4BX+mPUzwLxDvYyIu3zO4tCLOxhs5Yr+5u1hX1M1QR6gr27uxuO45/iu9wxWXkp5E3W1rKJcDD60HBCXgK2avoCTgJIIaWdPAlAkY0ytsroauaUFOBP+EJ427hhl445d/leQkJmIoooyyMnIsQWdqgIozFJdzoUiRwlWOqZQluFgpmNfqHAUcTMmAEtv7WU+pGHmHRiTI0+DQY4xKhI4oMoG8iBISEhAnEknU6SjmgEVClWJi/P/b90Kj3y2RPJ+UL4LnUPiSXwZZpJgLqsqZ/kF5IEhvoP04hz4pUXDNyWchVEMOcoY2rY34w/5pB5Nizft+jpAsMZQUYjhQ3rlisZalwU+JoDAvz9iUExMSADlLBw/dgwvAoOgrKICj65dMHnKlFadwEiS2kePHMGObdthZ2+HbiM8sSnxDvw/285uj158cTkpSC8txNP4IJx8cRdVUjLoqW+NJT0mQVGmYY0EClvE5qezF+Tvdw8hmlsIYwU1zG0/iLlS+eqAb84XilVH5KYiKTcN+wOuMalbLRkOk3juaOLQ4BeM3LWRWUnILy/BEf+reJgWxRawz9r2wYR2/YQmzmUV5yE2N41VRPzpfxkFleVsAV3tPga9rDo3eN23BQiBqVH48vJWtNO3Yjt6Jz1Lwc72Rvgj/PTgb7gZ2GKMQ0/Y6/Lklutqj+NfYNXtvXDStcBYh+5w1n9Vknry+U1sfnIeA807YJhdFxZSEdbySwvBVDdf3MXvQ79CZwMbVhVA7VaED35+fBaGMgqY12082jZQkrfw6g7cjHiMjrpWPF0Epo1AJYg8EiMeSHi1SPPlmn/2uwA7dQOQl0BPUb1m1y/N7EKLOB1Hiy9VAJRVVyEpPx3l4uL4vP1gVhFyPtiLJf2ZK+swkSbKNyFGRVkpSmCsSVgUJ5ln3qJe/bKKARRa+Ak4UM4CgYe6QlV8u1GIhfIIaBwUKqHKCGJopPHR96e8uhKUg0Bqi0VlXORyC+CbFg0VeSXMchkIbY4y87I1VThK5EFo8KsoOuBDs8DHCBBqPwPiRaioqEBUVBRWLFmK+IR4WJhbYN2G9bCyfvWibk3PbevvW6CtrY1BQwYjMD0Sn1/fCf9ZPIBQu/FruIl0aPm1P/AwI45lim/pNQOjnPs26pbYi7KiDOdf3MVPD08ilVuIoYb22DpiGVPdq6tRrJxitFTCte3eUfzw9CwUJKUxwdoNy3tOhYYQ0aHafdH59KK+Fe6Db27vQ3ppAdqq6GDv8KUwF6IaSdflVlag6mU19jw8hRUP/2YL2WjLzviu51ToKmvWOd6AxBB0O7wCDlomr1EtO2mawHjLFOzuNxtj2vV/7Vxa1AceXYU5LgOwoucUQVycwiAnQ7ww88Kv+N3zC4xr27PemPmd6AAM/ft7RtW7yG2k4FhKLvzT7xKW3vwLh4YvgadFx3q9BsGp0Zh17hfYaBljVY8pMFTVZTtxcqMTQdOKO/twbNhS9DJ3qVfXgW6S4u8jT/wAyeoq6HJUwJGSg6IMLdS0kyddBCpFpMVYmoUEaPGnRbekkouNXkdZ6ECNo8QWdwJqtKfnAwTiF6B5SaWD3EpaiLlIKsyCX3oMsspLMNDYCYZKGizXgIEDCRnISPEqGwiQEDCgygZejmQ1uy4BBAkJcZbMyAMJUizMQd6E2o0lGlbxEg1LKkoZQKCO+DkPdOyrssYq5u3glTOWIDgjAfml+dg0cB4chTB6NvSFEgGEhiwk+vyDs8DHDhDefCDkVdi+dStuXL+B4uIi9PP0xKczZ0KOw2HETFJSLSNS05SJQNwP0tLS7OfNRnkDfQ4vR3ddC8whYhslDahzlIQuSqee3cRX9w6wnVx3AxsWn9ZUUIUWR7lBPQa6dkpeGuae2Qj/gjRoSHOwsOMn8DBzYYyIqvVI3sZkJWHljT/xID0GBlKyzMVtTS5maTmWFFnfjo+9uKur8e2VbTgc9RQq4hL41MkT/WzdoSIjz8rL6tKEoPMIHK26vQ+P0qJYyeHaXjPQ2dSRlcyRYiGf259q8mef/gm+uSkCE1txVLB/9CpoK78Kr1Dp24qLv+NJTjI29pyCvtbuguOTCzLx4409eJGbitXdJ6K7eQehj5my49fd2IOHGbH4sesE9KtViUDVKKtv7EY6txhrek6Bi6Gt0H5oAXuWFo0hx77D3I6fYFW3CQJPS2xOCnY9vYA7MQH4pd9n8DB1btS0o0TP/93eD2tNE2jKK0FJmufmp0Vbgakr1uzqJWnn/YrVkBZr8j6FZScyoiOiTabFnB+KIOBWUU0/lSivLGeufApBUMlgZnEeHqZEwFxZC/ZaJuwazFtRw55IQENSTBxStOizcAWRGfH6k2BeAElW9UCAkHIkJMQITIjXeHReVSGwa9dUIJRWlDPPA79ygoxD/RLg4HkReCWNlHOQUZQL7+QwrOs3CyNsPBplxzcPIs/ekou/Q09FB52N7BGXk4yniSEQk1PAidHfvlWfLXmS2Eu6e1ETWaAJFvivAYTapokID8dvv25mSpO00/Ac0B/6+vqMa+FNnoUmmLRJh4aEhODAvn1wdm6HMePG1nku8e9veXQKz7OTgNIiDLHvDhMNA5gpacFc07DOMsL4nBTs8L2IF9lJSMlJwQibrmhvZAMDBXVYaBg26D4luuUrYQ9xJPgukotyYcJRwfj2A5j72Um7DdSE0COTR+K4/zWciwtgokVWCmrwdOjBWAbttU2Fllvyb5xcwA9jA7Ev8AbiC7LAqSjHZNfh0OAowU7TCJpCvBP06jsdeBN7Q7xRUVEGbSlZeNp1ZZoQbXXMmJZEfY3CH4FpMfj6+h9QlFPEmdGrBICKPvNNjcTsk+vgat4ev/X7XKh3hZLfaEGfd2EzDNT1cXjo11CokcYu4BbhaUokpp1ci+Fte2Jdz2lCxZporM9SInAk4DqCcpLxqUMvjHDiJcvRs7kT/xwrLm1FD2s3LO48HDpCckjquueVd/bh/It7cCHyJlkFBsIUpcmLwGG/Kb+DQg5vciWwPP+XAIV8yqoqmESzFIUhaEGn8Bfb8Vex8ZVW8kiHCByQ6BSV+xHD442kYAw2cYahspaAF4EHDmov+BRKq2b90XOlz2mRp/ACXU9SXJJ5DwiY8DMSyDNAx1eyCoRKlJRTCKGMeQwIUFC4gI2ThRlqjmNejnIWaiuqKMWTtGis7DHprQEC2fpejD+2P72IYioXBRhQ/dZtjFB+kCa9LJp5sAggNNOA/8XT/8sAgf+8yatw+9YtREZEIiQ4mAk7ubR3ga6ePrp07cI8Cy3dCvLzcf/+fZZrQGDEvYsHJk6aVO9l6MV7N/IpvFMjQFz7hQXZcDBxgKmSJvqat4faGxTA/M68onxxOe458kvykVOYA2s9C5gqarDyOvV6KHv55yfmpOJ4iBeyuEWg7HljFR0GMjrpWaKDoa1Q13hyXjqOB95GTGEWkrOTmUdBVV4F/UwcG+XGzSspwNGA64guzkFidjLU5RRZJURnHTMmbSysZRXl4UyIF8Ly0pCYFgtDDQPoqmihvaYJ3No4/QMckS13P72A8JxUtNcxxWzX4QIPTURmPI4H3UFIViLc9Swx10O47G9iXhoOPbuOkKwktNMywZddxwuGGJgSwRgsY/LS0dvYATM6DRU6fgJZN2L88cvdg3AxaYsVHmMFJD1Uank+4jGuRvhguG0XzHUd0eSpSQDhdqQv7NUNWGkhgQQqP1SSlWP/pjwWWpSFNVpgyUPFX3RrH0eeIH7oi0dXzAMHVAlB4kePUyORmJeOifY9meuf0SqL8UCGuLgE415gC/3LKpYzQMCBx5/Ao1+mY8lzwAcIrNqh5hzewl8Fbk0eBAEU+jeFLshTQYCCQA4bI/NOEEDgARniPPDNiGahqrf1IDT5QfzLJ4gAwr9s8I/hciKA8PpTJE6F5wHPkJeXh1u3boEjJwdNLU2MHTce9g72LfLIc3Nzse7HtSAuhx49e2LajOnQ09NrUt+0eHrHBSKhMAsPov1RIS4OOVl5jLdyhacQFymd8zgpFEnkTg17hAIxsIVnsKkz4xKob1HgD+5ZcgReZCciLC0afqlRUFVQg5m8Cua4jYCOUt05AKXlXASkRCKuMBO+8S/gkxoBc01jOKgbYpJj7wZ3v7QrjchMQGBGHMIy43En9hmM1PWhJquAL9r1F1oJQYtDaFoMXuQkITUvA7fCHkFZVRtW61rLWAAAIABJREFUKjqY6uzJyghJYXLh1Z2Ql5DE4q7j4KDVhiVp0k7TLyUSS2/sQlvtNpjZbiDTRhBWfheZlYgFV7az6oz5rsOZt4Ti5LRo3Y19hu/v7GcCTtOd+sFM43UW0NoPniixtz46hfj8TCZHPbFdP7aI0sJ2M9qfEWZ1NXHEUMvOcDKoW/2yoYlEAME7+hms1fSY94DPQaAiy2FgQUGa0+wyQ9q5Uw4AAwbcYuRyi1jZYHZpIfaF3sNcp374P3tXAVbl2YZvuru7EQsDVDBRbJ06u2P5b3Nubs7OOXubXQt11tzs7lZElBCUlm44NJzDOcR/Pe8Bhkp7KP1eLy/B831vPO8H7/09cd8KRJZESYd04DNZcSl2eFMeAzF90oFOn9P6WZiAyi9ZAqMU85pR6IGRHNGhXxo6IOBCoY0yzwCBAPKEUEhE7BEhL4jYiyBkuRJClk+TkpeF0LQY/DzsKwy2rznxtSYbN8fPOYDQHHelmc+JAwiVbxAlNpJwFL3pnzp5Ch4PHzABqG6urpj99ddvVQlBffs/e4b8/Hx07NTprbga6BdiUg4P6YJc3A/3xtYn56CuogFnAxuWGGepY/LGAumXd1I2Dyn8bAQmhGPv49PIlpZGN31LLOs7AybVCAqVdUZliJR8Ri7krbcPwjc7BabKmvii0xAMbUvERZWTKlEmfkRWCqjsb6/XWYRlp0JPQQU/uU1HD5v/dA6q+rEhTQgS0KFf7ns8juNOfCj0lFRZKd3EjgOhwFj43mzEux+VnojEvAwc87kMr5QogN6Si4sx0cEV05yGvSJctPPBvzga9ABjHVwxw3k4tKsJUezzOIU9z29ipI0zPuk2ipENUaNDa+Otv3Alyo+VNY7v4M7e0KtqFAfve3A+c/2v6DOVCTvRAUmeo4M+l/Gb9yXM7DgQUzsPZuWB9W0EEB5EPEMrLaNygKCpqAYCCFR6qCSvWCFn5D9Gw7ISwsrGrfhZ2dd0EBOtN/ELpBM4yM9mAOG35zcxq01vqMgpsVwCaWlxySLZi4UKiovY9wQGxLkHRMssI849kJYRhxZKSx4ptsGSGUvvI88DhT9YGaNIAGERAQ1xoqKclJw4+bE056UsoZK8CC+zktFW3xJr+n/MEjDfxcYBhHdxVxt4TRxAqNnA9FZDv+xiYmLw9ZdfIjQkFFbW1vhp7Ro4d+ny1m9bNc+gdleUJXZR7f6Cq3txPPwxlKRk8ceQ2RjfufKqBrqHfiknZKVi1fXf8U+YFwpKirG591R81XtSrQZmmeGFIlx8fg+Lbu9HVH4WRlu0xx/jl1fLV1D2S/3PR6cw794R5iqeYOOMNUO+gJGGfo1jiw+TYlwLfojvb+xjoQxXTWMcnrwKZtpVe2ToPjqMhvw+B2Pau+Fz17Gv7GHHrTOQWiSC98fbYKCuU+3+Dtz3HW7FByF2ziEYvnat6frR0NbQw61pG6BDLJLsjbfydtznCmZd2YUfOg/FskGfvZJX4rJtFqCkisOjfmBy3fUhEaJ9/vr0JvwWeJftd09jh3KAoKlIXoQygKBWK3rtGjen9AJ6LlLzMxlbYVp+JlLzsxlA+KiNGzu46aAvI2QqKg0VEFcBJStSvgHpNCiQXoMsVS5Ii6sX6B7mOxDbs6IHQVgsYs8i5R9QkiKFG8g7QVUS1GdZsqu45LGYaTGQAFlAcgR+6f8JxlVDj13bNTfX6ziA0Fx3phnPiwMIdd+cnJwcHPzrL1y6cJF5GLq6uOCLL7+AIoUjdHWhUEFqWsDnw9/fH7/+/AuWLFuK9o6OdR/wLe44H3AbKzyOszcqO1VtzO01CRZahuwttyp9hrthTzH3xh/IKSyAg6Yh5riMhpmWIZMsJirfmhp5B5Zd2YP7qVFQlJLCx4794e7gykIC+ipaVR5wydk8LLq6m2X+G8jI49vuE9Da2AY6iqrQVdGs8WCkUMbKK7txLvYF1KVlGT2wm31Xdr+h2psH/Yg/v8UHbXriU9exIEIo77hgLLtzEHoycjg5c1OVyyRb+saHMB4EKaEAp2duLD/QswS5eBQdgCV3DqG1qjYOT/mpyn7ooE7OzcS881vgmxGP8+OXw6aUhZE8NEEp0Zh0ej3aa5vgzLR1NZm9ys/Jw2SzdTrIS9BV3woFogLmnaCKGDpwqZqAkhM1FCkPQQWKsmKRJ0k0cvGn5GYiNTcTyfkZiM1KxdFQD0y374EiYmosLoGgWFy6mp6fjaTsVBiqaMFUy5BRg7MERmlxYiKVXIrDEeLwgpj8iABCWTmkuMSRSkizhHwEpschU8hnIEOYn8N4LEhfhDwWFH7iM2EmEfyTI/Bx58FYPeATSSy52fbBAYRmuzXNd2IcQHi7vSFvwt7du5GVncVCBr169YallSUcHBxYGOLokaM4eeIEbO1ssWLlSpiZm7/dgPW8mw6c3Z6n8DglEoLcLLhatEMrIxvYquujvZFtpeRIxLZ3wPcqHieFs5Ktvmbt4WLlCBMVLbQ3tK5WgZGmSW9ot8K8GOtfYl4mtOUUMaJdHwZMXIztYVCFWiCVyF18cR9nXz5FQm46DGTlMczRHYYqGuhoaFujTDH98n8c5Y/DAbcQlcODUmEhJjgPZVn6nQ2sy3MeCCAMb9MTI9r3wzaPk/BJDMMnnQZhVDu3KvUuSL55r9c53Ah/imkdBzE2SXLJ0xt6dFYytjz4B6HpifjOZTT623etcreoMoJoko+9uAsUFWL7iLks/k8tIiMRux+dQmhmEiY59MDEzoPruevi28YdXozHKdEYYN6OcQ+wkkZ5JbYP6kzIS/x/CnR40sFbjaejrhMhwqKknAwk52Wwfy+/fAJpGVmYSqkgQ7aQVZwoyCvCWMuQVSl01DbBlchnyM3PgbW2MRMao/ACI21iwED8t+IcywiQKLzAaJRFIgSlx7Eci9X9P4aBmja+vrQDIWlxyMzPYs+tQChg4QpbA0sMNm2Lj10/rOvSWtz1HEBocVvW9BPmAIJk9oCkqR/cv4/goGAEBQVCWCCEto4OfH188MVXX6Ffv37Q1tGWzGBv0Qv9AvWODcTd2EAk5aQjKuklHMzbwEJNF0PturI3t8oc4b6xQTgX4Y28gjyEJ0XCUt8CVup6GN7KBVY6VSfdlU01KTsNp0MeISU/ix3exM1AVLauxq3Q3dKxSnIf8kb8G3AbcfmZiEyJYZwFumo6GGTRHi6WHWq0BLE/nnx+B/Gl+RZ0KFrpmaGHcSv8cvsgrLSNUKKgzBQNf+g9GV2M7avs0zPqGY4FPUQULx7f9hiHPlYdyt3cl4Ie4mSwB1MZXdB7MhO3qqpR/f3CG38gkhePyY7uGGLflTFKEqB6GPWMsUWSA3153+mw1TGtdD9qXHiFC9rt/gw2KjowUNFiB64a4zsQlzMSQRLxIJBdqpOAFnf3qsLiq3N48zPKDaC8g8ScdITx4uCXGoWnKZHoom+Jp6nRGGjhiL5WHeFkaIMu5u1YVQQBLd+kl1h49TdEZiZhuH4H5MiJUCJVUpp7UBqWYIOXJiiirHSxCFRKGpadAis1Xaxyn4WOFUiPiBnzdKgnu5M8EETbPaCVS40cHXWxdXO+lgMIzXl3muncOIAg+Y2Jj4/Hi+fPsWjBQuz943c4OTlJ9K1MUjOmmv3HMc8Rm5uOhy+9kZCfDUVFFXxo1ZlxHlTW+CIBfOJDEZeXgfshjxGey4OGsjoGmbbBpM5Dqq3rL+uPlA9JEyI8JRr3o/0hr6AMC2V1zOs1mQGUyholGZLLnSiivaKf40qED2z1zOGgbYL/OQ2tMbGSDh6qhAjkxSIwKQK3ovzwIiWa8Tqs7jcTblYdYKZZtQro+juH8E/gfXzjMhp9LNq9Aoo+P70RwekJmNPtQ/S0aFelZ4TWRVUcaz1PAkIBFrvPgpORXfmz8cP5LQjOSsXY1j0w0K4rCwFIos2/tBOHXtzFUMtODCAwYEC8B/KlAIHEkuSVqqTYru8cyOaM8pjyEHIz4J8SgZisVJa4SCWPVE7pZGxXqaAUCTxtf/gvfKJfQl1OBgY6hpAqDS284uVgeQslLIT2Ij0ePH425nT5gJWAOlSjhFnfNbXk+ziA0JJ3r4nmzgGEhjN8DxcXPPQUv7E050bxX2LIo1I0ohhedvsvKCmporWWMVb1mYp2xnZvTJ8Sw+ieNH4O4jNSsO7mn4gRCdBe2xgr+s5AW0ObGkERgQ2KwVOd/OZbB3AvLRpGyhr4osMgRgqkKFd5LJzyBeJyeIyIabvHcXgmRzDWxxW9JmNo2141mprGTczNYHTAFNMmdcGq9CdSc9Kx/M4heL70xl+TVqKNnkV5+IE8Cf+7vBPpaXE4NmMDLDQMqhXNWntzP/4MuIXNAz6Fq0V75kWhxsvNwKjjq5GTlYYzMzfCRE23ViWnNS609AKyk86mcRhs1g5mGgbMg0AAQVdJg+V2KBG1MksClK1xz2o75uvXUb4FhblS87PAy89hlQ3JeZl4lhYNFWkZ/Dv5Rxi/ViZL847NTsPUw0sRJcqHhrQczFW0WB4LhUOoFDItLx1RpMTIgIiQUWm307NgLI9ce9UCHEDgnog6W6AlAQSWcV9czDydMrJU09y8W0sBCJVZkVy1K67/iZ3PrjG376be0zC713jmjqUkr8qok9Pzs/DLncPY8+w6E1Ra7DQMSwZ9Vl7KVhu6ZUqQ/PbKTgTlpGKQsQP+mriSJc69HneuOGc6fA57nce8u4eZENQos/b4deRclmsgzpKvunqgqieIHOZPYwPx0an1cLPqhB/7f1SuXEn2OOZ7FQtu7cMC1/H4svuYaseg0s4F1//E2cC78PpiL2MRpMZkpP2uYeHtvzC9TW+sGvy/t36gyRY+cSEYc3Qp4oX5r/RnrKqNZa5jxZ4DeWV2iDIVRpS8UhFQcZ+q+6xi57Xpg3QS6LkiIEplj4wbQZCLq9HPMKV1D6weVPX6ydt18cUdrPM4waiuaZ1iOWcSYfpPbpo3/wS0qlCwfGvjtvAOOIDQwjewKabfXAECqRpmpKcjPT0dRSTAUlAAoiW+ef0GkpKSsH7jBrRp2xayslUzvjWFPSuO2ZIBQsV13Av3xmqPf8ET5EKtpATfdB+PVvoWMFLThpaSeqWHI0k0f3d1L1JFfMZz8KnTUEZoZKaqDd1asDdSNvvGO4dxL+klCguFmOjQHQNb94SOkipM1PWqTCKkA2j51b24mxQOtRJgRqch6GjWmlE9G2vo1wospOVlwCM2CF9d2oG5rmMw12V0+X1xmcn4N/A+E1raMuRLDKpGj4EOsGvhT7D5wT+w1zPHgp4TWSiEDtPknHT84XMFB55dw2/D56Iv5TPUA8hU3CcCIrNPbcT1hGC00TCEg54FA1ekryAnJYuCQgFsdU0ZERIlJtaccyDZnyCyByVnZghykMHPAyV8ZhbkslyYC1G+iJzzVzljZE0jr732Gy6EeGF850H47uaf5ZdzAKFqy3EAoaanivv8DQs0F4DA5/MREhKCuNhYFIoKxb9Ek5LZ93wBHxoaGujarRt69urFfpGuWrGCfe3evz9UVGouvWuKrX9XAEKZ7SiJbp/XGdxLDEdOTjqstY3gaNoaVqracLXsUKm+A4UDjj+/g9uxLxCbkcj0I9zsusBASQ1dTFvXWJFAY3tG+ePAsxtIyMuAbEkxBtq7sDh6P4v27NCvrFHOwu1QL5x/6Y24XB4URUKmCUGiVV1NWpW791+/926kHw76XAK/uAQz27lhYOv/xJpOv7iHY/43oK+mg086Da6WLjohMwXXovyw8d5RfOU6Gp87DSsHNRcC7+NcyCP23v5Fl+HobNpaIo/nT7cOYK/vVfQza8tAASkzUs4B/UveAtIFEAsxKbHwTVUCWBKZTBWdiNkVxQCB8hAIJBDT4rXoZxhg6Yg9H86v1fAcQKiVmV65iAMIdbfZe39HUwAEepMgL4Dno0eIjIhEoUgEVXU15g2gtxryHmhoaqJ9+/Zo07ZNpW9WVDXw2549DByMHjsWurqSSeiS5APxrgGEMtuQazwkORJ3Yp4jKS8TfuFPYWXaGiZqWhhu2xWtDKwqPXzCUqJxgSohSPwo0h+6mvqw0tDHMLuucDS2r/HASs1Nx1VKpszNwMMIXyjKK8JO1xxdDW3hbusMFQWlSrePYvykzRCfT8yRYUw8SU9DD0MsOqCPrVjTIa8gH2dCPLDr4QkMadsLX3cZUS7wlJ6XiQP+N7HP4yRm95mMGY79q03GvBz0kJVY6ihrYKR9N7jbd2NjUAx+x9Pz+NvrPL4lUSCHHjWKSNX2eYxIi8XQYyvRWtMQukrqTGxJRU5BDA7KAYI8q1ag74m+uO4ei7pVMVQ2dyphzRTkIZvolwvo31z2fUJOGi7G+EOw5EKtlswBhFqZiQMIdTcTd0dFCzQ2QFi+ZAni4xMgJS0NJ2dnODiI+eTV1NVhZmYGff3auYHpHtI0OLBvPzIzMvDV119D36Bm9r3G3P13FSBUtCGx1j1LEFc1eEb6wS8pEnKKyhhi3g5f9BhXqdIkUekGJL1EXG46Hr30hWdiGNOR6K5nidk9x0O9BuVFGp9KBAPT4xHNi8PF4EcQycjCXlUHC92mVlkJQbTUL3lxiM5OxdOYQJwOfQRDDX1oyClCXVYO+YVCjG7dC8Na9yh/2/eIeoYtj07BSFUbY9r2Qm/rqumgyWtx8NkN7H50El93H4cPHbpDs5S21yPSDzufXICClBRmOA1Fn1pKM9f2eV1yg3Ic7qOToS0jAyKAQF4D8deKUGLeA3nmPRADhIZLSKxuzvS8ZBeI9RnIg8D+sq/zGYFSwreHoKMiTt6srnEAoSYLvfk550Gou83e+zsaEyAs/GE+Tp86BXMLc8yeMwd//P4Hs//ipUvg6upar70gT8LObdsRFBSE3Xv3QlGp+WQvvw8AoWzTyCuUK+SzX/YvEsOx+Npv4JUUwVxNB2vdpqFnFQerOCadC15eFpZf3sU0HezU9bCs1xT0sulcbVUAjS0sErGEt5wCPrbdOYTT0f7QVlDB/xzdMavbh4w2uLJGiolE+0tKfqtv/AlFJXWsc5/FZKypsoHWczX8KT4++wsW9BiPGZ0GlhMZVdYflfHNu7gdPGE+5veYwLgdiAGQ+jkZ9ABfXdqO1W7TMa5Nb2g1ANf/9DObkJCRDDM1bSjLyLMQAgsnlAIEKudUJoAgKwYLCrLyNXps6vUDWcNN5EEgUJAjoFJHcbkjU3sU5uNQ0D2cHrUAw9r1qXFoDiDUaKI3LuAAQt1t9t7f0VgA4fChQ9i+dSu+mTsXRw8dxoUrl5ntSWp5yeLFeHD3HvoN6I/v582DlpYWk1yWkal9pcIvm37G+fPncOnKFSgr11/IRpIPxPsEECqzG72xb73/D1Z7nmBUul86DsB8t6ns8CJ6XzqIX28kxvSX13n87HUGKQV5mGztjHUffAsFWTlWildTYh3lrnhF+mPu5Z14np2CXnrW2DziWxhp6In5+CuRMb4T5c8O8e1DvmTTyRMK8OP133E+wgcb+87E8GoOLPKGkKyx5a+TMbSVK/aN+B6KpYJRlH+x+d7fOBp4FxvdP8YHtTj46vP8URb/jDObkJqdzlguyU6kXigOLygw6mT6XklODkpyiswOtAfETlhTZUl95lPVPWUKjwQkcwv4YmBQChDIhrcifTC9nRtWDP6ixmE5gFCjiTiAUHcTcXe8boHGAgg0LlUhtGrVCiOHDS8HCBXfQL0eP8ae3bsZOBg8ZAjMzc2hp6cPUzPTWsVLj//zL04eP44169fDxtamyTf7fQcIFTfAPz4Eaz2OIzaHh7z8bMzuOgodTOyZvgNRLlcGFiiuvuDKHsQW5EK+BJjczg0dTB1gqqoNs1ooThJV9A6P47gVH8w4E0ZYdcKw9n2ZNoOlpmF5UmUZQPh5wCcI4cVh2tEVMDe0wqGR88pDBJU9TLGZybgc/Ag7fS9jir0L5rvPYpeRV4NImCYfXoKOVh2weeCnVUphS+IhJSAy6+wvKBDwoaesDkVZWSjKKDDvCQMGsgpQkJGDspw8WzN9rSgj/poBJqlXhY9eBQ11V3OsyLhIHhT2pwQQlaos5or4yBUWsFwUAgsEFOjfR7Ev0MXQBvsmrqjRLBxAqNFEHECou4m4OxoTIBBnAZUnKin9lzxG/zd8yFB88tmnaNuuHWxtbd/wFFBp46kTJxEVGQldPT2WW6Ctrc1yFvT09KrdRAIZF86fx4ejRzMp5bonYknuGeEAQuW2PPHsBq7HvkBmTjrTAqBKCAtV7dJEwze9PwWFIlwLfYwrkb6gQ1lZWgburVygIa8ENwtH6KvVTGHtGxuMQwE3mSYEvyCPhQC0lDUwyLIjIrJTsdnjOPpbdsDtqGfopGeBZdUI95DXwDsxHBsZoZQalveaDDt9C7bYqPQEXA7zwpngh3A2tMWaQZ9L7oGqoifKfZh55mfo5MsgX7mYqR+S7DWJHVFogRISCSgoMFAgy/IPCBiw8AOjWH7TkyOpSTNRJKGAcRUQsRHtJYV38gqFLLxDIIG8B+S1IYDQy7Q1do9bXOPwHECo0UQcQKi7ibg7GhMgrFn9E3v7nzFzZvmw9EZx7uxZlmCYkpyCvNxcWNvYYOLkScxz8HoLDwuDh4cHREIheLx0CAR89OrdG3379at0MwmAhAQHM5DQvXsPdHN1aTKuBA4gVP3zRm+VsRnJuB8TgPicDDwK9YS2jgmIzGeYjRO6mLetNJwQn5mMa5F+yBUJcCvEEwoKyrDUNMBg687oYdWxRgZC8iTcjXqGmBwe7od7M2lrOXkFJr40tnUvfNZ5CJzNWleaXEmroQPtkM9l3I1+AQddE3ztOhbayupMpcA3MQwrbh2AlaYhJrbtw0BIYzXKQVBJ5YOvIcMAgDgkI8/+JYCgIE3/EjAg74Esy0/QVFJj+QgN2Si0lJaXiXxRASOGKioqREFRUSkFsxB5IgEorJQnEuL8yydY5joGc/pMqXFKZQDhu96TsdPnIu7GvmD3cDwIVZuOy0Go8bHiLmgsgPD5J58iwN8f6zZuQB83tzcMT+RHm9ZvAInBezx8CBUVZWhqamHchAlw6+sG6dfeakgpMTIiAtnZ2fD29oanxyOYmJjgsy/+BxubV8MJBEJiY2Lx+2970aNnLwwaPKhJPAkcQKjdzxu9ZYalRiMuLxPe0QG4Hu6NEnlF9DGyw8K+M9jbcGUtLDWG6Uj4xrzAxfAnKJGVQ3t1fSx1nwX9WugYEOlRaEYiiGAog5+NQXbdYFLNffQWPPjgQgZClvaaDEdDm/LSyqM+l/GH33X0puoNlw+ZnHZjtn+f3cTaO3+zkk+RdDELIyjIkLdAjoUS5GVkICcty/IRNBVVoKWkypIuiWmyerbEtwsxEChgMs656RAUCkGxBvIkkAw0fU/AgSiSyaNwPNQT0XP21yocUwYQ1g7+HxNg2u4tLo/kAAIHEBrz5+6dH6shchBmTJ2Ghw8e4Mixv+HcpUuVyYY/b9wEC0sLnDh+Aj5Pn2Lg4MEwMDDAxQsX4Na3L5atWA5VVbEEbsVGpEr5eXmIjo7B1i1bEBYaitlzvsaEiRNfGSs3NxefzPoIQ4cNw/SZMxp9LzmAUHeTk7s8VyhABC+OMSL6ZiZBS1EFG/pMw4j2fSvtkErnyE2dU5CHJee34VpyOEyVNbDYdRxGOvarlMCpYkd08NNBRlUHVTUSWRp9ej2665hjz7gl0FBQLgedbrv/h7SSIhwZ+QMcDCyrVKasuzVqfwclhPbeNxdRafFMIVEMDshjIANZKcpJkGNgRkdJjQEEdQUVxonQ0CE4AutEhpSYw2MgoZCo0gEUkiehmLwJIhZ2eEJ5IoI8xC08WatFVwQIZ0I9sY0DCDXajfMg1Ggi7oKG9iCsWr4C58+fx4lTJ2FpZVWtwcsAwskTJ+H95AmmTJ+GlatWsXvu3L6N+d/PAx3yi5YuYYc8hSCoQuF17wKFH3bv3o2/jxyFqakplq5YzjgViESJ7hno7g7X7j0wf+GCRmVd5ACCZH7eDj+9jCX3DrG3zA+sOmFR32mM4llDUYW9Ib/e6LC8HHgfP93/G5F5GehrYI1NI75jB6KavGKtD3B6dyYNgLU39+FQ0H0cHPE93Gyd2XB0qL3kxWLK6Y1QLBTh0ez/6H4ls+r69WK/dQYyhflw1rNimgSUh0B5B9qK6ux7AgZqimK5ZwovvP6zVL9Rq76LEhNJvZFkn+NzeEjJy2DeA0paJFAmKBIhlBfH5LjjvjtaY5VK2UgcQKj7TnEAoe42e+/vkLQHgd4YeDxerZgNqwMItDHfzpmD82fPsSRHNTU1dHJywpixY5hXwcHBgbEtvt5iY2OxY9t2pPN4cO3RHfb2rVjZJGNdVFVhhEoUmmiMxgEEyVr5ZWosNj8+jaD0eCRnJmNmh4HoYtGW5S1YahlVmn+QmJWCjXcPwz8zGSKhAIOtOsHFuiOrhLDRNWUiUJU1Cnu8SIrAfr+reJoQhv0f/gA7HVN2aUpeJv7wOoebUc8wvV1fTHce1uBv4nWx5B+PT2OH71Vk5eegm5E9zNR1oKWgCjUFZUa9TNUNxIdQlp9QVsUgrjigVlLKkVA7kStK2qR7qQS1zCPBhNVKillCInmEqJwxLT+LgYRTwQ+hKisPDUU1iEqKoKGqhX0jvoOtTu1/LjmAUJcnQnwtBxDqbrP3/g5JA4S6GLS2AMHK2hpOXZxRUlwMQ0Mjltiob2gAZSVlVs7Y2ckJioqvEiRRzsLNGzfg/8wf8nJyjEDpzKnTsLWzYx4JS0vLuky1XtdyAKFeZqvVTdeDPXAh6hmy8jIhFArQ3tSBVUIMaeVSrrpYsSM6rDyjAnA2zJNJCPMF+ehp3Ykl6w217gxzbePyy+lw2/LoJO5F+KK7eVtMdnRnIkvUSOHxYMAthPPimaw16To0tJu+VgapcBG59Bdf/xM75kpWAAAgAElEQVQXQj3Ry6QNrLT0oSanxDwo5DVQKktcLOWFoDwEamQjAkak0UCemYoHvhg2/Kf6WPZ9UVEx8gsFKC4uYgmQlJ8hVSKFopIi1hflGZD+AoEEEmYiee9tfpcxyaEHs2l3Izv0t+8KVYW66alwAKGuTwUHEOpuMe4OSAIgLF28GO3atWeVCHVpdQUI7dq2xbQZM1BUWIj79+/jkYcHPD094ejoCHV1DcyYNZNRNb/eUlNTce/uXaSlpeHyxUtQV1fDpl9/ZfkODdk4gNCQ1hX3TcqLD2NeIC4nHQ9CPFGsoMxUJgdbOKKffbdK8w9Im+F2TAAyBHm4HvwIecWFsNYyQl/zdnDQNcduvyvweumL5QM/xUAbp3LPxI83/oRHfCiG23fDULuusNYVexSaWzsdcBuzr+xBbxMHGKvpQFVBTK+sRCyKjAdBFrKyMpCXlmVS3ORBKC4uYQd6MYrFVRBUEikjx/IyCAC9DoJYRQKVMBaK+QzoXkqCFFM4ExOluKyRwj0CEVUrFID4D4j18u8Xd/GN0zAs6C/mjahP4wBC3a3GeRDqbrP3/o63BQhTJ01CeFg4/jxwAG3bta2TPesLEMoGoeqHQ38dhKKSEvMWELESHf5Dhg3D+AkTXimbFIlEOHvmDNavWctKLC9fuwr7VmIdiIZqHEBoKMu+2S+9/cZmJCEhLxOBieE46nsNebIycNGzxJJ+M6tUb4zPSmElj0GJL3HE/yaSBDmY2a4vRrbuCftSbgMiXJp77Tc8eemNo1PXoK2eRa3zGBrPAv+N1Gb7LBgrabCQCIUUVAgcyMhDQU5BnLgoLcOSF2VKD37ymFDyYBFL1JRmgIiFH6TFAIF4EsjLUAYSqJSYAAERQjGAUCBgYICYGQl8sMqI0hCDkKTaS6+jigUSaQpJi0WaiA/Pz3bU2zxb7xzClqcXsX/kPERnJsMnIQQnwrzwfPYfLNeCa29agAMI3FNRZwu8DUCYMnESU2R86usDTS2tOrtaJQEQiFNBRVUVfx8+ggGDB7Ekx5PHT2DPrl1MCXL12rWwsLDAhyNHISQoCDM/moXIyEjM/e47DiDU+WlpGTfQm62gUISErBSsvPYbLscFMnf5hp6TMdNlZBUCUsVIyU3HiH9W4sqUtdAp1Uu4FuyBedf/wAd2XTDfbVq1egzNwToZeVmw2j4To2ycmZojsSiS90Bc9igOAdCBT7kXUtJS7CAnGW/6SwBA7D0QVz/QtbLMyyDNKJnpD4UZilHCqhDEAEEEvrCAhRLIxhTOI5BBSYjkRaB+heRFKBKXNJK3gTQYnqZFI+CLvfU2GSU/tv55EpKKROI5lZRgtFVH/DFuCaOT5hoHELhnQAIWqC9AWLl8Oa5duYpLV68wcFCfJmmAMGT4MPzy66/lU1n942ocOXgQ5D3QNzDAZ//7HB+MGIHlS5bi2+/mcgChPpvWQu+5E+qFb6/tBU8kQBd9S8zvNQlGGvrQU1JjbILUiA9h0JEluDJ1LaRKgNPBHph/43dsGfwFJrbr2yTiRnU199KLO3Ak8D76WnZg7InEe6AgJyZLkidvgJTYIyAFyjsQg4PCEqoqKGE5BAQiKPQgJytT7j0ggMA8COwO8h6I/1L4gAACkR1ReSp5JFgegrQsAxMUrqD+qWqBeRGI84BCDYUF8EmLeSuAUFe7cNdzOQjcM1APC9QXIDx98oSVEhoYGtZjVPEtDQ0Q1q9dh7/274dQKMTEyZNx4/p1DBg4AD7ePtiyfRvs7e3rPffa3MiFGGpjpca9Jik7DXueXsDT5AjEZiRiqFVn9LZ1hpGKJoxUtTDy3x+xtOcEXAzyQLowH185DUdvW6fGneRbjNZt20zIyyrCVs+s1GNQSpgkKwdZBg7o6Jam0wIlxWLSIgrPsLd/4k4oZVyUJe+BFIEEKXGlh1RZRYM4HEH3Mc8AS0IUgC8SslwGxtpYKiXN3uxLcxvE15KnQYSU/Cy8zOVxAOEt9rk+t3IhhvpY7T2/p74AQRJmawiAsGbtWly7epVpNty5cxcHSwHComVL4e31hElL37h+Ax+MHFGrUsy3WScHEN7Geg1/r1d0AE6FP0EuPxeJGUlwKNTB34lPICdbhGkuH+LrLh9AQ0mt4SciwRGG/vENsvPz0crQmoUQGFESHf7ScpCWlipnTmQ5AqW5BHT4M88B6TRQoqG0LAggMM9BWf5Bmf+gNLeAhRhK2RDzhMSGWMBc/ex+Ut1kDI3iygjmpWBehELwi0S4E+2PSY7u2DDwMwmunOuqJgtwAKEmC3Gfv2GB2gIEIiP6cdUqfPzJp7C0kkyJoKQBwoBBg1BcVMRUI6fNmI7ExKQ3AMLu3+of96zr48MBhLparGmuJzXEx3FBOLr3AHKVSjBhzBiMdqyctbFpZlj7Ub2iAjD+2E+YbNED8TI5LCGRcgLEOQfiMIG4AoGSEosZ9TElFzLvAYEElsRIuQfiJMb/khPFAQaWs1BaocC8AiIh+IUC5ItEoBoICmOQB6FMlpvGolwE8joIi4sQkBKFxOwUBMw5AB2VN3lMar9S7sq6WoADCHW1GHd9rcocyUU/ffIUREVF4da9u4zNUBJN0gCBWBPl5OSwc89u2NnbY8+u3eUhhjIPAgcQJLFzLbcP0gC5d+cuDuzfD1INPX/pYvliUlJS2OFpoK9f54Tb5mIROsAnHF6C5Ixs9NCzQ4pMPgpBJEak6SwlVlUsKkJMZjKKC0Ww0DUV0zKzygYxOCCQwCoXyoCFmEmJqTgTOKAkUOpDWCwC0VxTCeOFSF9mAjVZeTjqmkNPRbO83FEMKIoZd0RAehyefrodbQyqZ1ltLvZ8l+bBAYR3aTcbaS01eRDIczB96lR4PfZCaMTLKnUV6jNdSQMEAyMj3Lh1s3yOFXMQOIBQnx16d+4R8AWYOWMG0/ygQ5TA5OJlyzB5yuR3Z5GlK+HlZeKHSztxLNgDjprGMNYyYPkCUZkJCMlOYyDIVlkDsYIcWCioo5NZGygwMSdx+SNpN1BFA31PpEkVG91L+QeFJWKOA0o+/Cf0EUabO+KPiSvw68Pj+PH+UbTWMISdrhkrh0zKTEFwViKUpWVx4+PNaK0vGQ/kO7dxDbwgDiA0sIHfxe6rAwgFBQVYsXQZHj58yKoViO5Yku1tAQIJQp0/d668zPH1KgYOIEhyt1pOX0SMRaqf6urq0NHRYW/ChYWFOH3qFPMaTJo8mX32rrdHkX746cExRObw2FJtVbTwVdeRjECKvAXkTWi76zOI8nPQybgVNOWVmaeAQAGrdKAcBKpHKAUJLG+hrDKhqAjZIj4exQfDRl0Pdz/fWW5OosSefXU3orNT2f8ZKaljXrdRGODQvVpBrHd9P5p6fRxAaOodaIHj1+RB+OfvY3Bydoatna3EV1dfgJCUlARfbx8EBAQgPZ3HAQSJ70zL6zArMxM+Pj4giu1/jh1DwDN/fP7FFywXhUS7uFa5BcgLMPPEWsSmJsNcSRslSsSySGRHlH8g/lsWXxDnH5QwPoPEvAxkC/norG+JXaPmQVFOgTNxM7cABxCa+QY1x+nVBBAacs71AQja2tq4euUqI2jq4+YGGVkZDiA05CY1474pC79MjTA5KQnTp0xF23btYGFpySi3+/brC0Mjo2a8guYxtWxBLs4GPsDp5/cQnpmIEhlZmMurwkbJAOqyKkiX4iOtMBdZghwkCnKRK+RDX0UTXzkPx8g2PaHOMRc2j42sYRYcQGgR29S8Jvk6QOClpWHj+g3Y8POmBp9oXQFC4PPn4KXxMGjIELj3d2eHQ0UmRS7E0OBb1uQDhIWF4cihQ0hLTUU3FxemzVHWHnk8Yp4uKnHlWt0sQCWKoakxCOLFITQlGveCHiEiOwtKMgrIhRC5RVSpIICVmjb8MhLxUceB2Db4i3KSqbqNxl3dFBbgAEJTWL2Fj1kRIGhoaODTWR8hISEBj72fNvjK6goQzp0+g/WbNqKfuzvLhyAtBg4gNPg2NYsBaK9XLFsOgYCP1JRUUEnroiWLYWz8nwpjs5joOzAJkmjm5WchR1TA6KpX3zsCV5PW2OlzCWMtO2J/6CMOILTAfeYAQgvctKaeshggbMBnn3+OrZs3IyQ4BIGhIY0yrZoAwjdz5uDC2XMok3suU3MsmxwHEBplmxp1EJL0pkx5Kq2lSoOyEAKJcVE+zJJly2BhadGoc3qfB4vmxWP25Z1wt+yIHx/+g3HWnfB70AMOILTAh4IDCC1w05p6ygQQFvwwH/Ly8kxG+cg/x6BVT22Fuq6lKoBAteqxMTH47ONP8PLlSw4g1NWwLfD6kOBgCAQCXLl8Bcf//ReqKir4Y/8+2NrZtcDVvDtT5gDCu7OXHEB4d/ay0VZCAGHJosXo2q0bpkyd2iDVClUtpjKA8OWXX+LBgwfYtWMnKDOdytI4D0KjPQ6NNlDFBEMatFf3HgyYEiDQ1dXFByM+QJu2bSXKu9Foi3uHBuIAwruzmRxAeHf2stFW0pyqGNwH9IecrBzCw8PRs1cvRES8xJ1btzmA0GhPQ8MOlJuTw3QywsLCYW5uhklTppQPeOrkSVhb26BDxw4tlsWwYa3XNL1zAKFp7N4Qo3IAoSGs+o72+eL5CwQE+MPBwQEbN2zE6jU/wcbGplFX+7oHoa97P3To0AFOzl3Q3rE9lixahPNcDkKj7klDDPb48WMcPngImRkZCA0JYeRF33w3F4MGD26I4bg+JWgBDiBI0JhN3BUHEJp4A1rK8N5PnmLhggWQk5fD2nXrmg1AmDR1CpYsXcryIYi97ds5cziA0FIeqmrmGR4Whr+PHkX3Hj3QysEBigoK0NTSYoQ8XGveFuAAQvPen7rMjgMIdbHWe3gtxX29vLywctlypuB24crlWok1NYSpiPp204YNOHPqNCM6oqTEKdOnYeWqVeXDcQChISwv+T5FIhH4fD4jr9q0YSPiYmOxbecODBg4UPKDcT02qgU4gNCo5m7QwTiA0KDmbfmdB754gR9XrmJvbvQLnFgJmyIHgcDAyRMnsWPbNnRzdWWJiOGhoRxAaCGPGFHuUivj6L9y+TKWL1kKYxNjxk/x4ZgxGP7BB8wTxLWWbYGKAOFY0AN00NTnyhxb6JZyAKGFblxjTfv58+e4evkKRo8ZAytrsdxqYwME0lGY//08pPN4TJ9++swZDCx4P3nCAYTGehDqMQ6Bgmd+zxAcFMRCUx07doKNrThnhcpjz545g4GDB0NVVbUevXO3NFcLVAQIHQ2s8bffFQ4gNNfNqmFeHEBooRvXlNNubICQEB8Pt1690aNnDygoKIIqFziA0JRPQM1jn/j3OF68eA7vp94sfDBu/HhMmDwJ1tbWNd/MXdGiLcABhBa9fa9MngMI785eSmwlVAUwcPAgxkpXWWtogOD99Cm2b90GqlCgg4Xm0b9vPyxcvAhHDh9BUmIi+AIBkhISOA+CxHb97TpKTk6GgYFBeSeLFi6Enq4uXLt3Z/tnbWMDTU3NtxuEu7tFWIADCC1im2o1SQ4g1MpM789FR48cwbbNW9Cjdy/88uuvjQIQSIJ55/YdWLp8Gctx2LtnD554PWHllLdv3mRzIPndsxcvID8vD0KRCCeOH8fGdethaWWF9Rs2oEu3ruw6Lkmx8Z5VotjeuH49ngcEoLCoCN5+vuWD5+XlsbyVqkBm482SG6mxLcABhMa2eMONxwGEhrNti+qZKgQoJrz1183o5OSErdu3VTl/SXsQrl65gqCgIJw/dx7RUVGQl5NjeQZffPUV1FRVGZ3unK/nsHr4kR+Owrhx46CuoQF1dXWkpKTgpx9/xFOvJxg/cSJza3NESZJ99F5PMIyPi2MeHSUlJQYChg4bhiXLl0FOTk6yA3O9tUgLVAQIHQyscMzvKpeD0CJ3EuAAQgvdOElOmw6ARx4e+OnH1Wjv6IhFixexmvOqmqQBwo3rN3D50iWcO3OG5Rd07NQJTx57sTkMHDQI6upqMDMzh76BPmPVIzVGZRUVDB8+HOrqGjAxNWHu7csXL+L0qdPIyclBdnYWTExM0aNnT8z6+KNyAR9OrKn2Tw7JI0dGRjJ72trawdzCnN2ckZGBgwcOYMSoUbCyEieuco2zQJkFOA/Cu/MscADh3dnLeq+EuA7o0Pd6/BgjP/wQRkZG1fYlaYAQGRHBvBe3b93Gh6NHMyBAsWtyU58+eQoZGekMCBDvvpGxEbq5uIA8HocOHkJuTjY0NDWhpqoGYxMT9OrdCyKhEP8cO4aYmBiQHLWurh509fTg3t8dvj4+nNxzDU8KqSDGxcUhwN+feWMcWrfG3O+/g5Ozc72fMe7G98cC0ekJmH2J1Bw7gKoYrod64t8wT/Sx7oxtg7+AsrzS+2OMFr5SDiC08A2U1PQJJJAnQUZGpsYuJQEQCgoK2AFuV0F5z8/XD8FBgcjn85GYkACRUIQPx4xGh44dWblcUGAgcnJzkBCfAKGwACNHjkInp87s/4ODgtmbbnR0FKQghSHDhrIDLfBFIMJCQ9l9UVFRiI+Ng7aONlRV1XDs6FEMGT7slVyL9WvX4a/9+5l08KJlS+Ht9QS7f9tbo00kdUEPFxc89PSUVHe16ocAlVwF/oG/DhyAx4OH6NuvHxSVFNG+fXumbVEmo1yrTrmL3lsL5BbkY/G13+CfGg11BVVk8LOQmZ+NcW16Y3G/GZCVrvl3zHtrvGa2cA4gNLMNaczpkJt42owZdRa6eVuAkJmZiY9mzGAUumvWrXvj4CHPQWxMLOg6epult/627dthzjffMCId+qygQMByFugt17GDIz765BOWkxAVGQmBoAC3bt7EEy8vOHfpgk8+/YSFJEgGOp2XjhvXruHmzZtITUnBiA9HvZcAgcIERw4fxoN79yAjI4tVq38sl0nOzc0FiSQZ1uBJasxnlRurZVkgLisF8Tnp4OVlQE5aDprKajBT14Whmk7LWsh7PlsOILynD8CvP/+MA/v2Y836dfhgxIg6WeFtAMLWzVuw/88/oaqmhvOXLrKwQVWNPBr0Jk+0vL6+vli7ejULLSxeuhS9+/RhX9Pb75MnT0AiTiT1/OOan9DP3R3CAiFEhSLcu3sPtFZeWhrWbFiPwYMHsz7p3nv37mHJgoXsLXnhkiUYMWIE3nUPAo/Hwy8bN+H8uXPMDq3btMFP69aiTZs2nIegTj8F3MW1scDrCa61uYe7pvlYgAMIzWcvGmUmBQIBDuzfj/379mPmR7Pw+f/+1ygeBGLOI7Gnu7fvoP/AgVi7fl291ktVC9u2bsXD+/fRsVNnfPPtN1BSVma5BhQmWf/TGty9dw+dOnfCJ59+Bj09PWhqabJse6KMvnP7Nrp07YLpM2ZAT1+flVUSWNi6ZQuuXLyEoqIipKWlsf/7fv4PCHjm3yJDDASqMjMyIRQJwc/nw8LSorzKwP/ZM+Tl5qGbqwsHCur1FHI3cRZ4PyzAAYT3Y5/ZKumNkZL3/vz9D0ycNBFTp0+vF81tfT0I5LHo7OzEYtplnPxvY34fb2/88fvvkJdXQJcuXRivPyUq2tvbI8A/gAGhkpJidO3aDQaGhjA2NoatnS2e+fkxO1Aoo2evXuz/6XNbW1vG/Hfs77+ZN0JOQR4ZaTz8uHYNYwBsDJ0ASeQg3L51C7GxsUwumXI9XFxdmNeFQBTXOAtwFuAsUFsLcAChtpZ6B66jA5EORjlZOYwa/SETyalPqy1AoDdVOnQp/t+QjeLplKsQ8TICMrIyUFVRhZq6GgtD0BqvXLqMmOhoFkqQk5OHjo4OevbqycooT586hbjYOMgryENRQRE6Otpw69ePeRbOnT2HsNAQyCsoQElREeMmTGD/35CtrgCBPB3Z2dmvzKtv7z7o4+YGDQ11luDp4uoKZWXlhpw21zdnAc4C76AFOIDwDm5qdUsqi+kTM2F9W00AgeKOv+3Zw7gN+vRxw9x539d3qDrfFxERAX+/Z4xcKSwsFNlZ2XBz74dBgwYhMTERvt4+yM3LQ3hYGPMS9OvvjiFDhzKQEBDgzw5bqoogMEWHLJEAxcfHY9GCBUxW2r5VqzrPqS431AYgkH1v3bqFyxcuslCIrZ0dZs/5unyYRx6P0NmpM8diWBfDc9dyFuAs8IYFOIDwHjwUqamp0NXVlYhbn8xFAOHLz/+HeQvmswTHigx60dHR2LNrFy6ev4D5ixYyF76lpWWjW5mSFxMSEpGbm4M7t+/gxvXr0NLSxKIlSxnhD4EFom2+f/8+Lpw7D3Nzc8yeMwfWNtYgpkACGA8fPMSFc+dg16oVQoKC8MuWzU0OEI7/8y8O/nUAaWk8BnDmfv89hgwdAlMzs0a3MTcgZwHOAu+2BTiA8G7vL1YsW45/jv0Nv4AAKCoqSmS1ZbTMG9auY6WI5JLftn0bgoND8PGsWUBJCX7f9yc6de4sMVDyNhMv43hISU7G7C+/AhEzfTl7NqZMm8reskuKi/EyIgIrly1nJZXk8fjk00/ZkPS2TvkMy5cuZbLFlLhIiZ0N1V73IPj5+cHR0bE8mZCYJDMyMzF06FAWNiBuAknkczTUerh+OQtwFmi5FuAAQsvdu2pnnp+fj53bt4Nkd1f9tBqDBg9ukIOEyI5WLV/BYvxS0tLo1bs3+rn3Y2/akvRaSHKbyDvw99GjjKWRWBsJLFBugbaWNpRVlHHk0GGQaJW+vj7+9+UXLPGR8hYon+HgwYM4fOAvVh5IHhTyPEiydXPugl+3bMbOHTvw3D+A2fDy9WtcuECSRub64izAWaBWFuAAQq3M1LIuogNw985dTNtg/sKFGDBwAGQbQEiHQAixHzo5OzEGRnLjX754iQkoaWhqsPg9veWStgIddM2xJSUlMWlpPj8frVq1YpoPVNFAZZIkYfzX/gNISkpE6zZtYWZqykomaT3EoSAsKMCIkSMluiwHWzt0dnKCtrYW2nfogAkTJ3IyyRK1MNcZZwHOArW1AAcQamupFnQdMeHt3b0HrVrZY+DgwQ1SnhceFs4qAAiEnDhzmokllTXi8b95/QYLP5AIFIkpWVlZs4OVOAiaowSwgM+Hp6cnky4GpBingoKCPHr16QMbGxt4PnqE58+fM9ImculHRUaxtUyaNIl5TiTVujk549TZs8xmXOMswFmAs0BTWoADCE1p/QYcm/IE6JCTdO0+xeSfPnmKDevWsfj8mLFjMXrsmCrzGwJfvAAlLpJWAlEfk5tez8AAc76Zw1z4zbERURJxLBQIChAYGIjYmGg4demCcePHs6oBylOga2htaalpcOzQAR9/+olESIdqU8XQHG3GzYmzAGeBd88CHEB49/a0QVfE5/Ph3seNucEXLV3CDvmKVQxVDU7hCDpUKfN+08aNiImOYZwDE6dMYRTHzdGrQACLKJqzc3KY/PS//xxjrIRLV66AS7du4KWnIzcnFz4+Pjiwbx927N711hUbHEBo0MeX65yzAGeBOliAAwh1MFZzvbSkuARLFy/GhfPn8cDzUb0JkGqzPjo0SWnRxNS0NpdXeQ29iV+9ehWrV65COo/HaH93790LJSWlZp2ZT1TM38z+mhEzjfxwFOZ+9x2Tkl62ZCmmz5jOpJHfpnEA4W2sx93LWYCzgCQtwAEESVqzCfoiQp+d27bj7Nkz2LV7Dzp07ABISUlkJhRCyMzIACXymZmb14uWuTYTiYuNxZZfNyM0JIRRAw/9YDgGDBgAdQ0NGBkZ1UqCujbjSPIaAgpEVnTowF8IDQuFvr4Bft38a7kiYn3H4gBCfS3H3cdZgLOApC3AAQRJW7QR+6PDdPvWrYxKeMWqlejZu7fEShkJHHg+8sTpUydZ/f/6jZvQpm2bBl/d3bt3ceHsOZDqoJS0FPr1c2ceka4u3WBoaNjg49c0ADFRhoSEMD2Jsjb7iy9BzJRLVyx/a+8NBxBq2gHuc84CnAUaywIcQGgsSzfAODnZ2Vi0YCHGT5zAGAuJNEcSjd6ON23YiHt37sDQyAhffPUlyzmgUsbGakRqRKWEvDQe7t65Ay1tLVhZWaFjx07o0asnC0U0VsvJycG9u3cZUMrLy0dsTAwjgipr4eHhTHNCEo0DCJKwItcHZwHOApKwAAcQXrOiX1wwCkRCdLNylIR9G7QPOsiJc4DerCXJpkc0xH169MTGX35G586dYW5h0aDrqKlzKqkkQqbw8DDcvnmLVWYYGBniu++/b3CvAglOUfgjODiYqSF++tlnjNa4a7euNU27Xp9zAKFeZuNu4izAWaABLMABhFKjFhYVYvW9o/jN+yKKUQJVeSW4Gdph1YBPYKrV9K7tBtj7KrukBEJ6gyfCoMb0GtS0RgqpUBVEVnY2Nm/6GURDrK6hjkmTp2DSlMlvXdJJYRVKnCRQVFaCSToWpM1AiYhUaUGMiw1pEw4g1PQUcJ9zFuAs0FgWeK8AQmFxEYqKiyAvI/fKG3deQT42PjiGNQ+P49jYxRho44QCoQDfnNuMi7HPYaagijXuH8HNvisUZOWgICsPyaQB1m2bicxn1cqVUFVTw/fz5klMW4GqEl68eIG+/fo16OFXt9XWfDUd6Pfu3mM2SU1ORjtHR6zfuIGxNpKXoTbll0R8FBAQwDQrwkJC2D3LV61k/A6SCtnUvJL/ruAAQl2sxV3LWYCzQENa4J0ACPE5PPAL+LDQMoScjGyl9qLDZOOdwwhMeokpzsNgpKYNW20TKMkrwisuGB+dXA8TNW0kCnKRKcjBILO2+Mh1DJSkZfEiIQxHgx8gKS8TDsqa+LjHeOgpq8NS0wBqivWXTa7LxhIr4a7tO3D16hXs3L0b7SokydWln4rXUmydZI8/mjETLt2745u538LBwaG+3TXpfclJSdi1YycjNiJb9XN3x+Ahg6GhqQlTU1MGGKhEMyMjA+rq6uXg4crly9izazer0HAfOACjR49moYSmahxAaCrLc+NyFuAs8LoFWjxASM/PwvKb+8moxvcAACAASURBVOGbGIYx7fqyA3ughSMsdF6lqs3m58Jm+0wMteyIlII8FPJz0ceuKww0dJGYkYSg1Bh87jSM2SckJRIXo/zBLyxAgZCPvjZOMNc0gK2aLu5HB+BlXjqycjLQRt8S5jomcNK3hJNZw2X400H+688/M/nhVat/hGv37m/9JD99+hTXr17DkUOHMGPWTEydPp2VFL4LjRgbz505yyoh8vn5cHV1hYaGJoQiIWN0JO8A6UeUNSJxIs2I5tA4gNAcdoGbA2cBzgJkgWYJEAoKhTj+4h6eJIZhvL0Lelh3qnK37kb6YcPdI7DWNoG0jAwCEsKgqqQKez1zuBjaYXArFwYavjm3BWG8WMzvOQmiokIEp0QjIicVidlp8Iz2h5aaDvpatEcfC0doKKqy8fgiAZ4lRyAhPwvPE8IgIyuHtka2MFXWhL22MRL42QhKjsTzpJdoZ+oAE1VtTGrbB2YSzlmgOPj4MWOxdv06iYADWtu2rVvxMjwc3bv3wIRJE9/JnwYCCBQ6uHzxImRlZRlNMlU/TJs+HV/N+brBeB3expgcQHgb63H3chbgLCBJCzQaQMgV5EGuNH5f0wIuBnvg13t/Q0VeAVF5mTBQ10UnHTN8230sjDX/EwXKFwqw/s5hhGUm4dOOAyEtJY20vAzE5KYjLScdHrGBKJaTg6WyBk6EeWHf0DkwVNNmYjzUSlACvlCAqMxkJOdn4W7UM6QL+Wyek2y7wtm8XflUU3MzkJCfifS8LFwK8YCskhrMVDQwtV1faKrpIEfIxzHfawjNToa2oho+6zgIo9r1kUh1AVUrUIld23b/zacmG9b0OVUqUOVDc+AWqGmutf2c+Akee3pi+owZ5bd4P/VGdnY2lJWVUFxUjOiYaCbzTCEnknH+YcF8mJg0H2EkDiDUdre56zgLcBZoaAs0OECgX8QnX9zDN1d3o7CkBDqy8tg97Bv0sXOudG10/Q6vcwhNicIw2y4QFImQV8DHX76X4ZuRABOWMDgLQ9r0RGxWKkYdXYY5nYfB6rWQQlFxMQsRCAqFOP3sJv6O8oGxsiZGWXXC8NY9oSin8Mr4xSV0vRCioiI8jvbHdv/rUJSVh7OeJWZ1GAADNR12PV2XLxIgS5CPk8/vwCP5JSAjg5GmbbBy8JeQkZXF5Rf38dOj48gpFKKnngV+HjYHlq/Nr6E39vX+IyIi8O+xf7Bw8aLGHrpBxyPvyqYNG3Dn1m3mIaBKhxchweVjUt4BAaGyMlC6htQuCTQQA+XtW7cgr6DAuCQ++/xziSV+1nfRHECor+W4+zgLcBaQtAUaFCAk5qRj3vnNeJ6egLV9Z2JY217Ydf8YfvQ6AzkAwy07YE6vSTBQ1Ya6ogpkpWXwLCEUX5/aiKGte8Klwhs8O5yLi3Ar/AkOh3ggSySAvZI6ShRVsaz7eCjJKbD7q2sRafHY5X0OL/MyYK+ihc+cR0BHRRNKVXg2eHmZ+MP3Mh6nRIFoef7XcTDaG9tDXkYGSrIK5YcOgZkNj04gvUgIC2VNrOo7Ay6WjpCXlsHiSztwKuoZ9GQVMM91LAa27s5KKNUUlCv1LhBAIlGjdT+tYVz/fdzc6r3n1BcdhsuWLsXNa9fh0NoBx0+dqnd/TXkjrYUOf/L9KCgqsqkIBAJ079YNsjKy6N6zZ729AZSPsWThIibMZGtnh8VLlzK5ZcpLaExCJloTBxCa8injxuYswFmgogUaFCBI/zgY7XVMsbjXZFhrG6OVrhkDAtRi0hOx5dEJ+KTGQK6AjynOQ1liYWhqDC6HemGO83BIV3Pg5xbk47DfVQTn8CBXXIieZm1hpmUMI2V1GKrrQqqaQkQKd1wN84RXWgyyBHnoqG2CrhaO0FJQhom6LiuDrNjIa/A4OgBno/wgEBVAX1YevW2coa+sAVN1PSjLiw+sbEEuzoc9hk9qNLL4OehhZIeZ3UZCXkoG8bx4nAx7jPi8dBhLy2GG61joKqvDTscY2sr/Zc3HxsZi6+bNeObrh1+2bGZSwvVpRAnMKJLXrAXpNYweNxYzZs6sT1dNek96ejrCQkPB5wtw585txlg4ddo0NifyDhCBkqWlpUTmSMDs4IED8PP1RXJyCpycnfHBiA+gqakJK2vrRvEucABBIlvJdcJZgLOABCzQoABBfvVQ/Ow2HYFZyUjNSEIrAysYaujDxdAGXczbsTdoSki8GuSBuwkhLGHQJyoAymqaGGPngo4G1lBRqDy7nPIHCAQIC0XwTwqHb2oUK0MsFOTB0awNO+w76VtDS1m9GjOVICYjCdei/MAT5CFXkAM7XXOoKiijm4ENTDT037g3pyAPN196s9yInNx0GGsYQEtFE601DeCgb1XuFYjgxeJydABbX2puOrqbt4O1jgkcNAzhlxjGvBjJGUmw0DSApZ45nA2sYa2gx9zlFEtftmIlurl0q/cWU+XD/j/3ISQ4GAsWLWxyNsT6LMTj4UNcOH8Bp06cYPkX7R0d0X9Af0Yr3dDt2bNnOH/2LDIzMplHh0Sw9PT00KNXL0b53FCNAwgNZVmuX84CnAXqaoEGBQiKa4ZDsOQCOyT9E8LwgheHkJRoFuO3NbaFjYYBJrdzg5mWuLwuNScddyL9EJWdivvh3ihACRTkFDHIvC3aGtbMdU9v7VT5kC0SsMqCQgCaSupwM3VAZ+NW1dqGEh6fp0UjhZ+NF4nh4BXkwVhdD600DdHLvD0DDRUbES5FpMcjIjsV8VmpCE6OgIG2EcxUtNHPsgN0VTTZ5aIiEZ6nRCEuLwNBSREQFBfBzsASxopqcDK0RZqIj5DUaDyKDYR5thxeHLuFH1YsxsShY+q6l29cn5CQwBIu9fT13rqvhu6AvBynT50q9w7QeJQfQMmURFhEvA9t2rRpdPIiAlreT58iKTEJd+7cQV5uLiytLNlchn3wAeNUkGTjAIIkrcn1xVmAs8DbWKBRAELFCeYI8hDCi0NafhYO+VzBi4wEqMgrYUGXERjRvi+7lLwCMZnJ4AlycDfsCbb5XIKmkhraaplgXOse0FXRqnbNFBJIyctEuiAPgckvcSMmALKy8rBU1sLU9v1YCKK6lsnPQUJeBnh5WbgS/hg8kRBmSqqY2s79DX4F6ofCDrHZqUgX5OJ2pC+icniQlZXDRJsu6GnduXSoEmTyc1m1RA6FR3wvA4oqMFPWwgzHfjDTNQUKCvHX7ZN4IEyAvrI6PnYcgDGO/SAv+2rIo7K5F4pEWL5sGWbMmoVWraoHQ2/zwEjyXjp8z505gyuXr4C+jomJxtFjx+DQujUbhhIKidZYkjoTbzN/AitJiYlITk7GgX37wefzYWxsjG+/+w6tHCRjcw4gvM0OcfdyFuAsIEkLNDpAKJs8SzorEkFUXITzAbfx7a397OseBtbYOnQObPTNxYdEcRGrLojNSMLi67/jWsxzaMjI4oeuo9DZtIycqKS8dJHuKQs/0Nf0pi8sLgJpLex6dBJ3UyNgIKeEWe3d0d2qA2Slq2BeRAl1BGFRIZvn2ee3cSLSF9JSUhhp3gETOg5giZEVx6KviWOhsLgYj6L88IvvFchIS6O9tgm+choGEw1xiSZdR16VPGEBzgXdx6UoPwgB9Ne3xt7xy6Agr4CbIZ5YfOcg4vMy0UnDAH+OXQwbPbFNXm/P/PywZvVP8PX1xelzZ9FOguWQknzYKvZFyZO/bvoZR48cYfF9ojcmCWVKCmxIrQNJrIdyHyhhkkDN9m3bcPHceZYPMW7CBHz/w9tRYHMAQRI7xPXBWYCzgCQs0GQAobLJkybCoss7cS46AJpS0pjTbTT62neFmrwitJXVGc8BeQeOPr2EVZ4n2aHfWlUbI9v0ga6qJtTllaukWi4bryzh8GjwQ6QIchl18gznD6ChqAI1eaUa39YTs1Kx++k5hOTyYKGohsnt3WGkoQ81OQUoy78pQUzJlAf9ruJ+8kvIFRVhQutecDZrA0UZWVbJQGuiFpwcic1eZ5FZLIKBggrmdR+L3jadoSAti19uH8SJKD9oycjhkw6DMKRND1hqGzEAc+niRSxesBC29vbY+PMmickOS+LhIv4GSjIsEAjwxOsJ+AI+RowcWU5QRCCRWnPxELzNmsPCwvDD9/OYJgRJZH/9zTews7OFuoYG1NTUat01BxBqbSruQs4CnAUa2AKNDhDozVFRUZEx21XViMPgZuhjHHxxB8l5mdAsKsL4Lh/AUFULbfQsoK2iwWoUiLxoy4N/4MuLRUFeNjoY2UFfXYcxHVKCYU0HD1Uz/Ot/EyH5GZAqFKGjvhULIRgra8CiNC+iqjkSN8OtCG88TY0Cj58DO1VtdLPqCA15JVhqGDDvQsVGh6FPfBAuR/sjWyiAWnExelg7QU9ZDRYaBuXVHcTeeD3CB55JL5HBz2beh5ldR7CSyeCEcKzzOI5ckQAv5x6BYokMFv4wH+0c22PK1Kl1Ooga+LliRETnzp7F7h07mfqijY0NS5ScPedr5pZ/VxtpPRDfxNOnT5CclAx7h1YYNmwY03ewb9WqRvZGDiC8q08Gty7OAi3PAo0OEKiEj5gMtbQ00bWbC4vdVneQZ/NzcJQYCokWOT0B+mo6MNYyZFUGbrZisiVRoQgPInxxNz4IsVkpiEmKgqWhFYyUNdDZ0JblL1TXKIwRnBIFn5RIJOZmIDc/C21NWkFVTgHdDG2hp0rsi1W3xOxU3CAWxoJ8pObwYKqpz5IjuxvZwVzzTaloCi/cjvBGRG460rPToKWsCW0CP5qGaG9kW+5ViMlIxO24QBZiieDFwVBVm+Vf3Iz2x5PPdkC/NBGyOTx2Pt7eII9Bl65d2XQIIPy8cSPbWzoY3fr2lXhCX3NYd3VzCA4OxrnTZ5Cbl4vIiEhmB9K7cOvrxvgWKmscQGjuu8rNj7PA+2OBRgcIvbv3wIdjxoAY8CIjItjbZGdnJ4wdNw4KCq++dVfcBortUwVEIC8GgclRuB32BBaGVjBT1cZHHQbCRs+MXZ6Rn4V7kc9Y7J4SHJP5OVCQV8QgszYVchaq3uAcQS4CUqORLSqAb0IIMoR8aCmpo7dJK7iYtoFMNdwMdPCH8uKRxM9CYOJLROXyYKimAzt1XfSz6vwGUKH8iNjMZETlpCEhKxVPYl9AT8uIAZtBVp1grCGuPqCwyM1IX0Tm8LDR/SNMOrMRJ8cvb1KAQDF3AgUXL1xEdnYWQoJDYGllhR27dpYbl6SUayO5/K7/uFEyo5+fH5ISEvDg/gOW5GhoZAg7OzuWt6Ct/R8A5QDCu/40cOvjLNByLNAkAGHbzh3M3UwSvcEhITiwbx8KRYWMue6777+Ha4/q1QrzhHxEZSQhqyAfB55ewL2EEFYJMddpOKZ0HszeWskrkJTDY+7/26FeWOd5Chok4qRpiGlt3cqpk6vaKkokTM/PQUZBHhNkuhzpAxGkYKakho87DoJJBU2IyvogvoTk/GwQ4DgTeB+xghyYKKpiWnt32Ou/SewjLBQiITcd2QV83Hz5FAHp8awSYoPbDGgpquJFWgz8ebHY5P4Rhh1b0eQA4dqVK/jpx9UsUW/ajBlMWllZRUVipEUt50eobjMlAamU5BSk83jYsmULcrKzGWvjnG+/haOjI3q6uuKhp2fdOuWu5izAWYCzQANYoEkAwvZdO9GhY8dyVzS9jaKkBL/88gt+37OXvXUSN/43c+dCS6vmksbikhJcfHEPs6//xg7lrjqm+GPUAjgYWZePUVRSjLTcDPxwZReOhXhCVVoG3zoPRx/r/2R/qwMLNAbNc/ejEzgXFwgdOQXMaNMH/e261ZjYSB4A8oBcCnyAv0I9kFcoxCizdpjVZUQ5C2PFsWks+rP47iF833UUY2xsSoBAEsmrVqxgzI5l+QN0sBUWFbGwAfEU1JTv0QDPbovvkkIyJDX92969OHTgL/Y1cVZwAKHFby23AM4C74QFmhQgEFtdZkYGc01TpneZq/WZ3zNs37oVUVFREAmFWLxsGexb2bNEL6K9pQOpqkaH+PL/t3cfUFFdixqAf3rvHaRZEEGw9xYFe41oNCaaWJLcm9hiiulqTGI0ttiSZzQ90dh7iTVW7IoFUQGld6R3eGtv0atGHZAZmMH/rHXXu0/OnLP3t89cfs5uu77D+shzMCorwyj/AAQ0bAdrQxM4mtnKaYeif3xjyF7MPrkZmYV5cNUzRH+fznJxIytDM7lJ0/3TF+V0gfuWbhZdA2LPiL/CjiIuNwt1DYwxrFlvWBqayP8Y691ZevnBa/yvxOk5GVh0YgPCc2/DXs8Ig7zbw83KCdYGJnJBpruf++Dgr5jSegDsjS2rPSCI7p/58+Zj3549sLWzk90/v//5Bxwc/z2molZ8E9SgEteuXcP6tWvx4ccfq0FpWAQKUOBZF6jRgCCm6J0IPiH/MhfLCtdxdUVWZhb8/P1kEBB92H/8/jtOnTiJrOws2Ns7oGOnjvKXVMuWLZ/Yvy26GI5HhuDPKwcRm5UGrdxMDG7RV86EaOLgCQdzG7lUs+iuWHTkL5xKvoWsrDTUtXKBs6U93Eys4G7tdG/A4OMelNyCPGy8cgjXslNRWJgnuzDq2rnDxcQS9WxcnrgnhFhg6VjURZxIjEB8dhrqm9liYrsh9251JyAMVPkbBNEnLqYjNipfoEgU4J3Jb6OgIB913Nww/MUX2XXwrP8vBetPAQo8cwI1GhB279oll68VmwiJAVt7dv+N5OQkuXBORHgE/Jr4o0mTJvL19a1bt7B/3z7Excbi0qXLaN68GczMzNGufXu5Tv6TXnGL6YzrQvbhRnYabiZHwVjPAM7WzmjnWB89vdvJRhdLIp+KuowjsVcRdTsJV6KvwNXeA3ZGZmjr7FWh1RsjUmNxNjECcTlpSM5Mk0sqG+vqo6NzQzg/Yl+H+5+28ORovHVgJXa9ML1aAkJsbCz2/r0Ht2/fRnh4uHwr88WXX8C0fM6+GFhX3TsZPnPfPlaYAhSggBoL1GhAEH+5XgsLg6WVFbZu3gITUxOMHTdOblEs/t3GxhZ//70b+fkFGDtuLOzt7eXythcvXpSDvE6eOClH0ru4uKBps2YY9uLwJ06lE10DkWlxCE2JxpWkm9h29RgcrRzlssZvNu8DX6c7+z2IXRmDoy4hLicTe8OOIyIjEfr6Rujp6ot27v6y8+Bul8OjuhFyCnNxNTUW2cUFOB11BdG56bAxtpCBpJO7Pwwe0YWRkZeNYVvnPSIgKL+LISY6GkuXLMG2LVvRqk1rDA4Kkm9n/Jv4V8uOhWr8fWDRKEABClCgXKBGA8LdVhBr7ovNcAYPGoSPPv4Imzdvxthxr6Ft2zZISk6W4xCuXLmCdWvXYtjw4egWECAXWhIj6MV0SbEd8IrlP0CMEBfL9H706Sfo2vXOvg6PO8Tr/disVOQXF+L74xuwNfIsLAxM8J8mPTCmdX/5S1ws2JSam4HbBTly86jpR1ZDR0dXTq18o0l31HnEGgcP3y+zIAe3C3IRnhKNDdeCkVFcAHs9Q8zp8cYD3Rdio6lHB4SqdTEIox9XrERA98B7SzCLZYJTkpORX1Agx3XY2NhwkCH/J4ECFKAABR4QUIuAcLdErZo1R/DpU/J19+VLlzH1vffQ0NtbLiEsuhDEv4uBi6J/3MLSEouWLJZTI+8fRS/WxhcDHMUSxv0G9Mc7770n3zxUZKT9/msnMH7397iRkYQGxpb4a/h0eDvWldcSezCIQ4xZeGfbIvx45RBMtXRkUOhWv5Uc/Hh32eQnPWPiLcaYDV/j1abd0bX+nUWFxKHMgCACgBi7sXjRYmRnZkq7wJ49sOy77/j4U4ACFKAABSokoFYBQfxSE1v8vjp6tFxxTsxssLO3x5q/1kDMu3951Ci4ubvJUODo6CgX6RFbBA8bPkwu5WtoZCS7G8Qh1sZftniJ/L8FhYWYMHECGnh5wdrKSl7zSTMhxB4PX+/7CRtunodBSSn61W+FAO92cDA2l7MN7s6EEN0Pc09ullMrLUpL0N+nC+xMLWFrZC6nL4pBkI86Jm1ZgEE+HZQSEPLz85GSkiIHdZqamsrbif9/9KhX5JTE0ePGolWrVmq/AVKFnlaeRAEKUIAC1SagVgHhbq3FL/VZX3yJrgHd5NbFYoR9m7Zt5YC6DevWw8PTA56ennJFupatWsnNgNatXQd7Bwc0a9YUkZGRckyC+AUpui82rF+PE8HByMzMlH3sHTt1goODI1q3biUX93ncIWZXnI8Nw6rLB3EzMwVFWeno0yQQtsZmaOlUH66WjvKv89zCfPwQvBEnU24hIzMVdkbmcmyDm4klvO08/vX6/t8BoQyVGYMw8LdPMaVuTxRn5iE+Lg4HDxzE2NfGoWevXtX24PBGFKAABShQuwXUMiAI8oULFqDLc8/hdvptxERHwcvbG1cuXYZ3I280b9FCDlCMjIyQASI0NBR169aVIeLSxYu4dOkSvLy8IOaVi5DQuUsXOY8/Pj4eB/cfQGxsDM6fOy8/Ixb66di5E9q2uzOb4XFHdn4udocdw7WsFFxPvAkxhsHVtg7aOtbDAJ9OcglmMbXyUtwNHI25gp3XghGeGoch3h0QUL5nxN1rV/UNwqiPxyPheJjcEEqsYCjGEHTq3Fl2x/CgAAUoQAEKKENAbQPCubPnsHnTRhgbGeOtiRMg+tXDb9yAvoEB9u/bj9SUFEx59x35ul+8cRBvBg4dOoSI8HC5AqOlhQXCwsJkd8Tp02dw4vgxTJoyRQYHcS0xS0IMahTbEIvpk6JrwqexL14eOVKOWXjcIRZZislIRGhKDK4l38KGy4dhZGwGCwMjvNtqEPxdvLDkxGasOLsd1rr60NfSxSfdXn3gclUNCEO+fR9v+veBh1MdGQo4HVEZXwVegwIUoAAF7hdQ24AglqEVW+eKJZgHDRgof2mPe/11dO/RXXYViK4D8bZgxfLlGDL0BTkgMScnB4WFhbhx/TqWLlmKvv37ISgoCIUFhcjJzUFCQoIcwCh2HBw5apQc4yCmTaanpeNmZCSWLV0qA4aYIfHpjOno3r37E5+WwpIipOZmorC0BN8dWYOfQw/DUM8A7oZm+KrXf7Dlwh6ciY9QGBDEVMnM+6Y5KlxJcdU0rB9Ws5s18WtEAQpQgAK1W0BtA8L97I0aeKHfwAHybcHO7TvkiPzPZ86Up4iug6hbUfjqiy+go6uLufPnyQGI4t+TkpLkv+fm5uGbeXNhZGgEPX09GTDmfTMXYaGhWLhksXxFL/Z/uLvz4I8rV2LhvPly7ED7Dh3kmwqXOnXkNcU0yscdN9NiMXnHUgT5d8NI/0B8sn0RgmOuKQwI4nrKnMVQux9Z1o4CFKAABapDQKMCgomJCdq0aYvefXpj/bp1WLdmLZ7r1hVdunSRgw3FeIO9e/Zg1Z9/ym10G3p5QVdPD66urgg+HowfV6zAgEED4ePjI//dzc0NVy5fxvfLvkOnLp3RvHlzaOvoyGWFRViIiYnBsiVLIDYrys3Lw+gxo+WYB2sbG9kl8XBYYECojkeW96AABShAgeoQ0NiAIHCio6Mx5pVX5GBG0R3RLSAQubk56Ny5M7S0tbFl02a5OqMYjChmNoi3AWJMw9YtW+SbBN/GjXE97JpcTVAsGCT2hijIL5BdEFevhqJp06bwathQ7gmx5+89CD5+THZH5OTmYugLQ9GhQ0eYW5jfaycGhOp4ZHkPClCAAhSoDgGNDwhi0aQvvvoSC+bNR7sOHWQ3RGO/xnKDJ1d3NzmDIexqGEIunEdjPz85e8HW1hbdAgMQFRWFM6dOw7tRI/kmwdTMFD169kRiQgKCjx9HvQYNcDMiAtDSQp8+feTiTGJg48oVK+TnZsz8XH727sGAUB2PLO9BAQpQgALVIVCrAsLEyZPQyMcHubm5WPXHHwgJuQgLC3NkZ+dg6gdT5S94MYBRdCOcPnkKp0+dgviM2EUy/EY4dHR1cOH8eezfuw/jJ06Qbw/Etsfnz5+XayfUqVNHtsnRI0cwf+48zJg5U4YRBoTqeFR5DwpQgAIUqE6BWhkQBODOHTtw8MABNGzoje+XLcPyH1fis48/Qb/+/TDq1VflFtNiuqPY9OmDqR+gTZs2eOO//4Guji7y8vPw4dSpKCoohIenJ3z9/O5sR82AUJ3PJu9FAQpQgAI1KFCrA8I/Bw/Cz88fC+fPx6lzZyVzclIS5n7zjZz58Nn0aXL1RbFWwratWzFvzjdo1KgRPv7sU8z5ejaWr1whd5YUXQqB3bvD19e3Um8QPt6+CCfuzWL43w6QD6+DUOlpjqunYf0LnOZYg98b3poCFKBArRd45gKCaNFdu3Zh4/r1OHLosFzzYMLkySgrLZGzEsaMG4fLly7hu2XLsGTZskc+AOxiqPXfC1aQAhSgwDMv8MwHBBdXV0x6ezJyc3LkdEhFSy6LJ4YB4Zn/3hCAAhSgQK0XYEBwdcUnn30qp0ZW9GBAqKgUz6MABShAAU0VYEBgQNDUZ5flpgAFKEABFQowIDAgqPDx4qUpQAEKUEBTBRgQGBA09dlluSlAAQpQQIUCDAgqDAgPTnP8Xyv+e7vnMmTct5sjcGdK5AcHf8WU1gNgb2yJyylRCEmNxjcBY9CX0xxV+JXgpSlAAQpQQAgwIKgwIHA3R37JKEABClBAUwUYEBgQNPXZZbkpQAEKUECFAgwIKgwIFe1i4EqKKnzCeWkKUIACFHgqAQYEFQYEdjE81TPJD1GAAhSggBoIMCAwIKjBY8giUIACFKCAugkwIDAgqNszyfJQgAIUoIAaCDAgMCCowWPIIlCAAhSggLoJMCAwIKjbM8nyUIACFKCAGggwIDAgqMFjyCJQgAIUoIC6CahtQCgtLZVW2traaNTAC/0GDoCJiQnatGmL3n16y59FR0fjnclv44uvvsSCefMxcfIkNPLxkT/buWMH/jl4EH5+/lg4fz5OnTt7z37Xrl3YuH49jhw6V/5KdQAAIABJREFUDLHds6p2c3xwmuOd1RHF8fBKihWd5nghNQozOr+EoLVfYNPwGbA3sVS354nloQAFKECBWiKgtgHhu6XLUFBYiMFBg9EjIFCGAgtLS40KCMqa5mhnZI7g2KtYemoLXC3s0MOzKT7o+gqM9AxqyWPIalCAAhSggLoJqG1AWLhgAQICAhARESH/0rextUVsbCxat2mNYcOHQ19fX+3fICgjIPR290duWQlOR1+BrbktxrXog8C6zaGldedtBA8KUIACFKCAKgTUPiD4+fvLeicnJ+PQwX9gbWODrMwMREfHoFXrVpg75xu17WJQRkAoyE7H8816ws3SHkHe7WFmaKqK54DXpAAFKEABCjwgoNYBwcvLCz179YKOjs69QpeUlODG9etISUmFto42pn/2GQYHBeFEcDDee/99tRqDoIyA8F67wRjYqCN0dXT56FKAAhSgAAWqTUBtA0JmZiamTJqMkuJiaOvq4stZX8HR0fEBmMLCQqSnpyMrKwsL581HQX4+vp77DWxsbNRikKIyAsLaYZ/C1dyu2h4I3ogCFKAABSggBNQ2INxtngF9+uK7H5Yj+Hgwfv3lF4wZOwbdunWDnr4+DA0N/9WKhw8dwicffYw6derA1dUV3o0aYcmiRTh9/ty9c6trFgMDAr9kFKAABSigqQJqHxAE7IdTp2LY8BfR0LuhHIuw5NtFMDM3x6ujRyMzMwPOLi6wsrJ6oA3EeT+uXIm42DhcDQ3F13Nmy8Bga2eH6goIT7ubY3ZhLhKy07HozHZsf/lLvkHQ1G8Xy00BClBAgwU0IiDk5eVh65YtsLW1RbPmze+FgcOHD+PEseNo2bo18vPzYCmmQbZt+68R/qdOnsTmjZsQ2KOH/NmRw4dx48Z1nAw+odJ1ECr7BmHolrl4r9UARKUnIrMwFy7WzvgycAysODBRg79iLDoFKEABzRTQiIAgaLOzs3HmzBkkJiQgMDBQzma4e4i3BcHHj8PK0gp5+Xm4cP4C+vXvJ7sX7j9yc3Nx7OgxpCQn4+rVq1i/di2srK3xxayv0Llz5wq34NEjRzB/7jzMmDkTjf0a3/vczbRYTN6xFEH+3TDSPxCVDQhBm+dgoHsT9PTpiPZ1GsHHoS60OZ2xwu3CEylAAQpQQHkCNRIQ/jv+Lbw4YkSla1FQUIBrYWHYtmUr3nn/PbkWwsPHrZu3kJSUBLE64ZZNm9DAywtDX3gBxsbG904tKytDQny8XEchMzNLDmj09PDAS6NG/qur4lGFrGhAqGwXw/Ct8xH63+/hYe1SaRt+gAIUoAAFKKBMgWoPCJs3bcInH34EE1NTdOzUEVPefRfOzs4VrpNYgjktNRUvjxiBXXv2PPZzxcXFyMnORmlZGZYsXowD+/Zj3sIFaNas2QOfEdcTsyC2b90G8d9fHjVSYVkqGhAq+wbhxW0LkPvRFoX35wkUoAAFKEABVQtUe0C4W6GoqCh8Pm06Lly4AEMjI0z/fAaaNm0KAwMDueeCopUCxXoIz/cfgD/+Wg0zM7MKOYWEhGDWl1+iQ8dOCBoSBGMjIznYUez3sHbNGmRlZmLMuHEKr8WAoJCIJ1CAAhSggIYL1FhAuOtWVFSEdWvXYvfOXXKcgVhSediwYbC1s0X9Bg0e6Bp42FrOaFi0GGPGjZUzFMQv+oocGRkZcspkQkICxowZg9u3b+PokaMwNTVhQKgIIM+hAAUoQIFaL6DSgKD/RV/8PuAdBNZrAWsTC4WYiYmJWP3nKvmLOy42FmKZZTs7OzkQsEXLlo/8vNirYd/evWjfoQO8vb0fWHVR0Q3FfTZv3Igflv8AHx8fvDRyJHr26qnoY+AbBIVEPIECFKAABTRcQKUB4btTW/H3lSPQNzKFp4U9ghp1RPM63tDR/t/SyY/yy8/Px4Xz5yEGHF68eBEXQ0Lg29gX7h4eGDBgABydnB74mAgJx48dQ/36DeRmTo/rngi5cAFHjx6FeIPQrFlzeDX0wq2bN5GSkgI3N3d4N/KGubm5wiZVdkAQgyZ3Xj2KJZf2cwyCQn2eQAEKUIAC1SGg0oAgfvFFpMUiIScDh26cwvbwMyjR1kGAQz1MDRgDMyMThXUUr/9vRt5EclIS1vz1F+Li4mRXwNjXX0ePHj3ufT4lOQXHjt355T9y1CiIpZr/OXAA27dtg66uLnr16YNWrVrhdkYGigoLYW1tA3sHe/mzyh7KCggdPZtjX/gZ7IkKQVlBHuYNnIKunk0rWxyeTwEKUIACFFC6gEoDwv2lLSopRkFJERIykvHmulkIzkiAl7k9ZnV7Fd282kBHwfgBETbENEcxOPGP336XyyeLMQdiR8fPpk+Hq5sbxMyFkydOYMH8BRg9dgw6dep0r8tBT08P4j/KOCoaEB6c5lgmVraWt5+0ZQFsTCxwIi0GPhYOWNDnLTRzaQhjfUNolZ+jjHLyGhSgAAUoQIGnFai2gPBwAfOK8rHq7C4sPr0Nifk5GODmhw97jIOutjZsjMxhqPvvNQ4evkZaWho+nz4DZ06dgraODsZPnIj27dvB2NgEFpYWFR60WFm8igaEJ01zLDYwwLfdX0Ngw3aVvT3PpwAFKEABCqhcoMYCwv01u550C3OPrkF0XgZy8rLRp34r+Dk3gJeVM+rauChcTVDMhNixbTv+3r1bdjGITZwGDwmSSzN7NWwol2BW5qGMgPD+cyPwUou+yiwWr0UBClCAAhRQmoBaBIS7tSkuLcG+66dwIOYKbqbGoqy0BE3reMPR0Az9GraDnZm1woqLgLB61SokxCfgZmQk3Nzd4ezshCZNm6JtO+X8tc6AoLAZeAIFKEABCmi4gFoFhPst4zOSERx3DVmFudh6fi8K9PThbm6LIO8O6ODZFHo6Tx5cWFhQgNDQUDlL4fLlKxDbQDfyaSR3fgwaMgQeHh5P3XQMCE9Nxw9SgAIUoICGCKhtQLjrJ/ZUiLmdiMTcTByPOIc1Vw4ju6wU3Rzr4rPub8DCWPEqimIBJrFyY8bt2/j1l19xPSwMpqamciZE/wH9K91UDAiVJuMHKEABClBAwwTUPiDc7ylmMpSWlSIxMxVjVs/A/pSbcDe1xpyur2Kgf1doayleSVHst1BWWop169Zh9lezkJOTA9/GjeU+DZ6enhVqPgaECjHxJApQgAIU0GABjQoIDzsXlhRhy6V/sPDEJsTlZaKTQz18EDBadj84mVrBRN9IYdOILaBnTJuOs6dPQ0tbGy+NfBnt27eX+zvYOzg8ciZERQPCw7s5FhQXIiUvCzP3/YSve72OQX7dFJaPJ1CAAhSgAAVqQkCjA8L9YJEpsVh8ajOis9PkWgtd3f3kAEcvKyd427lDV8GYBbGGwqF//sGuHTuRlJyEgvx8vDB8OGxsbNDIx0cu+Xz3qGhAuDvNcUrH4biRHoeLiZG4mh4LJ0sHrOg7CeZGpjXR5rwnBShAAQpQQKFArQkI99f0SMQ57Iu+jJj0BKTlZKChoyfsDUwxokkA7M1sFKKkp6fLPRrEZlA3rt+AmbmZ3AzKv0lTdO3WtVJ7May5egL+TvVQXFoMH6f66Fu3BTp4NlFYBp5AAQpQgAIUqEmBWhkQ7oKmZKfjXGI4Dtw4g0WntqKDe2PUMbXG815tEejVBoZ6Bk+0F28VwsPD5XTJS5cuYf+evfCs64mUlFSItRdmzJwpN5K6e9xMi8XkHUsR5N8NI/0DId4grLl2Cp8HjoG3rSt87T0Uzr6oyYeB96YABShAAQrcFajVAeFuJZ/7+V0U5OfC0tgMGXlZSMrNgK6+Ibo61MecfhNhZqh4TwgxViEpMRE5OblYtnQJCvILMO3zGfLNwpMCQmhKDNaNmv3YDaT4KFKAAhSgAAXUUaDWB4Rv//kD04+vRQ+PZtK/uKQEISm38GGHYdhz+RDWR1+EnaEpvur0Eoa36A09HZ0KzYZ4VGM+6g1CeFo8Vo2cpY5tzzJRgAIUoAAFHitQqwNCfFYqxmyai7KSYlgYmkJMk4zMSISbuS3m93oT7tZOKC0rw+6rxzDn2Fok5WejqbUL3uwwFKYGxvAwt4OFkeJ1Fp70BoEBgd8+ClCAAhTQRIFaGxAKi4vw5T+/4a+QA2hk7w59HT3kFRUgJisVH3YZgaG+Xf7VXrG3k/DjuV2YHbweZjr6GO7bGS1dfeVMCDHQ0EDBBlJ8g6CJXwGWmQIUoAAFHiVQawPCqdgwvLvre+hp68Cm/C1AWHIUGjvWxf8NnPLENRJcF7yEBqY2SC3KR2FxIeyMzdHMxRsuRuZ4uWkPOFvaP/JpYkDgl4wCFKAABWqLQK0MCJn52fhsz0rsijyPxrau0NHWQUlJCa6kxWD1kI/g71T/ie0nAkILW3cY6BlALG50LikSr7fqj6tRV3CrIAfOplYIatAW/Rt3fmAmBANCbflasB4UoAAFKFArA8L11Fj0/HUqfG3dYFw+lXFHxFm84fsc5g58W2Gr3x8QSkpLZEBYOeg9NLH3QEZhLvbeOIP3962EmYEJOtl7YkH/t2FnZoX7A0JB9m1MPfwnPm83BG91HqHwnjyBAhSgAAUooE4CtS4giIGIzRa8jGJdPfja39lbISk7DWeSbyHzw00Vsn9cQHjOw19+/nJCON7aNBe5ZWVIzs1EXF4GjHX18ZpPJ1xMj8e+6Csw1NVD2H+Ww+kx3REVKghPogAFKEABCtSQQK0LCNuuBmPslnl4zu3OAkaii2B/9GVsDfoYXbxaVYhZUUAoLinG3GPrsO7yP6hr6QgtADdSYnAzN10uiBTg6ovJHYbC2tiiQvfjSRSgAAUoQAF1E6hVASEqLR71lo1FR4cGsDezltahKVHwsnPDumHTKmyvKCCIC/18dhcWHF0DTysnObsht6gAWSWFWBP0YYWWc65wYXgiBShAAQpQoAYEalVAeHPLAhy4eQH+5V0LybkZiL2diA0jZsLXsW6FeSsSEK4nR2HyzqUoKi2FlaEpCkqKcC01BpPbBckBjTwoQAEKUIACmixQawLCxpD9eOvv/0MbpwZyzYOS0lJcTonC2Oa9ML7t8zBUsIbB/Y1YkYBQWlqK17d9i7DEm3ASbyvKyhCVmYwu9ZpjduBYTX4mWHYKUIACFKAAakVAEMsnj9k8F6KLwcHUSjZrXHY6DLS1sKjPePg41qtUU1ckIIgLLju6FotObERjxwbQ0dZGfE46zPQMsaj3W6hn9789Gip1c55MAQpQgAIUUAMBjQ8IYtbCwmNr8e3RtXJ9AyM9QxSWFCE0+RbGtOqP9zu8UGnmigaE7PxcdPttKuoYW8pdGsVKjSFJkZjZfazczZEHBShAAQpQQFMFND4g3EyPx9S/lyM+Kx1O5W8PxB4MViYW+HnQu7B6ipkEFQ0IotH7/v4RsnKz4GRuK5+BsLQ4jGneE/9tNYBbO2vqt4LlpgAFKEABze5iEFMYFx/fgGWnt6GJnQf0dfVQWlaKM/HX8VXAGAxv8nR/xVcmIKw9txsT/l6OLu531kiIzkyBvrYOfgqaKmc48KAABShAAQpoooBGv0GIzUxB/98/krMIbMvfFJxOCEdbx7r4bdg0aGuJFQoqf1QmIOQV5sNh/ovo7toYujq6EJtEnU4Mx+YRM9FcwZLOlS8ZP0EBClCAAhSoHgGNDghDf/sI51Oi0MyxPrS0tJCZl4W/oy8jcsKPcKvCX++VCQiimXoun4D4/Cw0Kp9eeTLhBsY36423Ow+HtpZ29bQk70IBClCAAhRQooDGBoS424lo9N0b6OHR5N4v4f1RF7Gw2xi81LJPlYgqGxAikqPQdMUE9PZsLu+blJWGC6lRSHhvLfR1dKtUFn6YAhSgAAUoUBMCGhkQ8oryYTd3GBpbOMLd2lm6RabFIakgBzcm/QJdbZ0qWVY2IIib2Xz9PNo7N4SxvpG8995bIbg+4Ucut1ylluCHKUABClCgpgQ0MiAsPLwac05sRKc6PtItpygfV1Oi8UfQR2jjduffqnI8TUCYuH429sRchr/DnTUXguPC0NezGZY9/15VisLPUoACFKAABWpEQOMCwrmYULy4cQ7qmdvD1MBYzlq4lhaL1k4N8HXPN2BjYlllyKcJCJcSItDj94/QwbkhtLW1kZmfjT3Rl1D86c4ql4cXoAAFKEABClS3gEYFhOLSEry/+3scjAxBfSsnOTAxLT8bOYV5mNvzDbR391OK39MEBLH2Qt8f34GliSXsytdjWH89GCdfmYvmbr5KKRcvQgEKUIACFKguAY0KCKsu7sf0fT+hnpUzzAyMIQKDWDGxR8M2+DpwXKX2W3gS8NMEBLEmw7LjG7Dywh742rrJy19JjICdhR32vzq3utqT96EABShAAQooRUBjAsLtvCxM2/8zjsdchaeFvax8TlEBckoKsWrwB3AsX8lQGSpPExDEfbdfP4m3dyyFv507dLR1UAYgJDUKV99aqYxi8RoUoAAFKECBahPQiIAgxhmsv3wI7+z6Hk3tPWGkbwixB8Px6EsY27Qnpvd4TalgTxsQLsZdx6StC1CqowcHU2tZpmOxV7Gox+t43q+rUsvIi1GAAhSgAAVUKaARASEtNxNBf3yCnNJieFo4SI9bGckw0NXFwTEL5FgEZR5PGxDEKoqzDq/C9mvB8LBwgCiV2CvCxcYZG174TJlF5LUoQAEKUIACKhXQiIAw5+DvWHJmO1o7e0FHSxtieeOdty5g17BpCPBqo3Sgpw0IoiArTm3D0uAN8LBylntDZBXmo7CsBL8//75Su0GUXmlekAIUoAAFKHCfgNoHhJSsNPgsHYdmjvVgaWgqi34m4Qae92qHb/q8qZLGrEpAuJEchQk7lqAMWrAwMIYYvHg9LRYT2wXhjVb9VVJeXpQCFKAABSigbAG1Dwgtlr+Fwrwc+Dh4yrrHZSTjcmo0rk78Gfbl0wmVjVKVgCDGS7y6aS6i0+Jgb2Ilx0pEZ6Wgu1drfP7cKGUXldejAAUoQAEKqERArQPC1osHMGLbQvQp3+NA/LIVOyWuGDAFXes2hZbs5Vf+UZWAIErz7cHf72xB7eItx0fEZqfB1tAUC3v/Fx42dZRfYF6RAhSgAAUooGQBtQ0IKTm30XfVpzDT1oeNsbn8SzzidgKsdPXxQ9AH8Cjfg0HJHvJyVQ0IYlfJTr+8h/rm9nJfiPyiAlxIisScXv/BC75dVFFkXpMCFKAABSigVAG1DAjiNf2sA7/hl5B98LP3hK62ttxvIT4rDdMDXkH/hu2VivDwxaoaEMT1+vw6FZl52XApX7PhSmoMXm/RW45D0NfRU2n5eXEKUIACFKBAVQXUMiAcj74il1Q20tGHlZGZ3G8hPC0OPo51sbDXf2GrhP0WngSnjICwOWQ/Rm//Ft3Lu0diMpOhraWFP4Z+AjfLO1M1eVCAAhSgAAXUVUDtAkJOQa5cS2Dz1WPwsnaRr+gLSooQl5OORb3eRNtq2NdAGQFBzF6wmD0YfdybQk9XD0UlxTiZcB27R82Gr527uj4PLBcFKEABClBACqhdQDgeE4pR62ahvqUjzA1NZCFPRF9GZzdf/Dz0U7lToqoPZQQEUcbey8cjOjcTvo7lW0DHX8OUlv0wqdOLqq4Cr08BClCAAhSokoBaBQSxK+Mrq2fgUkYimth5yIrlFRUgJDUaEZN+gbaW6sOBuKeyAkJceiIa/d8b6OXRTNYlOSsNJ5IikPPx1io1Gj9MAQpQgAIUULWAWgWEg+Fn8eKGr9HexVt2LRSXFGNb5Fks6foqXuswVNUW966vrIAgLug4ZwhaONSDqYGxvP7umxdwffwK2JXv1VBtleKNKEABClCAApUQUJuAkJWfA59vR8HV0hGu5SP/xQqEYjGkXaNmV6JKVT9VmQFh0sZvsCf6Evzs68qCnYq7hq7uflgZ9EHVC8orUIACFKAABVQkoDYBYdKOpdgaegStXLxlVdPyMnEuMRIHRs2Gn3MDFVX/0ZdVZkA4ExuGAauno72zl+wiyS7Ixa5bISj5bGe11ok3owAFKEABClRGQC0CQnDkBfRd+zk6OHnBSO/OVs4Xk2/htZZ9MKHN89DT0a1Mnap8rjIDwq30BAz85X1YmVrBvrxbYd214zjy8tdoV7dplcvKC1CAAhSgAAVUIaAWAWHg6mlIy0qDs5mtrGN0ZjKycjLwx7DP4F/Nbw/E/ZUZEAqKCrH0xAb8dGEvfGxcZf2uJd2EkYkFjo1dqIo25TUpQAEKUIACVRao8YCw5MgazDm2Ds1dvGCgc2e9gOvpcZjcYSjGNutV5Qo+zQWUGRDE/TeHHcPU3T/A19ZVDr4Ux5X0OJx9fWm1vx15Gg9+hgIUoAAFnj2BGg0IMRnJmLL7e6RkpcPOxEJ2LcRmpcLS2BRLeo+Hp41LjbSIsgPC+dgwTNm+GNDRg135KpCn469jbuA4PO/3XI3UkTelAAUoQAEKPEmgxgKCWGlwcfBGfH9qq1xZ0FBXH8WlJRAzF97rNBwjm3SvsZZTdkAQdZ1+8DcciDgHN3M7uQflrfR4NHDwxG+Dp9ZYPXljClCAAhSgwOMEaiwgXE2JwrhNc6GvpXPvr+rQ5Fuoa+mI1cOnwVDPoMZaTdkBQVRkWfBG/N/JLahr4yI3a8ooyAW0tfHzwHfgaH5n7AUPClCAAhSggLoI1EhAKCwpwoc7lmLDjdNo6VBPLp9cWFKMI7GhODZ6PhrYudWojyoCQnhyNP6z/VvoaevCTN9IbgF9Iy0Wb3d4AeNa9q3R+vLmFKAABShAgYcFaiQgZORno8Hi0Wjv1BAGune2Pt4ZeQ5v+j6HrwdMrvFWUkVAEOMrXlw/C0mZqbAzNpd1jMpMRr9GHfAx92ao8TZnAShAAQpQ4EGBag8IxaXF8PpmOIwNTeDrcGd1wYTMFIRnpSDmnVVq0T6qCAiiYvMP/Ibvz+5As/LFoKKzUuBt44rZPcZx6WW1aHkWggIUoAAF7gpUe0BYfWEvxu9ahgD3JrIM4lV7cPx1rB48FV3rt1SLllFVQEjPyUC7n6bAxdgCZvrGiMxIRGcPf3wZMBrmhqZqUXcWggIUoAAFKCAEqjUg3EiOQpffpsLHwhHW5dP9rqXGoLFDXSzrPwlm5Rsa1XTTqCogiHotCN6AJYdXQ1fPEI4mFvgscCwCPLmiYk23Oe9PAQpQgAI12MXw9s5lOBhxDl42dWQpkvMyZZ/88kHvoL27n9q0jSoDgqjkztCjSC8ugJeVE1rU8YaWnPjIgwIUoAAFKKA+AtX2BmFjyH68v3clvGxdYapvhJLSUlxLi8Ugn474sNOLMKrBaY0PN4eqA4L6ND9LQgEKUIACFHi0QLUEhMLiIkzduxKnY0LhXL5hUVp+NvKLC7C093j4u3ipVfswIKhVc7AwFKAABShQAwIqDwilZaX49dzf+HTvj/B38ISpgTHEv11MiMBg/274KmB0DVT7ybdkQFC7JmGBKEABClCgmgVUHhDiMlMwefsSiCl9YplhccRnp0FHWxtbRnwBM0OTaq6y4tsxICg24hkUoAAFKFC7BVQaEErLyrDs2DrMDt6AVg71oKerJ/db2H8rBD/2m6y2GxUxINTuh561owAFKEABxQIqDQhik6ImS1+Di5ktbMtXDzyVcANt7D2wasRMxaWroTMYEGoInrelAAUoQAG1EVBpQOi5YhKuZyShpYuYygek52bicHwYoib9BjtTK7VBeLggDAhq2zQsGAUoQAEKVJOAygJCWGIkGi9/C4MbtLlXlSOxV7EwcByGNgmopuo93W0YEJ7OjZ+iAAUoQIHaI6CSgCA2Y2rxwwQ46BmijqWj1LqZHo+C0hLsemU2HMunOqorIwOCurYMy0UBClCAAtUloJKAsPDoX1h2egealW/GlF2Uj8j0eMzv9SZ6NmgFLS31XjmQAaG6Hj/ehwIUoAAF1FVA6QHhTPQVvLljCSz0jWFlZAYxkyH8dgL87d0xu8frcDCzUVeLe+ViQFD7JmIBKUABClBAxQJKDQhFJcWYdehPbA49Ck9LR7nWQVZhHlLyMjErYDQC6rdScXWUc3kGBOU48ioUoAAFKKC5AkoNCNuuncCEbd/Cy8oZlkZmKCsrw6XECDR1bYSfB70LfR09jZBiQNCIZmIhKUABClBAhQJKCwgZedmYvu8n7I+6CG9rF1lk8UYhPDMJB0fNgZWJhQqrodxLMyAo15NXowAFKEABzRNQWkDYde0ERm+eh9aO9WCoZyj3W9gXcQ7jW/TF573e0CgZBgSNai4WlgIUoAAFVCCglIAguhLaffcfFGtro175tMbI24nQ1gKC31imgmKr9pIMCKr15dUpQAEKUED9BZQSEKbtWYEV5/9Ghzo+cgpjTkEuDsaGYt+IL9HGw0/9FR4qIQOCxjUZC0wBClCAAkoWqHJAiElPgNfSsXjOtTHMDIxl8c4nRWK4T2fMCByj5OJWz+UYEKrHmXehAAUoQAH1FahyQOj00zvIzkqHl727rKXY3jkiLRb7xy5EQzs39a35E0rGgKCRzcZCU4ACFKCAEgWqFBDWn9+Dyft+RHsXb1mkktIShKbGYHq3VzDEp7Par5j4OEcGBCU+YbwUBShAAQpopMBTB4SErFSM3TwfuQW5sDexlGseRGUmw0RPH0v7ToS3g6dGgohCMyBobNOx4BSgAAUooCSBpw4I3wVvxOITm+Bl4woDXT3kFxciJjMFUzoMxUtNApVUvJq5DANCzbjzrhSgAAUooD4CTx0Qvjq8CluvHoObma2sTXhaLBws7PDboPdhrUGLIj2qKRgQ1OcBZUkoQAEKUKBmBJ46IMw58hcWHluLlk5eKCgqwM2cNPzx/FS0rHNnPIImHwwImtx6LDsFKEABCihD4KkDQmFJMSZtWYBfr/yDwtJSbBvyCXp4t9PYgYn3YzIgKOPR4jUoQAEKUECTBZ46IGhypRWVnQFBkRB/TgEKUIACtV2AAeERLcyAUNsfe9aRSahtAAABwklEQVSPAhSgAAUUCTAgMCAoekb4cwpQgAIUeAYFGBAYEJ7Bx55VpgAFKEABRQIMCAwIip4R/pwCFKAABZ5BAQYEBoRn8LFnlSlAAQpQQJEAAwIDgqJnhD+nAAUoQIFnUIABgQHhGXzsWWUKUIACFFAkwIDAgKDoGeHPKUABClDgGRRgQGBAeAYfe1aZAhSgAAUUCTAgMCAoekb4cwpQgAIUeAYFGBAYEJ7Bx55VpgAFKEABRQIMCI8QqrtwJBpYOMDSyAwFRYUISb6Jn4M+QGd3P0We/DkFKEABClCgVggwIDyiGaftWYHvzuxAXWtn3M7PRj0LeyzqNxH1bOrUikZnJShAAQpQgAKKBBgQHiFUVlaG2UfXICY9AWaGJhjSuAtaODVQZMmfU4ACFKAABWqNAAPCY5pShITbeVkw1NWHkb5hrWlwVoQCFKAABShQEQEGhIoo8RwKUIACFKDAMybAgPCMNTirSwEKUIACFKiIAANCRZR4DgUoQAEKUOAZE2BAeMYanNWlAAUoQAEKVESAAaEiSjyHAhSgAAUo8IwJMCA8Yw3O6lKAAhSgAAUqIsCAUBElnkMBClCAAhR4xgT+H0KKd/lcrTKmAAAAAElFTkSuQmCC;" parent="1" vertex="1">
          <mxGeometry width="1040" height="812" as="geometry" />
        </mxCell>
        <mxCell id="cJ9B3ikXQ1t_GQ5fsP3J-7" value="Projector" style="text;html=1;strokeColor=none;fillColor=none;align=center;verticalAlign=middle;whiteSpace=wrap;rounded=0;fontSize=28;fontColor=#000000;" parent="1" vertex="1">
          <mxGeometry x="90" y="260" width="100" height="20" as="geometry" />
        </mxCell>
        <mxCell id="cJ9B3ikXQ1t_GQ5fsP3J-9" value="" style="endArrow=none;html=1;fontSize=24;entryX=0.5;entryY=1;entryDx=0;entryDy=0;exitX=0.231;exitY=0.505;exitDx=0;exitDy=0;exitPerimeter=0;strokeWidth=3;fillColor=#f5f5f5;strokeColor=#666666;" parent="1" source="cJ9B3ikXQ1t_GQ5fsP3J-2" target="cJ9B3ikXQ1t_GQ5fsP3J-7" edge="1">
          <mxGeometry width="50" height="50" relative="1" as="geometry">
            <mxPoint x="450" y="480" as="sourcePoint" />
            <mxPoint x="500" y="430" as="targetPoint" />
          </mxGeometry>
        </mxCell>
        <mxCell id="cJ9B3ikXQ1t_GQ5fsP3J-10" value="Center of Projection" style="text;html=1;strokeColor=none;fillColor=none;align=center;verticalAlign=middle;whiteSpace=wrap;rounded=0;fontSize=28;fontColor=#000000;" parent="1" vertex="1">
          <mxGeometry x="340" y="690" width="250" height="20" as="geometry" />
        </mxCell>
        <mxCell id="cJ9B3ikXQ1t_GQ5fsP3J-11" value="" style="endArrow=none;html=1;strokeWidth=3;fontSize=24;entryX=0.192;entryY=0.702;entryDx=0;entryDy=0;entryPerimeter=0;fillColor=#f5f5f5;strokeColor=#666666;" parent="1" source="cJ9B3ikXQ1t_GQ5fsP3J-10" target="cJ9B3ikXQ1t_GQ5fsP3J-2" edge="1">
          <mxGeometry width="50" height="50" relative="1" as="geometry">
            <mxPoint x="450" y="480" as="sourcePoint" />
            <mxPoint x="170" y="910" as="targetPoint" />
          </mxGeometry>
        </mxCell>
        <mxCell id="cJ9B3ikXQ1t_GQ5fsP3J-12" value="&lt;b style=&quot;font-size: 28px;&quot;&gt;P&lt;/b&gt;" style="text;html=1;strokeColor=none;fillColor=none;align=center;verticalAlign=middle;whiteSpace=wrap;rounded=0;fontSize=28;fontColor=#000000;" parent="1" vertex="1">
          <mxGeometry x="730" y="460" width="40" height="20" as="geometry" />
        </mxCell>
        <mxCell id="cJ9B3ikXQ1t_GQ5fsP3J-13" value="" style="endArrow=none;html=1;strokeWidth=3;fontSize=24;entryX=0.25;entryY=0;entryDx=0;entryDy=0;labelBackgroundColor=default;fillColor=#f5f5f5;strokeColor=#666666;" parent="1" edge="1">
          <mxGeometry width="50" height="50" relative="1" as="geometry">
            <mxPoint x="680" y="370" as="sourcePoint" />
            <mxPoint x="740" y="459" as="targetPoint" />
          </mxGeometry>
        </mxCell>
        <mxCell id="cJ9B3ikXQ1t_GQ5fsP3J-14" value="Image Plane" style="text;html=1;strokeColor=none;fillColor=none;align=center;verticalAlign=middle;whiteSpace=wrap;rounded=0;fontSize=28;fontColor=#000000;" parent="1" vertex="1">
          <mxGeometry x="520" y="480" width="170" height="20" as="geometry" />
        </mxCell>
        <mxCell id="cJ9B3ikXQ1t_GQ5fsP3J-15" value="" style="endArrow=none;html=1;strokeWidth=3;fontSize=24;entryX=0.5;entryY=0;entryDx=0;entryDy=0;exitX=0.442;exitY=0.456;exitDx=0;exitDy=0;exitPerimeter=0;fillColor=#f5f5f5;strokeColor=#666666;" parent="1" source="cJ9B3ikXQ1t_GQ5fsP3J-2" target="cJ9B3ikXQ1t_GQ5fsP3J-14" edge="1">
          <mxGeometry width="50" height="50" relative="1" as="geometry">
            <mxPoint x="310" y="870" as="sourcePoint" />
            <mxPoint x="500" y="430" as="targetPoint" />
          </mxGeometry>
        </mxCell>
        <mxCell id="cJ9B3ikXQ1t_GQ5fsP3J-16" value="Projection of &lt;b style=&quot;font-size: 28px;&quot;&gt;P&lt;/b&gt;" style="text;html=1;strokeColor=none;fillColor=none;align=center;verticalAlign=middle;whiteSpace=wrap;rounded=0;fontSize=28;fontColor=#000000;" parent="1" vertex="1">
          <mxGeometry x="480.32" y="620" width="219.68" height="20" as="geometry" />
        </mxCell>
        <mxCell id="cJ9B3ikXQ1t_GQ5fsP3J-17" value="" style="endArrow=none;html=1;strokeWidth=3;fontSize=24;entryX=0.5;entryY=0;entryDx=0;entryDy=0;exitX=0.442;exitY=0.456;exitDx=0;exitDy=0;exitPerimeter=0;fillColor=#f5f5f5;strokeColor=#666666;" parent="1" target="cJ9B3ikXQ1t_GQ5fsP3J-16" edge="1">
          <mxGeometry width="50" height="50" relative="1" as="geometry">
            <mxPoint x="420.00000000000006" y="440.0020000000002" as="sourcePoint" />
            <mxPoint x="460.32" y="499.73" as="targetPoint" />
          </mxGeometry>
        </mxCell>
      </root>
    </mxGraphModel>
  </diagram>
</mxfile>
